<svg version="1.0" xmlns="http://www.w3.org/2000/svg" width="1333.333" height="1333.333" viewBox="0 0 1000 1000"><path d="M125 22.4v22.3l6 .6c3.3.4 8.7.4 12 0 5.2-.5 6-.4 6 1.1 0 1.2 1 1.6 4 1.6 2.9 0 4 .4 4 1.5 0 1.2 1.3 1.5 6 1.5 4.6 0 6-.3 6-1.4 0-1.6 7.3-3.2 10.6-2.3 1.1.3 0 .5-2.3.6-3.9.1-4.3.3-4.3 2.6 0 2.5.1 2.5 8 2.5 4.7 0 8 .4 8 1s3.3 1 8 1c7.3 0 8 .2 8 2 0 1.7.7 2 4 2 2.2 0 4 .4 4 1 0 .5 1.8 1 4 1 2.9 0 4 .4 4 1.5s1.1 1.5 4 1.5 4-.4 4-1.5c0-1.2 1.6-1.5 8-1.5 5.2 0 8 .4 8 1.1 0 .7 1.7 1 4.5.7 2.5-.2 4.5 0 4.5.3 0 .4.8.9 1.8 1.2.9.2 2.5.8 3.6 1.2 1.6.7 1.7.5 1.1-1.6-.7-2.1-.6-2.2.9-.7.9.9 2.1 2.9 2.6 4.4 1 2.4 1.2 2.5 2.8 1.1 1.9-1.8 5.2-.6 5.2 1.8 0 2.3 1.7 1.8 2.3-.6.4-1.5 1.1-2 2.2-1.5.9.3 3.2.6 5.1.6 2.4 0 3.4.5 3.4 1.5 0 1.2 1.6 1.5 8 1.5s8-.3 8-1.5c0-1.1 1.1-1.5 4-1.5 3.8 0 4 .2 4 3v3h16.2l-.4 2.7c-.4 2.7-.3 2.8 3.9 2.4 2.9-.2 4.3-.8 4.3-1.7 0-1 1.2-1.4 4-1.4 2.2 0 4 .5 4 1 0 .6.9 2.1 2.1 3.3 1.9 2.1 2.1 2.1 3.3.4 1.6-2.1 2.6-2.2 2.6-.2 0 1.2 1.6 1.5 8 1.5 4.7 0 8 .4 8 1 0 .5 1.8 1 4 1 3.8 0 4 .2 4 3v3h16c13.6 0 16-.2 16-1.5 0-1.1-1.1-1.5-4.2-1.5-2.3 0-3.9-.3-3.5-.6.3-.3 4-.3 8.1.1 5.5.5 7.6 1.1 7.6 2.1 0 1.1 1.9 1.4 8 1.4 4.7 0 8 .4 8 1s3.3 1 8 1c6.4 0 8 .3 8 1.5 0 1.1 1.1 1.5 4 1.5 3.6 0 4-.3 4-2.5 0-2.3.4-2.5 4-2.5 2.2 0 4 .4 4 1 0 .5 1.8 1 4 1 2.9 0 4 .4 4 1.5 0 1.2 2 1.5 12 1.5s12-.3 12-1.5c0-1.1 1.1-1.5 4-1.5 3.6 0 4-.3 4-2.4 0-2.2-.5-2.5-4.2-2.9l-4.3-.4 4.3-.1c3-.1 4.2-.6 4.2-1.7 0-2.1 1.8-1.9 3.2.5 1 1.6 2.1 1.9 6.8 1.6 3-.2 3.8-.1 1.8.1-3.7.4-3.8.6-3.8 4.3 0 2.1-.5 4-1.2 4.2-.9.3-.9.6 0 1.2.7.4 1.2.2 1.2-.3 0-1.4 3.7-1.4 4.5-.1 1.4 2.3 3.5.7 5.2-4 1.8-5.2 3.5-6.2 5.2-3.3 1 1.7 1 1.7 1.1 0 0-1.3.9-1.7 4-1.7 2.9 0 4-.4 4-1.5 0-1.2 1.6-1.5 8-1.5 7.5 0 8 .1 8 2.1 0 1.5.4 1.9 1.6 1.5.9-.3 2.7-.6 4-.6 1.5 0 2.4-.6 2.4-1.5 0-1.1 1.2-1.5 4.9-1.5 4.1 0 5.3-.4 6.9-2.5 2.6-3.3 5.8-3.2 9 .2 1.6 1.8 2.7 2.3 3 1.5.2-.7 2.1-1.2 4.3-1.2 3.5 0 3.9.3 3.9 2.5 0 1.4-.4 2.5-1 2.5-.5 0-1 .4-1 .9 0 .9 9.3.2 9.8-.8.1-.3 2.2-.5 4.7-.3 3.9.4 4.8.1 7-2.6 2.3-2.7 2.9-2.9 7.2-2.4 2.7.3 5 .8 5.3 1.2.3.5 4 1.1 8.3 1.5 5.5.5 7.7 1.1 7.7 2.1s1.3 1.4 4 1.4c2.2 0 4-.5 4-1 0-.6 1.8-1 4-1 3.3 0 4 .3 4 2 0 1.8.7 2 8 2 4.7 0 8 .4 8 1s3.3 1 8 1 8 .4 8 1c0 .5 1.8 1 4 1 3.9 0 4 .1 4.1 3.7 0 2.1.4 5.6.8 7.8.8 3.9.9 3.9 1 .7.2-4.6 1.8-3.9 2.4 1 .3 2.4 1.2 6.5 2 9.3.8 2.7 1.7 9.9 2 16 2.5 46.1 4.6 61.9 4.6 34.5 0-9.6 0-19.1.1-21l.1-3.5 1.4 2.5c1.4 2.4 1.4 2.3 1.5-3.2 0-3.1.3-6.4.7-7.4.4-1.1.2-1.5-.4-1.1-.7.4-.9-2.6-.5-9.1.4-9.4 1-12.1 1.9-9.5.5 1.5 6.3 1.8 6.3.3 0-.6 1.8-1 4-1s4 .4 4 1c0 .5 1.8 1 3.9 1 2.9 0 4.1.5 4.4 1.7.3 1 .6.2.7-1.7.2-1.9.6.3 1.1 5 1.4 15.6 3.8 47.3 5 65.2.7 9.8 1.6 17.8 1.9 17.8.4 0 1 .9 1.3 2 .3 1.3 1.1 1.8 2 1.4 1-.3 1.8.2 2.1 1.4.7 2.2 7.7 3.2 23.9 3.2 5.7 0 9.6.4 9.2.9-1 1.7 5.7 4.1 11.2 4.1 2.9 0 5.3.5 5.3 1 0 .6.8.5 2-.2 1.6-1 2.4-1 4 0 1.1.6 3.8 1.2 6 1.2 3 0 4 .4 4 1.6 0 1.4.8 1.6 4.8 1.2 3.9-.4 5.1-.1 7.2 1.9 2.9 2.7 4 2.9 4 .8 0-2 .3-1.9 4.4.9 2.7 1.8 5.6 2.6 11.6 3.1 7.4.7 9.8 1.7 6.8 2.8-.7.3 0 1 1.7 1.6 5.9 2.4 9.5 4.3 9.5 5.2 0 .5 1.4.9 3 .9 2 0 3 .5 3 1.5 0 .8.6 1.5 1.4 1.5.8 0 2.1.3 3 .6 1.5.6 1.6-10.6 1.6-121.5V0H125v22.4zM271.5 60c.3.5-.1 1-.9 1-.9 0-1.6-.5-1.6-1 0-.6.4-1 .9-1 .6 0 1.3.4 1.6 1zm2.5 5c0 .5-.4 1-1 1-.5 0-1-.5-1-1 0-.6.5-1 1-1 .6 0 1 .4 1 1zm80.8 13.8c.2.7-.6 1.2-1.7 1.2-2.1 0-2.7-1.1-1.4-2.4.9-.9 2.6-.2 3.1 1.2zM469 79c0 .5-.5 1-1.1 1-.5 0-.7-.5-.4-1 .3-.6.8-1 1.1-1 .2 0 .4.4.4 1zm93.5 0c.3.5-.3 1-1.5 1s-1.8-.5-1.5-1c.3-.6 1-1 1.5-1s1.2.4 1.5 1zm26.4.6c.2.2-1.9.4-4.7.4-2.9 0-5.2-.4-5.2-.9 0-.8 9-.3 9.9.5zm10.6-.6c.3.5-.1 1-.9 1-.9 0-1.6-.5-1.6-1 0-.6.4-1 .9-1 .6 0 1.3.4 1.6 1zm43.8 5.7c-1.3.2-3.3.2-4.5 0-1.3-.2-.3-.4 2.2-.4s3.5.2 2.3.4zM466 87c0 .5-.4 1-1 1-.5 0-1-.5-1-1 0-.6.5-1 1-1 .6 0 1 .4 1 1zm13 0c0 .5-.4 1-1 1-.5 0-1-.5-1-1 0-.6.5-1 1-1 .6 0 1 .4 1 1zm-91.7.7c-1.3.2-3.3.2-4.5 0-1.3-.2-.3-.4 2.2-.4s3.5.2 2.3.4zm46 0c-2.4.2-6.2.2-8.5 0-2.4-.2-.5-.4 4.2-.4s6.6.2 4.3.4zm261.4 15.5c-.3.7-.5.2-.5-1.2s.2-1.9.5-1.3c.2.7.2 1.9 0 2.5zm4 7c-.2 1.3-.4.3-.4-2.2s.2-3.5.4-2.3c.2 1.3.2 3.3 0 4.5zm22.6 1.5c-2.4.2-6.2.2-8.5 0-2.4-.2-.5-.4 4.2-.4s6.6.2 4.3.4z"/><path d="M189 57.5c0 1.1 1.1 1.5 4 1.5s4-.4 4-1.5-1.1-1.5-4-1.5-4 .4-4 1.5zm48 7.5c0 .5 1.8 1 4 1s4-.5 4-1c0-.6-1.8-1-4-1s-4 .4-4 1zm13.9 1c1.3 1.1 2.8 2 3.5 1.9.7 0 .7-.2-.1-.6-.7-.2-1.3-1.1-1.3-1.9 0-.8-1-1.4-2.2-1.4l-2.3.1 2.4 1.9zm87.3 15.2c.6 1.8 2.8 2.1 2.8.4 0-.9-.7-1.6-1.6-1.6-.9 0-1.4.5-1.2 1.2zM731.5 123c-.3.5-.2 1 .4 1 .5 0 1.2 1 1.4 2.2.4 2 .4 2 .6-.4.1-2.8-1.3-4.5-2.4-2.8zM356 210.4c0 .9.5 1.6 1 1.6.6 0 1-.4 1-.9 0-.6-.4-1.3-1-1.6-.5-.3-1 .1-1 .9zm172.3 14.1c-.3.9-.3 1.8-.1 2.1.3.3.8-.4 1.1-1.6.6-2.3-.1-2.7-1-.5zm-44 34.2c-1.4.5-1.8 3.3-.5 3.3.4 0 1.3-.9 2-2 1.2-2 .8-2.3-1.5-1.3zm-12 11c.9.2 2.5.2 3.5 0 .9-.3.1-.5-1.8-.5-1.9 0-2.7.2-1.7.5zM460 282.1c-6.6 3.4-8.1 3.8-13 3.4-3.7-.3-4.7-.2-3 .4l2.5.8-2.7.8c-1.6.4-2.8 1-2.8 1.5 0 .4-1.8 1.5-4 2.5s-4 2.3-4 3c0 1.1-2.5 2.6-6.5 4-1.9.6-1.9.7-.2 2 1.2.9 1.8 2.3 1.5 4.2-.2 2 .1 2.8 1.2 2.8 2.2 0 7 4 7 5.9 0 .9.6 1.6 1.4 1.6.8 0 2.4 1.2 3.5 2.7 2.1 2.5 2.4 2.6 6.9 1.5 3.5-.8 4.9-.7 5.5.1.6.9 1 .9 1.4-.1.2-.6 1.3-1.2 2.4-1.2 1 0 1.9-.7 1.9-1.5 0-.9.8-1.9 1.8-2.2.9-.4 2.8-1.5 4.1-2.5 3-2.3 3.8-2.3 4.4-.1.4 1.7.5 1.7.6.1.2-2.7 7.2-4.1 19.9-4 6.1 0 11.2-.3 11.2-.8 0-.4 1.5-.8 3.4-.8 3.8 0 5.6-.8 5.6-2.3 0-.6-.4-.8-.9-.5-.5.3-1.2-.5-1.5-1.9-.4-1.4-1.2-2.5-1.9-2.5-1.8 0-10.9-9.9-10.2-11 .3-.6-.2-1-1.2-1-1.4 0-1.5-.2-.5-.9 1.8-1.1-.7-2.1-5.3-2.1-6.7 0-9.5-1.1-9.5-3.6 0-2.3-.3-2.4-5.7-2.3-4.6.1-7.4 1-13.3 4zm409.6 37.4c-.8.8-1.8 1.5-2.3 1.5-.5 0-1.9.8-3.3 1.7-1.3.9-3.2 1.8-4.2 1.8-1 .1-2.9 1.2-4.3 2.5s-2.5 1.9-2.6 1.4c0-.5-.4.1-1 1.4-.6 1.7-1.4 2.2-2.8 1.7-1.4-.4-2.3 0-3.1 1.5-.7 1.2-1.8 1.9-2.5 1.6-.8-.3-1.7-.1-2 .4-.4.6.3 1 1.4 1 1.2 0 2.1.4 2.1 1 0 .5-.6 1-1.4 1-.8 0-1.8 1-2.2 2.2-.3 1.3-1.5 4.6-2.5 7.4-1.7 4.6-2.2 5.1-4.4 4.6-2.1-.4-2.5 0-2.5 1.9 0 1.2-.6 3-1.3 3.8-.7.9-1.9 3.5-2.7 5.8-.9 3-1.9 4.3-3.2 4.3-1 0-1.8.4-1.8.8 0 .5-1 1.4-2.2 2-2 .9-1.7 1 1.8.7 3.7-.3 4.1-.1 3.7 1.5-.3 1.2-1.1 1.6-2 1.3-1.1-.4-1.4 0-1.1 1.3.3 1.5 1 1.8 3.8 1.6 3-.3 3.6 0 3.6 1.7 0 1.6-.7 2.1-2.9 2.1-1.5 0-2.6-.4-2.3-.9.3-.5-.2-1.2-1.1-1.5-.9-.4-2-.1-2.5.6-1.2 1.9-1 2.8.6 2.2.8-.3 1.6-.1 1.9.3.5.8-1.5.9-6 .4-.7 0-1-.7-.7-1.4.3-.9-.4-1.3-2.6-1.1-2.7.2-3-.1-2.6-2.2.3-1.4.1-2.2-.5-1.9-.5.4-.9 1.3-.9 2.1s-.4 1.3-1 .9c-.5-.3-.7-1.3-.4-2.3.4-1.3.3-1.3-.7.2-1 1.6-.9 2.1.4 3.1 1.3.9 1.4 1.4.4 2.5-1 1-.8 1.2 1.1.7 1.2-.3 2-.1 1.6.4-.5.9 1.5 1.4 4.6 1.1.8-.1 12.5-.3 26-.6 26.2-.4 25.8-.3-6.3 1.5-24.1 1.4-26.6 3.1-4.2 3 9.8-.1 14.4.2 14 .9-.4.6-5.9 1-13.8 1.1-7.3 0-12.4.4-11.4.8s1.8 1.1 1.8 1.6c-.1.6.7 1 1.7 1 .9 0 1.6-.6 1.4-1.3-.1-.8.5-1.2 1.5-1 1 .2 1.9 1.2 2.1 2.2.2 1 0 1.6-.5 1.3-.5-.3-1.5-.2-2.3.4-1 .6-1.1.9-.2.9.6 0 1.2.4 1.2 1 0 1.4-3.7 1.2-4.3-.3-.4-.9-.6-.9-.6 0-.1.6.4 1.5.9 1.8.6.3 1 1.3 1 2.2 0 1.4-.4 1.3-2.3-.5-5.5-5.2-13.1-.9-10.8 6.1 1.4 4.1 5.8 8.5 9.7 9.7 2.5.7 2.6.8.6.9-8.5.3-15.9-13.2-10.3-18.8 1.9-1.9 1.9-2-1.9-2.6-2.2-.4-4.7-.2-5.9.4-1.1.6-3.1 1.1-4.4 1.1-1.4 0-3 .7-3.7 1.5-.9 1.1-2.2 1.4-4.2 1-2.4-.6-2.8-.3-2.8 1.4 0 1.3-1 2.6-2.5 3.3-1.4.6-2.7 2.3-3 3.9-.4 1.6-1.5 3.1-2.7 3.5-1.4.4-1.9 1.2-1.6 2.9.4 1.8.1 2.2-1.1 1.7-1.3-.4-1.3-.2.2 1.5 1 1.1 1.5 2.7 1.1 3.7-.3.9-.1 2.3.6 3.1 1.1 1.3.8 1.5-2 1.5-2.6 0-3.1-.3-2.6-1.6s.4-1.4-.7-.6c-1 .9-1.7.8-2.7-.1-1-1-1.1-.9-.5.2.5.9.4 1.2-.3.7-.7-.4-1.2-1.3-1.2-1.9.1-1.8 5-7.5 5-5.8 0 1.1.4.9 1.5-.5 2-2.7 1.8-4.7-.6-6.3-1.6-.9-1.9-1.5-1-2.1.9-.5.6-.9-.9-1.3-2.1-.5-2.2-.3-1.7 4.1.3 2.6.2 5.6-.3 6.7l-.9 2-.1-2c-.2-1.1-.2-2.5-.1-3.1.1-.6-.6-1.7-1.4-2.4-1.4-1.2-1.6.4-1.1 16.6.3 13.6.2 16-.5 9.9-.7-6.4-1.3-11.3-1.9-15.3 0-.1-.7-.2-1.5-.2-2 0-1.9-3 .2-4.5 1.6-1.2 1.6-1.6.3-4-.8-1.5-1.6-2.2-1.8-1.6-.2.5-1 .7-1.8.4-.8-.3-1.4.1-1.4 1.1 0 .9.5 1.6 1.1 1.6.8 0 .8.4-.1 1.5-.6.8-.9 1.9-.5 2.5.9 1.4-.5 10-1.6 10-.5 0-.9-1.5-.9-3.3 0-1.7-.3-4.2-.6-5.5-.5-1.8-.9-2-2.1-1-1.2 1-1.7.9-2.4-.4-.6-1.1-2.2-1.5-6.3-1.3-3.2.1-5.4-.3-5.3-.8.2-1.2-4.1-3.7-6.5-3.7-1 0-1.8.5-1.8 1.1 0 .6.7.9 1.5.5 1.3-.4 1.2-.1-.1 2-1.2 1.7-2.2 2.3-3.3 1.8-3.7-1.6-6.4-1.7-5.9-.3.3.8 1.1 1.3 1.7 1.1.6-.1 1.1.5 1.1 1.3 0 1.8-1.1 1.9-4.3.4-1.7-.8-3-.8-4.3-.1-1.4.8-2.1.6-3-.6-.7-1-1.6-1.4-2-.9-.4.4-.3 1.2.3 1.8.6.6.9 1.7.7 2.4-.3.7.5 1.5 1.8 1.9 1.9.5 2 .8.8 1.6-1.1.7-1.8.5-2.7-.6-2-2.7-4.6-.9-4.1 2.7.3 1.6.1 3.2-.4 3.5-1.4.9-.9 2.6.6 2.1.8-.3 1.6.2 1.9 1.3.3 1.1 0 1.7-.7 1.4-.7-.3-1.2 1.2-1.3 4-.1 2.5-1 5.4-2 6.5-.9 1.1-1.8 3.9-1.9 6.1-.1 2.3-.5 4.4-.9 4.8-1.1 1.2-2.5-2.3-2.5-6.6 0-3.8-.2-4.2-2.5-4.2-3.3 0-4.9-3.1-3-5.6 1.9-2.5 1.9-3.5 0-2.8-1 .4-1.3.2-1-.8.3-.8-.4-2.3-1.5-3.3-1.7-1.5-2.3-1.7-3-.6-.6 1-1.2.7-2.5-1.2-1.6-2.6-1.8-2.6-4.1-.9-1.3.9-2.1 2.3-1.9 3 .3.7 0 1-.5.7-.6-.3-1-.2-1 .3s-.9 1.2-2 1.5c-3 .8-2.4 2.4 1 3.2 3.6.8 4.6 2.1 3 4-1.4 1.7-9.5 2.1-10.4.6-.9-1.4 1.4-1.8 5.6-1.1 2.1.4 3.5.3 3.2-.1-.3-.5-1-.9-1.6-.9-.5 0-2.5-.7-4.3-1.6l-3.3-1.6 3.9-3.5c2.3-2.1 3.8-4.2 3.5-5-.4-1-.2-1.1 1.1-.5 1.1.7 2.1.5 3.1-.4 2-2.1 1-3.8-2.3-3.9-2.1 0-3.3-.7-4.2-2.5-.7-1.4-2-2.4-3-2.3-1 .1-1.2 0-.5-.3 1.9-.9 1.4-2.4-.8-2.4-1.1 0-2 .4-2 .9 0 2.1 1.3 4.1 2.6 4.1.8 0 1.4.9 1.4 2 0 1.3-.7 2-2 2s-2.2.9-2.6 2.5c-.3 1.4-1.4 3-2.4 3.5-2.4 1.3-2.7 1.3-3.3-.4-.4-1-.1-1.3.9-.9s1.2 0 .8-1.1c-.4-1.1-1.3-1.4-2.4-1.1-1.4.5-1.7.2-1.3-1.3.6-2.5-1.2-3.7-2.9-1.9-1.1 1.2-1.6 1-3.2-1.7-1.1-1.7-1.9-3.5-1.8-3.9.1-.5-.2-.6-.8-.2-.6.4-.7 1.2-.2 1.8.4.7 1.4 2.5 2 4.1l1.3 2.8-3.8-.6c-2.1-.4-4.3-1.4-4.9-2.2-1-1.3-1.2-1.3-1.8.1-.7 2-6.6 2.1-6.6.1 0-.9.7-1.2 1.9-.9 2 .5 5.4-2.3 4.8-4.1-.2-.6.6-1.6 1.7-2.2 1.4-.7 2-1.9 1.9-3.7-.1-1.5.2-2.5.6-2.3.4.3 1.4-1.4 2.2-3.7 2-5.3.9-10.3-2.6-11.9-1.4-.6-2.5-2-2.5-3 0-1.1.4-1.7.9-1.4.5.3 1.5-.2 2.2-1.2 1.2-1.5 1.2-1.6-.2-.4-1.4 1-1.8 1-2.3-.3-.3-.8-.2-1.5.2-1.5s.8-1.1.8-2.5c.1-1.4-.2-2.5-.7-2.5-.5 0-.9-.9-.9-1.9 0-1.1-.5-2.3-1-2.6-.6-.4-.8-1.1-.5-1.6.4-.5.1-.9-.5-.9s-.9-.4-.6-.8c.3-.5-.5-1.8-1.7-2.9-1.2-1.1-3-3.4-3.9-5.2-1-1.9-2.5-3.1-3.7-3.1-1.1 0-2.3-.5-2.7-1.2-.5-.8-.2-.9.9-.5 2.7 1 3-1.2.5-3.2-1.3-1.1-4.8-3.2-7.8-4.8-3-1.5-7.5-4.3-9.9-6.1-4.1-3.1-4.9-3.3-9.5-2.8-11.9 1.2-18.7 2.5-26.7 4.9-8 2.6-8.7 3.1-14.7 9.7-11.4 12.7-14.8 25.7-8.8 34.6 1.5 2.3 2.8 5.4 3 6.8.1 1.5 1.1 3.2 2 3.9 1.6 1.2 1.5 1.3-1.3 1.1-1.7-.1-3.1.2-3.1.6 0 .4-.7 1.1-1.6 1.4-2 .8-4.6-2.2-4-4.7.2-.9 0-1.7-.4-1.7-1.8 0-1.9 1.9-.5 6 .8 2.4 1.3 4.5 1 4.8-.7.8-3.5-1.9-3.5-3.4 0-.8-.4-1.4-.9-1.4s-1.2-1.1-1.5-2.5c-.4-1.4-1.3-2.5-2.1-2.5-1.1 0-1.2-.6-.4-3 .6-1.7 1.5-3 2-3s.9-.7.9-1.5-.4-1.5-.9-1.5-1.7-.3-2.7-.7c-1.3-.5-1.6-.3-1.1 1 .5 1.2.1 1.7-1.2 1.7-1.5 0-2.1 1-2.6 4.2l-.7 4.2-4.4-8.4c-2.3-4.7-4.7-9.4-5.2-10.6-1.4-2.8-10.2-11.4-11.8-11.4-.7 0-1.9-.6-2.7-1.4-2.2-2.3-14.8-5.7-19.7-5.5-5.4.3-15.2 3.1-18.5 5.3-2.7 1.8-5.5 1.2-5.5-1.3-.1-.9-.9.1-1.9 2.2-.9 2-2 3.5-2.3 3.1-.4-.3-.4.3-.1 1.4.4 1.7.1 2-1.6 1.5-1.6-.4-2.1-.1-2.1 1.3 0 1.6.2 1.7 1 .4.5-.8 1-1.1 1-.5 0 .5-2.3 3.1-5.1 5.8-3.4 3.2-4.9 4.1-4.4 2.8.4-1.4.2-2.1-.7-2.1-.9 0-.9-.3-.2-.8.6-.4 1.4-1.4 1.8-2.2.3-.8.4-.5.2.8-.3 1.5 0 2.2.7 1.9.7-.2 1.1-1.2.9-2.1-.2-1 .2-2.4.9-3.2.7-.9.8-1.4.1-1.4-.6 0-1.2.6-1.5 1.2-.2.8-1.1 0-2-1.7l-1.7-3 .6 3.7c.7 4.1 0 4.6-3 2.3-1.1-.9-1.6-2-1.2-3.1.4-1.2.2-1.5-.9-1-1 .3-1.5-.1-1.5-1.2 0-1.4-.2-1.5-1-.2-.6 1-.4 2.1.8 3.4 1.4 1.5 1.4 2 .3 2.4-.7.2-2.2 1.3-3.2 2.3-2.8 2.8-3.6 2.3-.9-.6 1.9-2.1 2.1-2.5.7-3-.8-.4-2.9.1-4.6.9-1.6.9-4.3 1.6-5.9 1.6-1.5 0-3.7.7-4.8 1.6-1.8 1.4-1.8 1.5.4.4 2.1-1 2.3-.9 2 .7-.2 1.1-1.2 1.8-2.5 1.8s-2.7.6-3.3 1.3c-.7.8-.7.9.1.3.6-.5 3.9-.3 7.7.4 10.5 2.1 10.5 2 9.7 7.4-.4 2.5-.9 4.8-1.1 5-.8.9-5.4-2.3-5.9-4-.5-1.6-.9-1.7-2.6-.6-1 .6-1.9 1.8-1.9 2.5 0 .8-1.6 2.9-3.5 4.8-2.3 2.2-3 3.4-2 3.4 3.3 0 1.3 1.9-2.7 2.6-4 .6-4.1.8-2 1.7 2.9 1.3 2.5 3.4-1 5.5s-5 .6-1.8-1.8l2.4-1.8-2.8.5c-2.5.5-2.7.3-2.1-1.6.4-1.3.2-2.1-.5-2.1-.6 0-.9.4-.6.9.3.5 0 1.1-.7 1.4-.7.3-1.9 2.4-2.6 4.7-1.4 4.9-2.8 4.8-4.6-.2-1-3.1-1-4.1.2-5.8 1.3-1.8 1.2-2.1-.4-2.7-1-.4-2.1-1.1-2.5-1.7-.5-.7-.8-.6-.8.3 0 2.4-5.3 13.2-6 12.4-1-1.1 0-8.4 1.1-7.7 1.9 1.1 1.3-4.3-.7-6.3-1.2-1.3-1.4-1.2-1.4.1s-.4 1.2-2-.4c-1.1-1.1-2.5-2-3.1-2-.8 0-.8-.4 0-1.3.8-1.1.5-1.3-1.9-.9-3.4.5-3.1 3.2.5 3.2 2.6 0 5.2 2.5 3.6 3.5-.6.3-1.9.1-3-.5-2.6-1.3-9.7-1.3-12.3.1-3.2 1.7-3.5.1-.4-2.8 2.2-2 3-2.3 3.7-1.2.4.7 1.1 1.1 1.4.7.3-.3-.1-1.3-.9-2.1-1.2-1.2-1.3-1.7-.3-2 .6-.3-.2-.6-1.9-.6-1.9-.1-3.4.5-3.7 1.3-.3.8-1.6 1.6-2.9 1.8-1.8.2-2.4 1.1-2.8 3.7l-.5 3.4-1.4-2.6c-.7-1.4-1.1-3.4-.7-4.4.5-1.6.4-1.5-1 .2-1.6 2-1.6 2-1.1-.3.3-1.3.3-2.1 0-1.8-.9.8-3.3-2.1-3.4-4.1 0-1.6-.1-1.6-.8.2-.5 1.2-.3 2.5.6 3.3.7.7 1.3 1.5 1.3 1.6 0 .6-4-.1-4.7-.9-.5-.4-.2-.5.4-.1.9.5 1.1.2.6-1-.6-1.5-.7-1.5-1.5.1-1.5 2.5-.2 4.7 2.4 4.1 1.3-.3 1.7-.3 1 0-.6.3-1 1-.6 1.5.3.5 0 .9-.6.9-1.8 0-7 4-7 5.3 0 .8.3.8.9-.1.5-.9.8-.4.7 1.6-.1 1.7-.4 2.8-.7 2.6-.4-.2-.9.5-1.2 1.6-.3 1.1-.4 2-.2 2 1.2 0 5.5-2.5 5.5-3.2 0-.4.5-.8 1-.8 2.2 0 .8 2.6-2.5 4.8-2.4 1.5-3.5 3-3.5 4.7 0 1.3-.4 2.7-1 3-.6.4-1-.7-1-2.4s-.5-3.1-1.1-3.1c-.6 0-.9.7-.5 1.5.5 1.4.2 1.3-2.4 0-1.7-.9-3-2.3-3.1-3.3 0-1-.3-1.2-.6-.5-.8 2.2-2.4 1.4-1.8-1 .3-1.2.2-3.4-.3-4.7-.8-2.2-.9-2-.9 1.5 0 2.6-.8 5.3-2.4 7.7-2.8 4.3-3.9 4.7-3.9 1.5 0-3.3-1.1-6.7-2.1-6.7-.5 0-1 1-1 2.2-.1 1.7-.2 1.9-.6.5-.6-2.3-1.6-2.1-2.8.5-1.2 2.8-4.1 3.1-3.7.5.5-2.6-4.7-6.9-7.6-6.4-2.8.5-4-1.7-2.5-4.3.9-1.3.7-1.9-.8-2.8-3-1.9-3.7-1.5-8.9 4l-4.9 5.3-.1-4.8V415h-3.9c-2.2 0-4.1-.5-4.3-1.1-.2-.6-1.4-.8-3.1-.4-2.8.7-3.5 1.9-1.7 3 1.7 1 1.1 3.2-1 3.8-1.1.3-2 1.2-2 2 0 1.8-5.7 3.4-7.1 2-.6-.6-.6-2 .1-3.7 1.4-3.9 1.3-4.4-1.5-4.4-2 0-2.7.8-3.7 3.9-1.4 4.7-3.4 5-4.3.6-.4-1.7-1.2-3.8-1.7-4.5-1.2-1.3-3.2-1.7-2.4-.4.3.5.1 2.6-.5 4.7-.8 2.8-1.4 3.4-2.2 2.6-1.6-1.6-3-1.4-2.4.3.7 1.8-1.8 4.2-2.8 2.7-.3-.6-.1-1.9.5-3 1.6-3.1 1.2-8.1-1.1-11.8-1.6-2.6-2.4-3.1-3-2.1-.7 1.1-1.2 1.1-3 0-1.1-.7-2.3-1.1-2.6-.9-.2.3.1 3.3.8 6.6.6 3.4 1 6.4.7 6.7-.9.8-3.8-.8-3.8-2.2 0-.7-.6-1.1-1.4-.8-1 .4-1.4 2-1.3 5.2.2 3.5-.2 4.7-1.3 4.7-.8 0-1.6 1-1.8 2.2-.2 1.2-1 2.7-1.9 3.4-1.3 1.1-1.7 1-2.8-.4-.7-.9-2.1-1.7-3.1-1.7-1.5 0-1.6.2-.5.9.8.5 1.1 1.6.8 2.5-1 2.6-2.7 1.8-2.7-1.4s-1.9-8-3.1-8c-.4 0-1 1.3-1.4 3-.8 3.4-3.7 4.1-5.4 1.2-1-1.6-1.2-1.6-2.5 0-.7 1-1.8 1.8-2.5 1.8-.6 0-1.1.9-1.1 2s-.4 2-.8 2c-.5 0-.9-2.7-.9-6-.1-3.3.2-5.8.7-5.5.4.2.5-.8.2-2.3l-.5-2.7-.9 3c-.5 1.6-.8 6.1-.7 10 .1 3.8 0 11.7-.1 17.5-.2 8.5-.4 9.7-1.1 6.5-.4-2.2-.8-6.8-.8-10.3-.1-3.8-.5-6.2-1.2-6.2s-.9-1.5-.5-4.3c.3-2.3.3-3.5 0-2.7-.3.8-1.2 2.9-1.9 4.6-1.2 2.5-5.5 20-5.5 22 0 .4.9-.1 2-1.1 1.7-1.6 2-1.6 2-.2 0 .9-.5 1.9-1.1 2.3-.6.3-.8 1.7-.4 3.3.6 2.5.5 2.5-1.1.9s-1.8-1.6-3 0c-2.1 2.8-2.3 1-.9-5.8 1.5-6.7 1.9-11 .8-8-.3.8-1.2 2.3-2 3.2-1.4 1.6-1.7 1.6-4.4-.4s-3.1-2.1-4.5-.6c-1.4 1.4-1.4 1.7.1 3.2 1 .9 1.4 2 1.1 2.3-.4.4-1.6-.3-2.8-1.4-3.3-3.4-3.6-11.3-.5-19.3 2-5.4 2.2-6.7 1.1-7.8-1.1-1-1.3-.7-.8 1.8.4 1.8.2 3-.4 3-.6 0-1.4.9-1.7 2-.4 1.3-2.1 2.4-5.1 3.1-3.6.9-4.4 1.6-4.4 3.4 0 1.2-.7 2.8-1.5 3.5-.9.7-1.3 1.5-1.1 1.7.3.3 1.7-.7 3.3-2.1 2.9-2.7 5.3-3.4 5.3-1.6 0 .6-.7 1.3-1.6 1.7-1 .4-1.4 1.3-1 2.6.3 1.2-.3 3.1-1.6 4.6-1.8 2.3-2 2.4-1.4.4.4-1.2.2-2.4-.4-2.8-.5-.3-1-.1-1 .4 0 1.4-6.7 1.4-7.5 0-.4-.5.9-3.1 2.9-5.6 2.5-3.2 3.3-5 2.6-5.8-1.4-1.7-.2-2.5 4.2-2.5 2.1 0 3.8-.4 3.8-.9 0-.4-1.2-.6-2.7-.3-2.5.5-2.6.3-2-2.6.7-3.7 0-6.2-1.8-6.2-.7 0-2.9 1.1-4.9 2.5-2 1.4-4 2.5-4.4 2.5-.4 0 0-.5.8-1 1.2-.8 1.3-1.3.2-2.7-.7-1-1.5-2.6-1.8-3.6-.4-.9-.9-1.7-1.3-1.7-.7 0-3.1 4.9-3.1 6.4 0 1.6-5.1 3.7-6.4 2.7-.6-.4-4.3-.9-8.3-.9-3.9-.1-7.5-.3-8-.4-1.1-.4-5.3 3.9-4.5 4.7.4.3.2.9-.4 1.3-2.1 1.4-3.5 10-4.1 24.9l-.6 15.3 16.8.2c12.8.2 16.9.6 17.3 1.6.3 1-2.1 1.3-11.4 1.2-6.6-.1-14.3-.1-17.1-.1l-5.3.1.2 6.7c0 3.8.3 5.3.5 3.5.5-3.5 2.3-4.5 2.3-1.2 0 1.4.7 2 2.3 2 2.9 0 4.7 1.8 4.7 4.7 0 2.7-4.1 4.7-7.7 3.8l-2.3-.5v289l2.3-.5c2.7-.7 30.9-4.9 46.7-7 6.3-.9 17.6-2.7 25-4 7.4-1.3 16.9-2.9 21-3.4 4.1-.6 11.6-1.5 16.5-2.2 5-.6 11.5-1.8 14.5-2.5 3-.8 6.8-1.4 8.6-1.4 1.7 0 8.9-.9 16-2 7.1-1.2 17.6-2.7 23.4-3.5 5.8-.8 14.6-2.2 19.5-3 16.8-2.9 20-3.4 31.5-5 17.9-2.4 39.4-5.7 40.8-6.2.6-.3 1.2-1.7 1.2-3.2 0-1.4 1.1-5.5 2.4-9.1 9-25.1 8.7-24.1 8.2-31.5-.3-3.9-.9-12.6-1.2-19.5-.3-6.9-.8-12.6-.9-12.8-.2-.2.1-1.8.6-3.5.6-2.2.5-3.3-.4-3.9-.6-.4-.7-.8-.2-.8.6 0 .9-2.5.8-5.9-.2-4.4.2-6.1 1.2-6.5.8-.3 1.2-1.2.9-2.1-.3-.8-1.1-1.2-1.7-.8-.6.3-.7.1-.3-.6.4-.6 1.2-.9 1.7-.6.9.6 1.1.1 1.3-2.8.1-.6.4-1.4.8-1.7.9-.7 1.3-12.4.4-13.8-1.1-1.8.4-5.4 1.9-4.8 2.7 1 3.4-11 .8-13-1.7-1.2-1.7-1.5-.1-6.1 1-2.8 1.3-4.9.8-5.1-.6-.2-1-1.9-1-3.7 0-3.9-1.7-5.6-2.3-2.3-.2 1.3-.3-.9-.1-4.7.3-6.7.3-6.8-.7-2.5-.5 2.5-1.5 8-2.1 12.3-.9 6.4-.9 8 .2 8.7 1.1.7 1 1.2-.5 2.6-1.7 1.8-1.8 1.1-1.3-20.1.2-12.1.2-23.4-.2-25l-.6-3-.8 3.8c-.4 2.1-1.1 3.5-1.7 3.2-.5-.4-.9 0-.9.8s-.7 1.7-1.5 2.1c-.8.3-1.2 1.1-1 1.8.3.7-.7 1.9-2.2 2.5-3.1 1.5-6.3 1.7-6.3.4 0-.5-1.7 0-3.7 1-2.1 1.1-5.1 1.9-6.8 1.8-1.6-.1-4.9.4-7.2 1.1-3.9 1.2-4.5 1.1-6.3-.5-1.3-1.2-2-3-1.9-5.4.1-3 .2-3.2.8-1.3.5 2.1.9 1.6 2.6-3.3 2.5-7.4 7.7-14.8 20.6-29.3 14.5-16.4 23.5-24.9 29.4-27.6 5.4-2.6 15.7-6.5 19-7.1 2.6-.6 9.7-3.7 11.2-5 .7-.5 1.9-1.6 2.7-2.2 2.3-1.9 2.6-.1.9 4.8-4.7 13.7 3.4 30.8 18 37.5 5.8 2.7 7 2.9 18.7 2.8 11.4 0 13.2-.3 20.6-3.1 9.3-3.5 18.5-9.4 23.4-14.9 4.8-5.5 8.3-14 7.7-18.7-.6-4-.2-4.4 2.2-2.3.9.8 7.1 3.2 13.7 5.4 15.1 4.9 20 8.1 24.1 15.9 4.2 8.1 8.1 27.2 8.6 42.5.1 4.2.5 7.4.8 7.3.9-.6 3.7 8.6 5 16.5.6 4.1 2.2 11 3.5 15.3 1.3 4.3 2.4 9.1 2.4 10.7 0 1.6.8 4.5 1.7 6.5.9 1.9 1.5 3.6 1.2 3.8-.8.6-16.9 5.7-17.9 5.7-1.7 0-1.1-4.2.8-5.6 1.5-1.2 1.5-1.3-1-1.4-1.5 0-3 .4-3.3 1-.3.5-1 1-1.6 1-1.5 0-1-6.4.7-8.8 1-1.5 1.4-4 1.3-8-.2-3.1.1-7.4.5-9.5.9-4.1-.6-5.3-1.9-1.5-.8 2.3-.8 2.3-1.2-.3-.2-1.4 0-4.4.5-6.6 1-4.2.1-8-1.1-4.9-1.2 3-2.7 1.6-2.7-2.4 0-2.2.5-4 1-4 1.2 0 1.3-5.7.1-6.4-.5-.3-1.1.4-1.4 1.6-.4 1.2-.9 1.9-1.3 1.5-.4-.3.1-2.5 1-4.7 1.7-4.2 3.4-18.3 1.8-14.5-.9 1.9-.9 1.9-2 0-.9-1.6-1.1-1.7-1.2-.4 0 .9-.9 1.9-1.9 2.2-1.1.2-2.1 1.3-2.4 2.3-.2 1.1-.3.2-.2-1.9.3-2.8-.2-4.4-1.6-5.8-1.8-1.8-2-3.2-1.8-11.4.2-5.2 0-9.7-.3-10.1-1.2-1.1-2.8 7.1-2.9 15.1-.2 8.9-1 13.9-2.3 13.9-.5.1-1.9-2.2-3.2-4.9-2.7-6-2.9-4.5-.9 9.4.8 5.7 1.3 10.6 1 10.9-.2.2-1.1.2-2-.2-1.1-.4-1.5-1.6-1.4-3.8.4-5.3 0-8.8-1-8.8-.6 0-.5 1.5.1 3.6.8 3 .7 4-.6 5.2-1.2 1.2-1.6 1.3-1.6.3 0-.7-.6-1.1-1.2-.8-.8.2-2.2-1.5-3.4-4.1-1.6-3.5-2.2-4.1-2.7-2.8-.4 1-.3 1.5.3 1.1 1.3-.8 1.2-.5-.1 3.4-.6 1.7-.8 3.9-.3 4.9 1.2 2.8 1 3.7-1 4.2-1.6.5-1.9 1.5-2 5.9-.1 3.9-.5 5.6-1.6 5.9-1.3.4-1.3.3-.2-1 .9-1.1 1-1.8.2-2.3-.5-.3-1-.3-1 .2 0 .4-.5 1.5-1 2.3-.8 1.3-1.1 1.2-2.3-.4-1.3-1.8-1.4-1.8-1.9 1.2-.2 1.7-.1 2.9.3 2.7.4-.3.9.2 1.2 1 .5 1.2-.4 1.3-5.3.9l-5.8-.5-.6 3c-2 10.5-1.8 9.9-2.8 7.2-.4-1.3-.7-3.8-.6-5.5.1-1.8-.1-3.7-.5-4.3-.4-.6 0-1 1-.9 1 .1 1.7-.9 2-2.8.6-4.2 4.1-11.6 5.8-12.3 2-.7 1.9-2.6-.3-4.6-1.6-1.4-1.9-1.4-4 .8-1.3 1.4-2.1 2.9-1.7 3.5.3.6 0 .7-.9.4-1.1-.4-1.6 0-1.6 1.5 0 1.2-.4 2.1-.9 2.1-.6 0-.8.9-.6 2 .4 1.9-.6 2.5-3 2-.5-.1-.2.7.8 1.8 1.6 1.8 1.6 1.9-.8 3-2.7 1.2-3.4 4.9-1.4 6.9.6.6 1.1 2.8 1.1 4.9 0 4.6.7 6.2 1.9 4.3.5-.8.7.6.5 3.5-.1 2.6.2 5.3.8 6 1.2 1.2 1.3 18.2.2 23.3-1 4.2-4.6 4.8-4.6.8 0-1.4-.4-2.5-1-2.5-.5 0-1-.7-1-1.5s-.7-1.5-1.6-1.5c-1.1 0-1.4.6-.9 2.1 1 3.1-1.6 15-3.5 15.7-.8.3-2.7 1.4-4.2 2.4-1.6 1.1-3.2 1.7-3.6 1.4-1.5-.9-8.2 1.7-8.2 3.1 0 .9-1.3 1.3-4 1.3-3.4 0-4 .3-4.5 2.5-1.7 8.3-1.7 8.3-3 3-.6-2.7-1.4-4.5-1.7-4-2.2 3.6-2.9 21.8-1 26.4 1.1 2.9 1.1 3.5-.2 5-1.2 1.3-1.3 2-.4 2.9.9.9.9 2.1 0 5-.7 2.2-1.2 4.8-1.2 6 0 1.1-.7 3.3-1.5 4.8-.8 1.6-1.5 4.6-1.5 6.6 0 2.1-.4 3.8-.8 3.8-1.5 0-3 9-2.2 12.5.6 2.5.4 3.8-.6 4.6-.8.6-1.4 2.2-1.4 3.5 0 1.3-.4 2.4-1 2.4-.5 0-1 2-1 4.4 0 2.5-.4 4.7-.9 5-1.1.7-5.1 8.8-5.1 10.4 0 .7-.4 1.2-1 1.2-.5 0-1 .7-1 1.5 0 .9-1.8 3.8-4 6.6s-4 5.7-4 6.4c0 1.4-3.1 2.8-9.8 4.5-2.3.6-4 1.5-3.7 2.1 1 1.5-2.1 2.2-4.4 1-2.6-1.4-14.1-1.8-16.1-.6-1.1.7-.5 1.1 2.5 1.7 2.2.4 8.5 1.6 14 2.7 10.5 2 14.9 2.4 41.5 4.1 9.1.6 17.9 1.5 19.5 2 1.7.5 10.9 1 20.5 1.1 27.5.2 27.2.2 26.3-4.2-.4-2-1.9-3.2-7.4-5.7-3.8-1.8-7.2-3.2-7.4-3.2-.3 0-1.7-1.1-3.2-2.4-2.5-2.4-2.5-2.4-.4-3.1 2.3-.7 2.9-2.5.7-2.5-.7 0-1.9-.7-2.6-1.5-.9-1-.9-1.5-.1-1.5.6 0 1.1-.5 1.1-1 0-.6-1.3-1-2.9-1-1.6 0-3.4-.7-4.1-1.5-1.2-1.4-.8-1.5 2.8-.9 3.8.6 4.2.5 4.2-1.5 0-2.3-1.8-6.1-3.5-7.3-.5-.4-.2-1 .8-1.4 2.2-.8 5.7 2.1 5.7 4.7 0 1.2.5 1.6 1.5 1.3 1-.4 1.5 0 1.5 1.5 0 1.2.5 2.1 1 2.1.6 0 1 .6 1 1.3 0 .8 1.6 2.8 3.5 4.6 1.9 1.7 3.5 4 3.5 4.9 0 1 1.6 3.3 3.6 5 1.9 1.7 3.3 3.6 3 4.1-.4.5.2 2.5 1.2 4.3 1.9 3.3 2 3.3 9.3 3.4 9.2.1 9.8.2 7.6 1.5-2.6 1.5-19.7 3.7-22.6 2.9-1.4-.3-4.9-.3-7.8.1-4.6.6-51.8.5-51.8-.1 0-.7-22.8-3.6-34.8-4.3-7.7-.5-8.7-.4-7.7.8.7.8.9 1.5.4 1.5-1.9 0 2.2 2 4.2 2 1.2 0 3.7.7 5.5 1.6 3.3 1.4 2.9 1.5-7.6 1-24.8-1.2-39.7-4.5-47.4-10.5l-2.4-1.8 1.7-5.1c1-2.9 2.2-5.4 2.7-5.7.5-.4.2-1.9-.6-3.6-1.2-2.1-1.3-3.4-.5-4.8.9-1.7 1.5-7.1.7-7.1-.1 0-6.8 1.1-14.7 2.5-50.9 9-65.4 11.5-139.5 24-14.3 2.4-29.8 5.1-34.5 5.9-4.7.8-18.6 3.1-31 5.1-12.4 1.9-26.7 4.2-31.7 5.1l-9.3 1.6V891h5c2.8 0 6.7-.7 8.7-1.5 1.9-.8 4.7-1.5 6.2-1.5s5.1-.6 8.1-1.4c3-.7 8.8-1.6 12.9-1.9 7.4-.5 7.4-.4 5 1.4l-2.4 1.9h2.3c2.2 0 3.1 2.3 1.2 3.5-1.3.8-1.3 4.5-.1 4.5.6 0 1.1 1.9 1.3 4.2.3 3.8.6 4.3 2.8 4.5 1.4.1 1.9 0 1.3-.3-.7-.3-1.3-2.3-1.3-4.5 0-2.8-.4-3.9-1.5-3.9-.8 0-1.5-.5-1.5-1 0-.6.9-1 1.9-1 1.2 0 2.3-1.1 3-3 .5-1.7 1.5-3 2-3 1.9 0 1.2-1.8-.9-2.5-1.1-.3-2-1-2-1.4 0-1.1 6.7-4.1 9.1-4.1 1.1 0 3.4-.7 5.1-1.6 1.7-.9 3.9-1.4 4.9-1.1 1 .3 2.6-.1 3.6-.9 1-.7 4.2-1.4 7.1-1.4 3.1 0 6.3-.7 7.7-1.6 1.4-.9 3.2-1.3 4.1-1 .9.3 2.1.3 2.6 0 .6-.4 7.9-.7 16.2-.7 8.3 0 15.8-.4 16.6-.9 6.4-3.8 36-8.7 36-6 0 1.2-2.9 2.4-4.1 1.6-1.5-.9-.9 1 1 3.3 1.1 1.3 2.9 2.3 4 2.3 1.6 0 2.1.6 2.1 2.5 0 1.6.6 2.5 1.5 2.5.8 0 1.5.7 1.5 1.5s-.7 1.5-1.6 1.5c-1.4 0-1.5 1.1-1.1 8.2.3 4.6.3 7.3.1 6-.6-2.5-1.4-2.8-3.2-1-1.7 1.7-1.5 4.5.6 6 1.4 1.1 1.7 2.9 1.7 11.7v10.4l-3.7 3.7c-2.1 2-3.8 4.3-3.8 5.1 0 .8-.8 1.9-1.9 2.6-1.5.9-1.7 2-1.3 6.2.3 3.4.1 5.1-.7 5.1-.6 0-1.1 1.7-1.1 4 0 2.9-.4 4-1.5 4-2.3 0-1.8 2 1 4.2 2.1 1.6 2.5 2.8 2.5 6.9 0 2.7-.4 4.9-.9 4.9s-1.2 3.4-1.6 7.6c-.7 7.3-.8 7.7-5.2 12-2.5 2.4-5 4.4-5.4 4.4-.5 0-.9 1.8-.9 4v4h391.7l.7-13.5c.8-13.4.6-18.1-1.6-40.6-.9-10.3-.9-11.9.6-14 .9-1.4 1.6-4.3 1.6-7.1 0-2.5.5-5.9 1.1-7.5.6-1.5 1-6.2 1-10.3-.1-4.1.3-8.1.8-8.9.5-.7.5-2.7.1-4.2-.5-1.6-.5-2.9-.1-2.9 1.1 0 2.3 7.8 1.5 9.2-.5.7-.2.8.5.3.9-.5 1.2-.1 1 1.1-.1 1.1.3 3.7.9 5.9.6 2.2 1.9 8.7 2.7 14.5 1.5 9.5 2.4 12 9.1 25.7 4.6 9.4 9.3 17.5 12.4 21.2 5.5 6.6 7 9.7 7 14.2 0 1.6.4 4.8 1 7.1.5 2.4 1.2 5.5 1.5 7.1l.5 2.7 61.5-.1c43.6 0 61.5-.4 61.7-1.1.3-.7 3.2-1.3 6.6-1.4 3.4-.1 6.5-.4 6.9-.7.4-.2 4-1.4 7.8-2.7 3.9-1.2 7.4-2.6 8-3.1.5-.5 1.5-.9 2.3-.9.7 0 3.3-.9 5.6-2 2.4-1.1 6.2-2.2 8.5-2.6l4.1-.7V842.4c0-78.3-.2-142.4-.4-142.4s-8.2 1.2-17.8 2.6c-9.5 1.4-21.8 3.1-27.3 3.9-5.5.7-25.7 3.6-45 6.4-19.2 2.8-35.3 5.1-35.7 5.1-1.5 0-.8-2.3 3.3-11.7 2.7-6.1 4.9-9.8 6.3-10.4 1.2-.5 9.3-1.8 18.1-3 8.8-1.1 20.3-2.7 25.5-3.5 5.2-.8 16-2.1 24-3 20.1-2.1 19.2-2 32-3.8 6.3-.9 12.7-1.8 14.3-2.2l2.7-.6V385.1l-3.3-.4-3.2-.4 3.3-.1 3.2-.2v-33c0-31.9-.1-33-1.9-33-1.1 0-2.6.7-3.5 1.5zm-258 52c.4.9 1.9 1.5 3.5 1.5s2.9.5 2.9 1.1c0 .6-1 .9-2.2.6-1.3-.3-3.2-.1-4.3.3l-2 .9 2 .1c1.5.1 1.2.5-1.2 1.6-5.4 2.3-3.7 6.4 2.6 6.4 1.9 0 3.1.3 2.8.7-.4.3-.2 1.2.4 2 .9 1 .3 1.3-3 1.3-2.4 0-4-.4-3.6-.9.7-1.2-1.2-2.4-2.5-1.6-.8.5-.8 1.1 0 2 1.3 1.6-3.6 2.9-10.2 2.6-3.8-.2-5.8.4-10.9 3.4-3.4 2-7.5 3.9-9.1 4.2-1.5.3-3.1 1-3.4 1.4-.3.5-1 .7-1.5.4-2.5-1.6.6-14.6 4.8-19.5 5-6 15.3-9.8 27.1-9.9 5.6-.1 7.4.2 7.8 1.4zm234.4.5c-.8.5-2.4 1-3.5 1-1.9.1-1.9.1-.2 1.4 1.9 1.5 2.3 4.1.6 5.2-.8.4-.9 0-.4-1.5.5-1.6.3-2-.8-1.5-1 .4-1.4-.2-1.4-2 0-2.5 1.1-3.3 5.2-3.5 1.6-.1 1.7.1.5.9zm-9.7 4.6c.3.4.1 1.6-.5 2.7-.9 1.8-1.1 1.9-2 .4-1.3-2.5.6-4.9 2.5-3.1zm36 12.1c-1.3.2-3.5.2-5 0-1.6-.2-.5-.4 2.2-.4 2.8 0 4 .2 2.8.4zm-12 1c-.7.2-1.9.2-2.5 0-.7-.3-.2-.5 1.2-.5s1.9.2 1.3.5zM436.5 391c.3.5.1 1-.4 1-.6 0-1.1-.5-1.1-1 0-.6.2-1 .4-1 .3 0 .8.4 1.1 1zm403.7.7c-1.9.4-2.1.7-1.1 1.9.9 1.1.7 1.4-1 1.4-1.1 0-2.1-.6-2.1-1.3 0-2 1.1-2.7 3.9-2.6 2.5.2 2.5.2.3.6zm-6.2 2.9c0 .8-.4 1.4-1 1.4-.5 0-1-.9-1-2.1 0-1.1.5-1.7 1-1.4.6.3 1 1.3 1 2.1zm20 .5c0 1.1-.4 1.7-1 1.4-.5-.3-1-1.5-1-2.6s.5-1.7 1-1.4c.6.3 1 1.5 1 2.6zm4 .5c0 .8-.4 1.4-1 1.4-.5 0-1-.9-1-2.1 0-1.1.5-1.7 1-1.4.6.3 1 1.3 1 2.1zm-13-.2c0 .8.6 1.7 1.3 2 .6.3.3.5-.8.3-2-.2-3.5-3.7-1.6-3.7.6 0 1.1.6 1.1 1.4zm-211 3.8c0 .6-.7.5-1.5-.2s-1.5-1.7-1.5-2.2c0-.6.7-.5 1.5.2s1.5 1.7 1.5 2.2zm1.7 0c-.3.7-.5.2-.5-1.2s.2-1.9.5-1.3c.2.7.2 1.9 0 2.5zm204-2.6c-.3.3-1.2.4-1.9.1-.8-.3-.5-.6.6-.6 1.1-.1 1.7.2 1.3.5zm23 1c-.3.3-1.2.4-1.9.1-.8-.3-.5-.6.6-.6 1.1-.1 1.7.2 1.3.5zm-55 2c-.3.3-1.2.4-1.9.1-.8-.3-.5-.6.6-.6 1.1-.1 1.7.2 1.3.5zm-170.1 4.1c.4 1.6 1.5 4.7 2.5 6.9 2 4.5 4 15.2 2.9 15.9-.3.2-1.2-2.3-1.9-5.6-.8-3.3-1.6-5.7-1.9-5.5-.9 1-3.4-2.5-3.6-4.9 0-1.4-.4-2.5-.8-2.5s-.3-1.2.2-2.6c.6-1.4.8-3 .4-3.5-.3-.5-.1-.9.5-.9s1.4 1.2 1.7 2.7zm182.3-1.2c-.1.5-1 .9-1.9.7-2.3-.4-3.3 3.3-1.4 4.9.8.7 1.2 1.4.9 1.7-.2.3-1.1-.1-2-.8-1.5-1.3-2.1-6.1-.8-7.4 1.1-1 5.4-.3 5.2.9zm9.1 4.4c0 3.4-.6 5.6-2 7.2l-2 2.4 1.6-3.9c1-2.6 1.4-5.3 1-7.9-.4-2.5-.3-3.6.4-3.2.5.3 1 2.8 1 5.4zm-338.7.3c1.9 1.9 1.5 2.9-2.6 7.3-2.1 2.2-4.2 5-4.7 6.2-1 2.5-.4 5.3 1.3 5.3.6 0-1 1.4-3.5 3-4.4 2.9-4.8 3-9.2 1.8-5.3-1.4-5.7-2.7-2.1-7.4 1.4-1.8 2.5-4.4 2.5-5.7 0-2.9 4.5-7.7 7.1-7.7 1.1 0 2.7-.9 3.6-2 2-2.3 5.8-2.6 7.6-.8zM381 408c0 .5-1.6 2-3.6 3.4-3.5 2.3-3.5 2.5-1.5 3.5 1.5.9 2.6.9 4.2.1 1.1-.7 2.3-.9 2.7-.6.3.3 0 .6-.7.6-.8 0-1 .7-.6 2 .5 1.6.2 2-1.4 2-1.2 0-2.1-.5-2.1-1 0-.6-1.1-1.5-2.4-2.1-1.5-.7-2.3-2-2.3-3.5 0-1.3.3-2.1.8-1.8.5.3 2.1-.4 3.5-1.5 3-2.4 3.4-2.5 3.4-1.1zm440.2 2.2c-.7.7-1 .5-.7-.8.5-2.9.6-3 1.2-1.6.3.8.1 1.8-.5 2.4zm-169.1-.5c1.2 1.6 1.2 1.7-.1.7-.8-.6-2.2-1.4-3-1.7-1.3-.5-1.2-.6.1-.6.9-.1 2.3.7 3 1.6zm-53.2 5.9c-.9 1.1-1.5 1.2-2.5.3-1.9-1.6-1.8-2.5.9-5.2l2.2-2.2.3 2.8c.2 1.6-.2 3.5-.9 4.3zM369 414.3c0 .7-.9 1.3-2 1.3-2.3 0-2.5-.7-.8-2.4 1.3-1.3 2.8-.7 2.8 1.1zm224.5-.4c-.3.6-1.1 1.1-1.6 1.1s-.4-.6.3-1.4c1.4-1.6 2.4-1.3 1.3.3zm-30 .1c.3.5.1 1-.4 1-.6 0-1.1-.5-1.1-1 0-.6.2-1 .4-1 .3 0 .8.4 1.1 1zm-163.2 1.3c.3.7-.3 1.3-1.4 1.3-1.3 0-1.5-.3-.7-1.3.6-.7 1.2-1.3 1.3-1.3.2 0 .5.6.8 1.3zm168-.6c.4.3.2 1.2-.4 1.9-.6.8-.9 3.4-.7 5.9.2 2.5 0 4.5-.3 4.5-.7 0-1.9-8-1.7-11.3.1-1.7 1.9-2.3 3.1-1zm8.2 3.3c1.8 0 1.8.2.4 3.4-.7 1.4-1.7 2.2-2.5 1.9-1.9-.7-3 4.3-1.3 6.3 1.7 2.1 3.9 8.5 3.3 9.6-1 1.6-2.2.7-3.3-2.4-1.3-3.7-1.3-3.8-4.9 3.6-2.6 5-2.8 5.9-1.5 7.2 1.3 1.2 1.2 1.4-.1 1.4-.8 0-1.8-.4-2.1-1-.4-.6-1.3-.5-2.5.2-2.8 1.8-3.7.2-1.1-1.9 2-1.7 2.1-1.9.6-4.1-.9-1.2-2.3-2.2-3.1-2.2-.8 0-1.4-.5-1.4-1 0-1.8 2.3-1.1 5.1 1.6l2.7 2.6 2.4-5.1c1.2-2.8 2.7-5.1 3.2-5.1.4 0 .4-.6-.2-1.3-.7-.8-.9-3.5-.5-7 .5-4.8.8-5.5 2-4.5 1 .8 1.7.8 2.5 0 .9-.9.9-1.2 0-1.2-.7 0-1.2-1-1.2-2.3.1-2 .2-2 1.1-.5.5 1 1.7 1.8 2.4 1.8zm5-2c.3.5-.3 1-1.5 1s-1.8-.5-1.5-1c.3-.6 1-1 1.5-1s1.2.4 1.5 1zm-194.8 2.2c.3-.6.9-1 1.4-.6.5.3.9 0 .9-.6s.5-.8 1-.5c.7.4.6 1.3-.1 2.7-.6 1.1-1.2 3.9-1.4 6.1-.3 4.3-2.5 6.6-2.5 2.6 0-2.2 0-2.2-1.4-.3-1.7 2.2-2.1 1.9-3-2.1-.4-1.9-.3-2.5.2-1.7 1.2 1.7 2.2-1.6 1.7-5.5-.3-2.6-.2-2.6 1.2-.8 1.1 1.4 1.7 1.6 2 .7zm261.3-1.8c0 .3-.4.8-1 1.1-.5.3-1 .1-1-.4 0-.6.5-1.1 1-1.1.6 0 1 .2 1 .4zm159.8.7l8.7.3-7.2.3-7.3.4v3.5c0 1.9-.4 3.3-.9 3-1.3-.8-4.2 2.9-3.6 4.5.4 1-.1 1.5-1.5 1.5s-2-.7-2.1-2.6l-.1-2.5-.7 2.5c-.5 1.8-1.3 2.4-2.7 2.2-2.7-.5-2.8-.8-1.4-4.4 1.6-4 3.5-6.2 2.8-3.3-.4 1.8-.1 2.1 2.4 1.9 3.5-.3 5.8-2 5.8-4.5 0-1.7-.7-1.9-5.5-1.7l-5.5.2-1.7 5.1c-1 2.7-1.8 5.6-1.8 6.2 0 2.5-1.9 1.8-2.6-1-.4-1.5-.5-2.7-.3-2.7s.7 0 1 .1c.4 0 1.6-2.2 2.9-4.8l2.2-4.8 5.1.2c2.9 0 9.1.2 14 .4zM596 418.4c0 1.5-2.4 2.8-3.4 1.9-.7-.7 1.3-3.3 2.5-3.3.5 0 .9.6.9 1.4zm213.1 3.3c-2.1.4-2.3.9-1.8 4 .4 2.1.3 3.2-.2 2.7-.9-.9-1.4-3.7-1.2-6.2 0-.7 1.3-1.1 2.9-1.1 2.5.2 2.5.2.3.6zM379 423.6c0 .8-.4 1.2-1 .9-.5-.3-1-1-1-1.6 0-.5.5-.9 1-.9.6 0 1 .7 1 1.6zm46 1.4c-1.2 2.2-4.1 4-6.4 4-1.9 0-2.2-2-.3-2 .6 0 2.3-.9 3.7-2 3.2-2.5 4.3-2.5 3 0zm388.2-.8c-.7.7-1.2 2-1.2 3 0 2.3-1.6 2.4-2.4.2-.4-.9-.5-1.7-.4-1.8.2-.1 1.2-.6 2.3-1.3 2.6-1.5 3.2-1.6 1.7-.1zm-165.7.8c.3.5.1 1-.4 1-.6 0-1.1-.5-1.1-1 0-.6.2-1 .4-1 .3 0 .8.4 1.1 1zm155.5 1.9c0 1.4-1.8 2.3-3 1.6-.6-.4-.8-1.1-.5-1.6.8-1.2 3.5-1.2 3.5 0zM455 428c0 .5-.6 1-1.3 1-2.2 0-4.5 3.2-5 7l-.4 3.5-.1-4c-.2-4.7 2-8.5 4.9-8.5 1 0 1.9.4 1.9 1zm326.7.5c.7 2.1-.4 3.2-1.9 1.7-.7-.7-3.1-1.2-5.5-1.2s-4.3-.5-4.3-1c0-.6 2.5-1 5.5-1 4.1 0 5.7.4 6.2 1.5zm-435.4 1.9c.4 1 .1 1.3-.9.9-.7-.3-1.4-.9-1.4-1.4 0-1.4 1.7-1 2.3.5zm38.7 2.7c0 .5-.9 1.9-2 3.1-3.1 3.4-6.2 12.7-6.7 20.4-.5 6.3-.3 7.4 1.5 9.2 1.1 1.1 1.8 2.3 1.5 2.6-1.2 1.2-2.1.5-3.4-2.7-1.9-4.4-1.4-14.1 1-21.1 1.2-3.2 1.8-6.2 1.5-6.7-.3-.5 0-1.7.6-2.6.9-1.5 1-1.4.5.7-.6 2.4-.6 2.4 1.8-.5 1.4-1.6 2.3-3.4 2-3.9-.4-.5-.1-.6.5-.2.7.4 1.2 1.2 1.2 1.7zm393.4-1.2c.7 1.1-2.2 2.3-3.5 1.5-1.2-.7-1.1 1.3.2 3.8.8 1.5.8 2.3-.2 3.2-.9.8-1 .8-.5-.1.3-.6.2-1.4-.4-1.8-1.6-1-1.1-5.3.8-6.4 2.1-1.3 2.9-1.3 3.6-.2zm47.3-.3c-.3.3-1.2.4-1.9.1-.8-.3-.5-.6.6-.6 1.1-.1 1.7.2 1.3.5zM372 434l2.2 1.2-2.5 1.3c-2.1 1.1-5.4 1.8-10.7 2.5-.3 0 1 .8 2.8 1.7 2.4 1.2 3.2 2.1 2.9 3.5-.3 1-.1 2.1.5 2.4.5.3.6 1.9.3 3.4-.3 1.6-.2 4.6.4 6.7.5 2.1 1.2 6.8 1.6 10.5l.7 6.8h4.2c5.1 0 6.5-1.3 12.6-11.9 4.7-8.1 4.6-8.6-2.2-9.7-6.9-1.2-3.9-2.3 4.2-1.7 5.2.4 8.4.2 9.3-.5 1-.9 1.2-.4.9 2.4-.3 2.7-.8 3.3-2.1 2.9-1.2-.4-2.3.6-3.9 3.4-1.2 2.1-2.2 4.4-2.2 5.1 0 .6-1.1 2.6-2.4 4.3-1.4 1.8-4.1 6.2-6 9.9-4.5 8.2-9 13.3-10.9 12.1-.8-.4-2.7-2.3-4.2-4.1-3-3.6-5.2-4.1-6.2-1.5-1.1 2.8-3.6 4.3-6.2 3.7-2.2-.5-2.3-.3-1.1 1.1 1.6 1.9.6 3.1-3.2 4-2.1.5-2.9.2-3.8-1.4-.6-1.2-1.5-2.1-2.1-2.1-1.3 0-.7 8.9.7 9.4 1 .4 1 9-.1 13.4-.3 1.3-.1 3 .6 3.8.9 1.1.8 2.4-.6 5.9-1.4 3.7-1.5 4.9-.4 6.1 1.5 1.8-.2 17.1-2.8 25.7-.9 2.9-1.7 5.9-1.8 6.7-.2.8-2 6.4-4 12.5-2.1 6-3.8 11.7-3.8 12.5 0 .8-.3 1.7-.6 2-1.3 1.1-3.1 5.1-3.1 6.9 0 1.1-.5 2.3-1.1 2.6-.6.4-.8 1.4-.5 2.2.3.8.1 1.1-.4.8-1.3-.8-.3-12 1.7-19.5.8-3 3-10.5 4.8-16.5 1.9-6.1 4.8-16.4 6.5-23 3.1-11.9 3.1-12.1 2.4-29.9l-.7-17.8-6.6.6c-4.3.4-5.9.3-4.6-.3 1.1-.5 4.1-1 6.7-1 4.6-.1 4.6-.1 5.3-4.1.9-5.3 2.9-7.3 6.6-6.5l2.9.7v-5.4c0-6.1 1.1-7.8 5.2-7.8h2.7l-.6-6.8c-.3-3.7-1-6.9-1.5-7-.5-.2-.4-.9.1-1.6.6-.7.8-2.2.4-3.5-.5-2.1-.6-2.1-2.4.8-1 1.7-2.3 3.1-2.8 3.1-1.1 0-3.1-5.4-3.1-8.3 0-2.7 1.7-1 2.2 2.1.1 1.2.7 2.3 1.3 2.3 1 0 5.5-12.8 4.7-13.6-.7-.7 2-3.6 4.3-4.5 2.5-1 6.6-.5 9.5 1zm60.7-.5c.3.9-.4 4.4-1.5 7.8-1.5 4.4-2.2 5.7-2.7 4.5-.4-1 0-3.9.9-6.5.9-2.5 1.4-4.9 1.1-5.1-.3-.3-1.9.5-3.6 1.7-3.3 2.5-4.4 2.5-2.6 0 2.7-3.6 7.4-4.9 8.4-2.4zm289.9.2c1.9 2.5 1.7 5.3-.6 9l-2 3.3h2.2c1.6 0 1.9.3 1.1 1.1-.7.7-1.9.8-3 .4-1-.4-2.8-.7-4-.6-2.2.2-3.6-1.2-3.8-4-.1-1.1.5-1.4 2.2-1.1 1.3.2 2.6.9 2.9 1.4.9 1.5 4.4-2.3 4.4-4.7 0-3.1-2.8-5.4-4.1-3.4-1.4 2.2-1.1 2.9 1.1 2.9 1.1 0 2 .4 2 1 0 1.6-3.6 1.2-5-.5-1-1.2-1-2.1-.2-4 1.4-2.9 4.9-3.3 6.8-.8zm5.4 3.5c0 2.7 1.5 3.9 2.2 1.8.6-2 4.8 3.1 4.8 5.8 0 2.8-3.4 6-4.5 4.2-.3-.5.4-1.4 1.5-2 2.1-1.1 2.5-2.7 1.2-4.8-1-1.6-4.5-.4-3.8 1.3.5 1.4-1 4.2-1.9 3.3-.3-.3-.8-3.9-1.1-7.9-.4-5.4-.3-7 .5-5.9.6.8 1.1 2.7 1.1 4.2zM395.5 434c.8 1.4-1.7 14-2.8 14-1 0-.4-7.1.9-10.4.6-1.6.5-1.7-1.5-.6-3.2 1.7-4.1.2-1.2-2.1 2.6-2.1 3.7-2.4 4.6-.9zm267.5 0c.8.5 1.1 1 .5 1-.5 0-.2.7.9 1.5 2.1 1.6 1.5 4.5-.8 4.5-1 0-1.3-.6-1-1.5.4-1 0-1.5-1.4-1.5-1.1 0-2.2-.8-2.5-1.9-.8-3.1 1.3-4.1 4.3-2.1zm17-.6c0 .2-.7.7-1.6 1-.8.3-1.2.2-.9-.4.6-1 2.5-1.4 2.5-.6zm-514.7 1.3c-.7.3-1.3 1.3-1.3 2.4 0 1.4-.7 1.9-2.5 1.9s-2.5-.5-2.5-1.9c0-1.9 1.3-2.5 5.5-2.8 1.1 0 1.4.1.8.4zm304.8.3c1 .6 1.9 1.8 1.9 2.6 0 .9 1.3 2.8 2.9 4.3 1.5 1.4 3.1 3.7 3.5 4.9.7 2.2-1 9.2-2.2 9.2-2.2 0-6 5.3-6.6 9-.5 3.2-1 4.1-2.2 3.6-1.4-.5-1.5.6-.9 9.7.4 5.6 1.1 10.9 1.5 11.7.4.8.7 6.5.6 12.6l-.2 11.2 3.8 1.7c2 .9 4.7 2.9 5.8 4.5 1.1 1.6 3 3.2 4.2 3.6 1.2.4 2.8 1.3 3.6 2 .7.8 2.7 1.4 4.3 1.4 1.7 0 2.8.4 2.5.8-.3.5 0 .9.7.9s2.1.4 3.2.7c1.5.5 1.5.4-.2-.5-3-1.6-2.9-2.9.2-2.9 1.6 0 2.5.6 2.5 1.5 0 1.5 1.1 1.9 3.9 1.6.7-.2 1 .2.7.8-1.3 2.1-13.8 5.1-21 5.1-9 0-15.4-2.8-21.4-9.4-5.4-5.8-6-7.5-6.8-18.4l-.7-8.9 3.5-3.9c1.9-2.1 4-4.8 4.6-6 1.9-3.6 2.6-16.9 1.2-25.2-1.6-10.3-1.8-10.8-3.2-9.4-1.5 1.5-5.8 1.6-5.8.2 0-.6-1.9-1-4.2-1-4.2 0-4.4-1.4-.3-2.2 1.2-.2 2-1.2 2.1-2.3.3-4.9.4-5.1 1.4-3.5.5.8.7 2.3.4 3.2-.3 1-.1 1.8.5 1.8s1.1-.5 1.1-1c0-.6.7-1 1.6-1 1.3 0 1.5.6.9 2.7-.9 3.9 1.3 1.6 2.4-2.5.7-2.2.6-3.2-.2-3.5-.9-.3-.9-1 .1-2.6.6-1.1 1.2-2.7 1.2-3.6 0-.9.6-1.2 1.6-.8 1 .4 1.7-.1 2.1-1.6.6-2.3 2.4-2.7 5.4-1.1zm137.9 2.1c0 .5-.4.9-1 .9-.5 0-1-.7-1-1.6 0-.8.5-1.2 1-.9.6.3 1 1 1 1.6zm37.6-.6c.9 2.3-.3 4.5-2.1 3.8-1.2-.4-1.3-.8-.5-1.3.9-.5.9-.9.1-1.4-1.6-1-1.3-2.6.4-2.6.9 0 1.8.7 2.1 1.5zm-192.5 2.2c-.8 1.5-1 1.5-1.1.2 0-1.7 1-3.2 1.8-2.5.2.3-.1 1.3-.7 2.3zm150.4-1.7c.3.5-.1 1-1 1s-1.3-.5-1-1c.3-.6.8-1 1-1 .2 0 .7.4 1 1zm-448 2c.3.5.2 1-.4 1-.6 0-.8.6-.5 1.4.3.8 0 2.4-.6 3.6-.6 1.2-1.3 3.7-1.5 5.6-.4 4.5-5.4 9-7 6.4-.3-.6-.2-1 .4-1 .6 0 .6-1.1 0-3.2-.7-2.4-.5-3.6.7-4.9 1.2-1.3 1.2-1.9.3-2.5-.9-.5-.8-1 .3-1.8.8-.6 1.5-1.5 1.6-2 .1-.8 3.9-3.3 5.4-3.5.4-.1 1 .3 1.3.9zm497.5 1.2c0 .6.6.5 1.5-.2 2.1-1.7 4.4-.5 5.6 2.9.8 2.1 1.8 3.1 3.7 3.3 4.6.5 3.6 2.5-1.4 2.6-2.5 0-8.3.6-12.9 1.3-7.9 1.1-8.3 1.3-7.9 3.6.5 2.7 3.8 6.3 5.7 6.3.8 0 .7-.4-.3-1.1-1.1-.8-1.2-1.2-.2-1.6.6-.2 1.2-1.6 1.2-3.1 0-3.7.9-2.2 1.4 2.4.2 2.6 1.4 5.1 3.6 7.6 3 3.3 3.8 3.7 10.4 4.3 3.9.4 8.8 1.4 10.9 2.2 3.6 1.5 7.2 1.4 11.2-.2 2-.8 2-.8.1 1.3-1.1 1.2-1.4 2.2-.8 2.2.6 0 1.7.3 2.6.6 1 .4 1.6.1 1.6-.7 0-1.9 4.7-7.6 5.5-6.7.4.4-.2 1.9-1.4 3.4-1.1 1.5-2.1 3.3-2.1 4 0 1.9 7.9 3.9 9.4 2.3.8-.9.7-1.1-.5-.6-1 .3-2.6-.3-3.8-1.4-2.4-2.3-2.6-3-.9-4.7 2-2 4.7-1.3 6.2 1.5l1.5 2.8.1-3.5c.1-3 .2-3.2 1.1-1.7.6 1 .9 2.7.6 3.8-.4 1.4 0 1.9 1.4 1.9 1.1 0 2.2.6 2.5 1.4.6 1.6 4.6 1.1 9.1-1.2 3.7-1.9 3.9-1.8 4.6 2.5.6 4 1.4 5.3 3.3 5.3.8 0 1.4.5 1.4 1.1 0 .5-.3.8-.7.6-1.9-1-5-2-6.7-2.2-1.1-.1-2.7-1.2-3.7-2.4-1.3-1.6-2.5-2.1-3.9-1.6-3.3 1-2.4 2.8 5.1 9.4 3.8 3.5 8.1 8 9.4 10 5.2 7.8 6.1 8.6 8.1 7.1 1.7-1.4 1.7-1.4.2.8s-1.4 2.7 1.3 7.9c3.4 6.5 6.1 10.1 7.9 10.5 2.1.5 8.1 7 9.6 10.4 1.9 4.6 2.7 12.4 1.6 17.1-.8 3.4-.7 4.5.5 5.4.8.7 2.1 2.6 3 4.3.8 1.7 2.4 3.8 3.5 4.7 1.2.9 2 2.8 2 4.5.1 7.2 2 12.8 10.1 30.1 1.5 3.3.3 3.8-4 1.8-2.9-1.4-6-1.8-13.3-1.7-13.7.2-12.7.1-11.2 1.1.9.5-1.1 1-5.3 1.3-4.9.4-7.2 1.1-8.9 2.7-1.2 1.2-3.3 2.1-4.7 2-2.3-.1-2.2-.1.5-.9 1.5-.5 3.6-1.5 4.5-2.3.9-.8 3.8-2.2 6.5-3.1 4.6-1.6 8.8-3.5 7.6-3.6-1.5 0-11.2 3.1-15.3 5-2.7 1.2-5.1 1.9-5.4 1.6-.4-.3-.1-.6.5-.6.9 0 .9-.5 0-2-1.7-2.7-.2-4.9 5-7.5 2.3-1.1 4.1-2.2 4.2-2.5 0-.4-1.8-.6-3.9-.5-2.1 0-3.7.3-3.5.7.3.4-.7 1-2.1 1.4-2.9.7-5.5-1-5.5-3.7 0-.9-.7-2.5-1.6-3.4-1-.9-1.7-3-1.8-4.6-.1-1.6-.4-2.9-.8-2.9-1.5 0-.8-1.8 1.7-4.1 3-2.9 3-2.9.4-8.7-1.2-2.5-2.2-5.1-2.3-5.7-.2-.5-1-3.5-1.9-6.5-1-3-2-8.5-2.4-12.1-.4-5.1-.9-6.6-1.9-6.2-1.7.6-1.8-.1-.2-2.7 1-1.5 1-2.2 0-3.2-.9-.9-1.2-.9-1.2 0 0 1.9-2 1.4-2.1-.6 0-.9-.3-1.2-.5-.5-.3.6.2 2.8 1 4.8 1.7 3.9 2.3 18.5.8 18.5-.8 0-2-3-4.2-11-.7-2.5-1.7-5.5-2.2-6.7-.6-1.2-.8-3-.6-4.1.3-1.2-.2-2.5-1.3-3.3-1.2-.8-2.1-3.2-2.6-6.4-.6-4.2-.8-4.6-1.4-2.5-1.3 4.5-.9 16.6.6 21.6 1.7 5.7 1.9 7.5.5 5.4-.5-.8-1.5-4.1-2.1-7.3-.7-3.3-1.7-5.7-2.4-5.7-1.6 0-2.8 6-1.9 9.5.5 1.9.3 2.5-.7 2.3-1.6-.3-1.4 4 .2 5.7 1.4 1.4 1.1 4.5-.5 4.5-.7 0-1.9-.6-2.5-1.4-.6-.7-2.2-1.1-3.7-.8-3.2.6-1.8 2.2 2.8 3.1 3.1.7 3.3.9 3.1 4.6-.1 2.2.3 4.5.9 5.2.9 1.2.5 1.7-1.3 1.5-.3-.1-.6 1.2-.7 2.9-.1 3.2 1.2 3.8 2.6 1.3.6-1.1 1.6-1.4 3.1-.9 1.8.5 2.1 1.2 1.6 3.4-.5 2.3-.1 2.9 2 3.9s2.5 1.9 2.6 5.4c.1 4.9 1 8 2.4 7.8 3-.4 4.3 1.1 5.5 6 1.5 6.1.8 13.3-1.9 21.3-1.8 5.3-1.9 8.5-.2 8.8.3.1 2 .3 3.8.5 2.8.2 3.3-.1 3.8-2.8.5-2.3.9-2.7 1.6-1.7 1.4 2.3 1.1 5.9-.6 5.9-1.2 0-1.5 1.3-1.5 6 0 5.5 1.1 7.8 2.3 4.7.3-.6.6-.2.6 1 .1 1.2.7 2.3 1.3 2.5.9.3.8 1-.5 2.3-1.1 1.1-1.6 2.6-1.3 3.9.3 1.5-.8 3.5-3.9 7.1-4.3 4.8-6.1 8-3.1 5.6.8-.7 2.8-1.6 4.4-2.1 2.8-.7 3.3-.5 5.6 2.5 1.4 1.8 3.1 4.5 3.7 5.9 1.4 3.1 4.5 3.4 5.4.7.3-1.1 0-4.4-.8-7.4-1.2-4.5-1.2-5.6-.1-7.2 1.3-1.8 1.4-1.8 1.4.4 0 2.1.2 2.2 1.6 1 1.5-1.2 1.6-1.1 1 .8-.4 1.2-.2 2.4.4 2.8 1.4.8 1.3 10.2-.2 16.7-.6 2.9-1.1 5.7-.9 6.2.1.5-.1 2.7-.4 4.8-.6 3.2-1.1 3.8-3.2 3.8-2 0-2.4.4-2.1 2.2.4 3.3 5.2 3.2 5.6 0 .2-1.3 1-2.6 1.8-2.9.8-.3 1.4-.9 1.4-1.5 0-.5-.4-.7-.9-.4-.5.4-.7-.3-.4-1.4.3-1.1.9-1.7 1.4-1.4 1.3.7 1.1 4.8-.2 6.1-.8.8-.8 1.3 0 1.7.6.4 1.1.3 1.1-.2 0-.6.9-.8 2.1-.5 1.4.4 1.8 1.1 1.3 2.2-.3.9-.8 2.5-1.1 3.6-.7 2.9-2.6 6.9-3.8 7.7-.6.5-.4.8.5.8 1.3 0 1.3.1 0 1-1.2.8-1.3 1.2-.2 1.9 2.4 1.5-1.7 2.3-5.5 1-3-1-6.6-4.9-4.5-4.9.6 0 1.2-.9 1.5-2 .6-2.5-.1-2.5-2.2-.3-1.9 2.1-4.6 3.8-8.1 5.4-2.5 1.1-6 1-35.9-1.1-7.4-.5-13.8-.7-14.3-.4-1.1.7-32.9 3.5-33.7 2.9-.4-.2-2.9-.5-5.5-.6-2.8-.2-5-.8-5.3-1.6-.3-.7-1.5-1.5-2.6-1.9-1.2-.3-3-1.4-4-2.3-1.1-.9-4-2.7-6.5-4.1-5.3-2.9-8.3-7.7-9.2-15.2l-.6-4.6 3.5 1.8c2 1 4.9 3.2 6.5 4.9 1.7 1.7 3.7 3.1 4.6 3.1.9 0 2.5.7 3.6 1.5 1 .8 2.1 1.5 2.4 1.5.3 0 .5-10 .6-22.2 0-12.3.2-24.8.5-27.8.2-3 0-6.1-.4-6.8-.5-.6-.4-1.2.2-1.2.6 0 1.1-.9 1.1-2.1 0-1.6.4-1.9 2-1.4 1.1.4 2 .2 2-.4 0-.6-.9-1.1-2-1.1s-2-.5-2-1.1c0-.8 1.2-1 3.3-.6 1.9.3 4 .1 4.8-.4.9-.6-.4-.9-3.8-.9-4.2 0-5.1-.3-4.7-1.5.4-.8 1.6-1.6 2.8-1.6 2-.2 2-.2-.1-.6-2.9-.6-3-2.3-.1-2.3h2.1l-2.2-1.9c-1.6-1.4-1.8-2.1-.9-2.4.7-.3.3-.6-.9-.6-2.3-.1-2.8-1.5-3.6-10.3-.3-4.1 1-5.1 5.1-3.6 1.7.6 2.4.4 2.9-.8.3-.8 1.2-1.3 1.9-1 .8.3 1.4-.1 1.4-.8 0-.9.7-1.2 2.1-.9 1.9.5 8.9-2.4 8.9-3.8 0-.3 1.1-1.1 2.5-1.7 1.5-.7 2.5-2 2.5-3.2 0-2.1-1.5-2.7-2.5-.9-.4.6-1.4.8-2.2.5-.8-.3-2.4.5-3.7 1.9-2.4 2.6-4.6 3.3-4.6 1.5 0-.6-.4-1-1-1-.5 0-1 1.1-1 2.4 0 1.7-.7 2.7-2.2 3.2-1.3.4-2.6 1.2-3 1.8-.6.8-.8.8-.8-.1 0-.8-.9-.9-3.2-.2-1.7.5-3.2.8-3.3.6-1.3-2.2-2.5-10.3-2.6-18-.1-10.2-1.1-12.4-4.3-9.7-.8.6-3.9 1.4-6.9 1.7-6.7.7-6.7.6-9.3-12.7-2.1-11.3-6.6-23.6-8.3-23.2-.7.1-.9-.2-.6-.8.8-1.3-1.4-7-2.7-7-.5 0-.6-.5-.3-1 .4-.6-2.2-3.9-5.7-7.3-5.7-5.5-7.6-6.7-16.9-10.1-5.7-2.1-12-4.9-13.9-6.1-1.9-1.2-4.5-2.5-5.7-2.9-1.2-.4-2.7-1.3-3.3-2.1-2.2-2.7 1.1-1.7 6.9 2l5.5 3.5 1.3-3.2c1.3-3.1 2.9-4.8 4.6-4.8.4 0-.2.9-1.3 2s-2 3-2 4.2l.1 2.3 1.8-2.3c1.1-1.2 2.7-2.2 3.5-2.2.9 0 1.9-.7 2.2-1.5.3-.8 1.4-1.7 2.4-2 1.2-.4 1.7-1.2 1.3-2.1-.3-1 .1-1.3 1.3-1.2 2.3.4 18.4-8.3 18.4-9.8 0-.7.6-1.2 1.3-1.1 5.2.2 6.4-2.6 2.5-6.3l-2.2-2-2.3 2.2-2.3 2.1v-3.5c0-3.9 1.1-4.8 6.2-4.8 3.7 0 3.2.9-.8 1.6-3.8.7-4.4 1.4-1.1 1.4 1.5 0 3.3 1 4.5 2.5 2.3 2.9 3.2 2.3 3.2-2.2 0-2.1.4-3.2 1-2.8.6.4.7 1.2.4 1.8-.4.7.4.2 1.8-1.1 3.6-3.3 4-1.7.9 3.4-1.6 2.5-3.1 6.6-3.5 9.5-.6 4.6-.4 5.3 2.3 8.4 1.6 1.9 3.4 4.2 4 5.2 1.1 1.7 1.2 1.7 2.6-.1.8-1.1 1.5-2.9 1.6-4 0-2 .1-2 1.2-.2.7 1 2.4 3 4 4.4 1.5 1.4 2.7 3.1 2.7 3.8 0 .7.5 1.4 1.1 1.6 1.7.6-.1 6-2.2 6.5-2.7.7-2.3 3.8.7 5.8 2.5 1.6 2.6 1.6 2-.3-.5-1.6 0-2.2 2.4-3.1 1.7-.5 4.5-2 6.1-3.2 2.6-1.8 3.3-1.9 4-.8 1.1 1.8 1.1 3.2 0 2.5-.5-.4-.7.3-.4 1.4.5 1.8 1 1.4 3.8-2.7 1.8-2.6 5.5-6.9 8.3-9.6 3.2-3 6.1-7 7.8-10.7 1.5-3.3 3-5.7 3.4-5.5 1.6 1 3-11.6 1.8-16.4-1.1-4.1-1.3-4.3-1.8-2.1-.7 2.5-.7 2.5-2.2-1-3.6-8-4.6-13.8-3.2-17.5.5-1.2.9-1.3 1.4-.5.6.9 2.6 1.1 7.5.5 3.8-.4 6.4-1 5.8-1.3-.5-.4-1.2-1.5-1.6-2.5-.4-1.1-1.7-1.7-3.7-1.7-1.6 0-3-.5-3-1 0-.6.9-1 2-1s2-.4 2-1c0-.5.7-.7 1.5-.4.8.4 1.5 1.1 1.5 1.6zm-426.5.8c-.3.5-1.3 1-2.1 1s-1.4-.5-1.4-1c0-.6.9-1 2.1-1 1.1 0 1.7.4 1.4 1zm-64.7 2.4c.4 2.1-1.4 3.7-3.5 2.9-1.4-.5-1.8-3.5-.6-4.7 1.2-1.2 3.8-.1 4.1 1.8zM697 443c0 1.2-4.4 2-5.3 1.1-1.5-1.5.1-2.9 2.8-2.3 1.4.2 2.5.8 2.5 1.2zm-285.4 3c2.2 0 1.7 1.7-.7 2.3-1.6.4-1.9 1-1.4 2.7.5 1.6.3 2.1-.6 1.8-.8-.3-1.5-1.4-1.7-2.6-.2-1.1-1.1-2.3-2-2.5-1.2-.3-1-.5.6-.6 1.4-.1 2.2-.7 2.2-1.9 0-2.7 1.4-3.7 1.8-1.3.2 1.2 1 2.1 1.8 2.1zm168.9.9c.6 2.6.4 3.2-.6 2.9-.8-.3-1.5-1.6-1.7-3.1l-.3-2.7-2.9 2.2c-3.1 2.3-3.1 4.3.1 3.3 2.3-.8 2.6 1 .3 1.9-2 .8-5.4-2-5.4-4.4 0-2.3 1.9-3.7 5.5-4.2 3.7-.5 4.1-.1 5 4.1zm-445.5-.7c0 .6.8 1.7 1.8 2.5.9.8 1.2 1.2.6.9-1.7-.9-2.5 2-1.4 5 1.5 3.8 1.3 4-3.2 3.9-4.1 0-4.3-.1-4.1-2.9.1-1.6.6-3.2 1-3.5.4-.3.9-1.9 1.1-3.6.4-3 1.9-4.8 3.4-3.9.4.3.8 1 .8 1.6zm198-1.2c0 .5-1.8 1-4 1s-4-.5-4-1c0-.6 1.8-1 4-1s4 .4 4 1zm111.5 1.5c.8 0 1.4.5 1.2 1-.1.6-.9 1-1.7 1-.8 0-1.6 1-1.8 2.2-.2 1.3-.7 2.3-1.2 2.3-1.1 0-2-5.4-.9-5.8.5-.2.9-1.1.9-2 0-1.5.2-1.5 1-.2.5.8 1.6 1.5 2.5 1.5zm385.8.2c-1.3.2-3.3.2-4.5 0-1.3-.2-.3-.4 2.2-.4s3.5.2 2.3.4zM551 448.4c0 .3-.4.8-1 1.1-.5.3-1 .1-1-.4 0-.6.5-1.1 1-1.1.6 0 1 .2 1 .4zm215 5c0 3.9-.6 3.1-1.4-1.9-.5-2.9-.4-3.6.3-2.5.6.8 1.1 2.8 1.1 4.4zm3.7 2.3c-.2 1.6-.4.3-.4-2.7s.2-4.3.4-2.8c.2 1.6.2 4 0 5.5zM335 450.8c0 1.1-8.8 1.3-9.5.2-.4-.6 1.4-1 4.4-1 2.8 0 5.1.4 5.1.8zm96.5.1c2.7.5 3.5 1 2.5 1.5-1.3.5-5.1.3-7-.4-.3-.2-3-.2-6-.1-4 .1-5.1-.1-4-.8 1.8-1.2 8.8-1.3 14.5-.2zm225.5 2.7c0 1.3.9 3.3 2.1 4.5l2 2-.5-3.6c-.4-2.1-.9-4.2-1.3-4.7-.3-.6 0-.9.8-.6.8.2 1.5 1.6 1.7 3 .4 3.5 4 4.6 3.8 1.2 0-1.4-.6-2.2-1.3-2-.7.3-1-.1-.6-1 .5-1.4 3.4-1.9 4.6-.8.3.4.2 1.5-.4 2.5-.8 1.5-.6 1.9.8 1.9 1.6 0 1.6.1-.1 1.3-1 .7-1.7 2-1.6 2.8.5 3.4 0 5.1-1.5 4.5-.8-.3-1.5-.1-1.5.4s-.7.7-1.5.4c-.8-.4-1.5-1.3-1.5-2.1 0-1.1-.6-.8-1.9.8-1.1 1.3-2.3 2-2.8 1.6-.4-.5-.1-1.4.7-2 .8-.7 1.6-2 1.8-3.1.3-1.5-.2-1.8-2.7-1.4-1.7.3-3.1.4-3.1.2 0-.1.7-1.5 1.5-3 1-2 1.1-3 .4-3.3-.6-.2-1.5.2-1.9.9-.5.8-1 .9-1.4.2-.9-1.5 2.2-4.2 3.9-3.6.8.4 1.5 1.7 1.5 3zm-514.7-.9c1.3.8-1.4 3.3-3.5 3.3-1.4 0-1.8-.5-1.4-1.6.3-.9.6-2 .6-2.5 0-.7 2.1-.4 4.3.8zm665.7.8c0 1.4-.4 2.5-.9 2.5-.6 0-.8-3.6-.2-4.8.5-1 1.1.2 1.1 2.3zm40.7 6.7c-.2 1.8-.4.4-.4-3.2s.2-5 .4-3.3c.2 1.8.2 4.8 0 6.5zm-249.1-7.5c-1.1 1.1-3.5 1.2-4.2.2-.3-.5.7-.9 2.2-.9 1.5 0 2.4.3 2 .7zm215.6 7.5c.2 2 0 3.4-.4 3.2-.4-.3-.7-2.6-.7-5.2.1-4.9.5-4.2 1.1 2zM426 455.3c0 .1-.4 1.7-.9 3.5-.9 3-.8 3.2 1.5 3.2 3.1 0 3 2.7-.1 4.4-1.1.6-2.3 1.5-2.6 2-1.2 1.5-2.9-.4-2.9-3.2 0-4.5 2-10.2 3.5-10.2.8 0 1.5.1 1.5.3zm32 1.2c0 .3-1.2 1.7-2.7 3l-2.8 2.4 4.3.1c2.6 0 4.1.4 3.7 1-.9 1.4-5.8 1.2-7.9-.3-1.6-1.2-1.6-1.5 1-4 2.5-2.5 4.4-3.4 4.4-2.2zm330 2.2c0 1.9-.3 2.4-1 1.7-.6-.6-.8-1.8-.4-2.7.9-2.4 1.4-2.1 1.4 1zm2.7 1c-.3 1-.5.4-.5-1.2 0-1.7.2-2.4.5-1.8.2.7.2 2.1 0 3zm37.1-1.2c-.3.3-.9-.2-1.2-1.2-.6-1.4-.5-1.5.5-.6.7.7 1 1.5.7 1.8zm-610.1 3.7c-.2 3.4-.6 4.4-2.2 4.7-1.7.3-1.8.1-.5-1.4 1.2-1.4 1.2-1.8-.1-2.6-1.2-.8-1.2-1 0-1.8.7-.5 1-1.4.7-2-.4-.6-.1-1.1.8-1.1 1 0 1.4 1.1 1.3 4.2zm587.6-3.5c-.7.2-2.1.2-3 0-1-.3-.4-.5 1.2-.5 1.7 0 2.4.2 1.8.5zm57.4 1.5c-.3.8-.6.5-.6-.6-.1-1.1.2-1.7.5-1.3.3.3.4 1.2.1 1.9zm-89.8 14.6c1.1 4.1.6 10.7-.8 11.6-.3.2-.6-3-.7-7.3 0-4.2-.5-8.5-1.1-9.6-.6-1.1-.8-3.8-.4-6l.5-4 .7 5.5c.4 3 1.2 7.5 1.8 9.8zM210 463.9c0 2.5-5.3 2.4-5.8-.2-.3-1.3.3-1.7 2.7-1.7 2.4 0 3.1.5 3.1 1.9zm596 .6c0 .8-.4 1.5-1 1.5-.5 0-.7-.7-.4-1.5.4-.8.8-1.5 1-1.5.2 0 .4.7.4 1.5zm-37 .5c0 .5-.2 1-.4 1-.3 0-.8-.5-1.1-1-.3-.6-.1-1 .4-1 .6 0 1.1.4 1.1 1zm-7 3.8c0 .5-.5 1.3-1.1 1.9-.8.8-.5 1.7 1.1 3.3l2.2 2.2-.4-4c-.2-2.2 0-3.8.4-3.6.5.3.8 1.8.8 3.5 0 1.6.6 2.9 1.3 3 1 0 1 .2 0 .6-.7.2-1.3 1.1-1.3 1.9 0 .9-.4 1.3-.9 1-.5-.3-1.1.3-1.4 1.4-.3 1.1-1 2-1.6 2-.7 0-.6-.9.4-2.4 1.8-2.8 1-5.6-1.6-5.6-2.4 0-2.4-1.6-.2-3.8 1.6-1.6 1.5-1.7-.5-2-1.2-.2-2-.8-1.7-1.3.7-1 4.5.6 4.5 1.9zm46.7-.6c-.3.8-.6.5-.6-.6-.1-1.1.2-1.7.5-1.3.3.3.4 1.2.1 1.9zM211 468c0 .5-.2 1-.4 1-.3 0-.8-.5-1.1-1-.3-.6-.1-1 .4-1 .6 0 1.1.4 1.1 1zm522.9 2.8c-1.1 3.3-.9 10 .5 13.7.7 1.9.7 1.9-.7.2-1.8-2.2-2.3-2.2-3 .3-.3 1.1-1.1 2-1.8 2-1 0-1-.3-.1-1.2 2.9-2.9.3-9.7-5.5-14.4-1.5-1.2-2.5-2.6-2-3 .9-.9 5.3 3.1 7.8 7.1 1.1 1.6 1.9 2.8 2 2.5.8-5.5 2.8-11.4 3.5-10.7.2.2-.1 1.8-.7 3.5zm33.6-2.8c.3.5.1 1-.4 1-.6 0-1.1-.5-1.1-1 0-.6.2-1 .4-1 .3 0 .8.4 1.1 1zm-22 5.6c.7-.2 1.9.3 2.7 1.2 1.1 1.3 1.1 1.4-.1.7-.9-.5-2 0-3.2 1.6l-1.9 2.4.2-5.5c0-3 .3-4.2.5-2.7.3 1.9.9 2.7 1.8 2.3zm-185.6 2c2.7 3.5 3.7 8.9 2.1 12.2-.7 1.5-1.5 2.2-1.7 1.5-.2-.7 0-2 .5-3 1.2-2.5-.2-7.4-3.2-10.6-1.6-1.8-2-2.7-1.1-2.7.7 0 2.3 1.2 3.4 2.6zm195.1-.3c1.2.4 1.1.6-.3.6-1.4.1-1.7.6-1.2 2.3.5 1.6.4 2-.3 1.3-1.1-1-1.5-3-1.3-5.5.1-1 .4-1.1.9-.4.4.6 1.4 1.4 2.2 1.7zm-530 .7c0 1.1-.4 2-1 2-.5 0-1-.9-1-2s.5-2 1-2c.6 0 1 .9 1 2zm515.7 2.4c-.1 2.3-.5 3.2-1.3 2.9-.9-.3-1-1.2-.4-2.9 1-2.5.4-3-1.9-1.5-.8.5-1.1 1.6-.8 2.5.4.9.2 1.6-.3 1.6-1.7 0-1.1-3.8.8-4.9 3-1.8 4-1.2 3.9 2.3zm-311.1 3.1c-2 1.9-3.6 3.1-3.6 2.5 0-1.1 6.3-7.1 6.8-6.5.2.2-1.2 2-3.2 4zm117.2-.8c-1.4 3.8-.1 5.8 4.6 7.2 3 .9 3 .9.5 1-5.6.2-9.3-6.3-5.9-10.4 1.8-2.2 2.1-1.3.8 2.2zm202.6-2.2c-.7 1.7-3.4 2.1-3.4.4 0-.5.4-.8.9-.4.5.3 1.2.1 1.6-.5.9-1.5 1.5-1.2.9.5zm19.6.5c0 1.3-.6 2-1.7 1.9-1.1 0-1.3-.3-.5-.6.6-.2 1.2-1.1 1.2-1.9 0-.8.2-1.4.5-1.4s.5.9.5 2zm-368.4 5c-.7 3-.7 4.9.1 7.1.9 2.3.9 2.9 0 2.6-1.6-.5-2.1-7.6-.8-11 1.6-4 2-3.3.7 1.3zm156.2-2.3c-1.6.2-4 .2-5.5 0-1.6-.2-.3-.4 2.7-.4s4.3.2 2.8.4zm-140.1 1.7c-.3.9.3 1.7 1.6 2.1 2.1.7 2.1.7.2 1.2-2.6.7-3.4 2.1-3.6 5.8-.1 1.7-.3 2.2-.6 1.2-.4-1.5-.6-1.6-2.6-.2-1.2.8-2.5 1.5-2.9 1.5-1.2 0-.9-3.8.3-4.6.8-.4.9.1.4 1.7-.8 2.4-.8 2.4 1.4.5 2.5-2.2 2.9-5.1.5-4.2-.8.3-1.2.2-.9-.4.3-.6 1.4-1 2.3-1.1 1.1-.1.8-.4-.8-.9l-2.5-.8 2.6-.1c1.5-.1 2.9-.8 3.3-1.6.3-.8.8-1.5 1.2-1.5.3 0 .4.6.1 1.4zm382.6-.7c-.7.2-2.1.2-3 0-1-.3-.4-.5 1.2-.5 1.7 0 2.4.2 1.8.5zM554.5 484c-.3.5-2.1.9-3.8.9l-3.2-.1 3-.8c4.3-1.1 4.7-1.1 4 0zM452 486.9c-1 2-.9 2.1 1.7 1.6 2.6-.6 2.5-.4-.7 1.4-2 1-4.2 3.1-4.9 4.5-.8 1.4-2 2.7-2.8 3-.9.4-1.1.1-.7-.5.4-.7.1-1-.7-.7-.8.3-1.3 1.1-1.1 1.7.1.6-.2 1.1-.8 1.1-2.1 0-.8-2.5 3.3-6.2 2.3-2.2 3.2-3.5 2-2.8-1.8.8-2.3.8-2.4-.2 0-1-.2-1-.6-.1-.8 2.1-2.2 1.5-1.6-.7.3-1.1.9-1.8 1.3-1.5.4.2 2.5-.4 4.6-1.4 4.5-2.2 5-2.1 3.4.8zm-11.3-.6c-1.6.7-3.5 2.3-4.2 3.7l-1.4 2.5-.1-2.6c0-3.3 1.7-4.9 5.5-4.9l3 .1-2.8 1.2zm-11.9 3c-.2 3-.5 3.3-3.5 3.4-2.5.1-3.3-.3-3.2-1.5 0-1.1.2-1.2.6-.5.8 2.1 2.2 1.5 3.8-1.7 2-3.9 2.6-3.8 2.3.3zm-286.2-1.2c.3.6.2 1.5-.4 2.1-.6.6-.8 1.7-.5 2.4.4 1-.3 1.4-2.1 1.4-3 0-3.2-.7-.9-3.2 1.5-1.7 1.5-1.8-.8-1.8-1.9 0-2.1-.2-.9-1 2-1.3 4.7-1.3 5.6.1zM338 488c0 .6-2.7.9-6.2.9-5-.1-5.7-.3-3.3-.9 4.5-1.1 9.5-1.1 9.5 0zm-188 2.5c0 3.3-2.5 8.1-4.5 8.9-3.4 1.3-3.5.5-.6-2.7 2.7-2.8 3.7-5.2 3.2-8 0-.4.4-.7.9-.7.6 0 1 1.1 1 2.5zm645-.9c0 .9.8 2.3 1.8 3 1.6 1.3 1.6 1.4-.3.7-3-1-5.1-5.3-2.5-5.3.6 0 1 .7 1 1.6zm6.7 1.6c-.3.8-.6.5-.6-.6-.1-1.1.2-1.7.5-1.3.3.3.4 1.2.1 1.9zm-279.2 3.6c-.6.7-3.5-1.8-3.5-3.1 0-.5.9-.2 2 .8s1.8 2 1.5 2.3zm-145.9-.3c-.4 1 .1 1.5 1.4 1.5 1.6 0 2 .7 2 3 0 1.6-.5 3-1.1 3-.6 0-.8.9-.4 2 .3 1.1.2 2.8-.4 3.7-.9 1.5-1 1.3-1.1-1.3 0-1.7-.7-5.3-1.5-8s-1.5-5-1.5-5.2c0-.1.7-.2 1.6-.2 1 0 1.4.6 1 1.5zm-10.4 9.4c-.2 1.6-1.1 3.8-2.1 4.8-.9 1-2.6 3.9-3.8 6.5-2 4.3-4.3 6.3-4.3 3.9 0-3.9 8.4-19.6 9.9-18.6.4.2.6 1.7.3 3.4zm409.7 6.1c0 .9-.4.8-.9-.5-.5-1.1-.9-2.7-.9-3.5 0-.9.4-.8.9.5.5 1.1.9 2.7.9 3.5zm-32.9.4c0 .2-.7.6-1.5 1-.8.3-1.5.1-1.5-.4 0-.6.7-1 1.5-1s1.5.2 1.5.4zm-219.3 2.3c.4 1.1-.4 2.5-2.6 4.4-2.8 2.3-3.7 2.6-5.7 1.7-1.3-.6-2.4-1.4-2.4-1.8 0-1.7 6.3-5.7 9.3-5.9.4-.1 1.1.7 1.4 1.6zm222.8 2.3c.7 0 1.6-.6 1.8-1.3.3-.7.6-.4.6.7.1 1.4-.4 1.7-2.4 1.4-1.4-.3-2.5-.1-2.5.5s-.2.8-.5.5c-.3-.3-.2-1.3.2-2.4.4-1.1.8-1.3 1.1-.6.2.7 1 1.2 1.7 1.2zm19-.2c-.3.3-1.1 0-1.8-.7-.9-1-.8-1.1.6-.5 1 .3 1.5.9 1.2 1.2zm11.2 3.9c-.3 1-.5.2-.5-1.7s.2-2.7.5-1.8c.2 1 .2 2.6 0 3.5zm55-4.1c-.3.3-1.2.4-1.9.1-.8-.3-.5-.6.6-.6 1.1-.1 1.7.2 1.3.5zm-75.2 3.2c-.3.3-1.1 0-1.8-.7-.9-1-.8-1.1.6-.5 1 .3 1.5.9 1.2 1.2zm-494.2 3.9c-.7.2-2.1.2-3 0-1-.3-.4-.5 1.2-.5 1.7 0 2.4.2 1.8.5zm5 1c-.7.2-1.9.2-2.5 0-.7-.3-.2-.5 1.2-.5s1.9.2 1.3.5zm483.4 2.5c-.3.7-.5.2-.5-1.2s.2-1.9.5-1.3c.2.7.2 1.9 0 2.5zM275 531.8c0 3.2-3.1 10.2-4.5 10.2-.2 0 .4-1.5 1.5-3.3 2.6-4.2 2.6-9.7-.1-13.3l-2.1-2.9 2.6 2.8c1.8 2 2.6 3.9 2.6 6.5zm528.7-4.2c-.3.3-1.2.4-1.9.1-.8-.3-.5-.6.6-.6 1.1-.1 1.7.2 1.3.5zm-477.4 2.7c-1.2.7-3.4 2.8-4.8 4.7-1.4 1.8-2.5 3-2.5 2.6 0-.4.9-2.1 2.1-3.7 1.9-2.7 1.9-2.9.2-3-1-.1-.4-.5 1.2-.9 4.7-1.2 6.2-1.1 3.8.3zm-60.5.4c-2 .3-2.8 1-2.9 2.6-.1 2-.2 2.1-.6.2-.3-1.1-1-2.3-1.7-2.7-.6-.4.9-.7 3.4-.6 2.9.1 3.5.2 1.8.5zm-9 1c-2.3.4-2.8 1-3 3.6l-.1 3.2-.4-3.2c-.3-2.3-1-3.3-2.6-3.6-1.2-.2.3-.4 3.3-.4s4.3.2 2.8.4zm-125.1 5.9c-2.4 3.4-3.2 5.6-3.2 8.9 0 2.4-.3 4.1-.7 3.8-1.4-.8-.8-7.8.9-10.3 1.7-2.7 5.5-7 6-7 .1 0-1.2 2.1-3 4.6zm126 .1c-.3 1-.5.2-.5-1.7s.2-2.7.5-1.8c.2 1 .2 2.6 0 3.5zm-16.4-2.2c-.3.9-.8 1.4-1 1.1-.3-.3-.2-.9.2-1.5.9-1.6 1.5-1.3.8.4zm68.5-.2c2.2 1.3 2.2 1.3-2.5 5.7l-4.8 4.5 3.9-4.2c2.2-2.4 3.8-4.4 3.5-4.6-.2-.2-1.3-.9-2.4-1.5-1.1-.6-1.5-1.1-1-1.1.6 0 2 .5 3.3 1.2zm22.2 4.1c0 2.7-1 1.4-1.6-2-.3-2.2-.2-2.5.6-1.4.5.8 1 2.4 1 3.4zm47.1-1.5c-2.3 1.9-3.1 3.2-2.6 4.1.5.9.4 1.1-.4.6-.6-.4-1.9-.2-2.7.5-1.9 1.5-3.8-.1-3.1-2.7.4-1.6.5-1.5.6.3 0 1.3.5 2.3 1.1 2.3 1.3 0 2.8-3.2 2.3-5-.4-1.3-.3-1.3.6 0 .9 1.3 1.3 1.2 3.3-.8 1.2-1.2 2.7-2.2 3.3-2.2.5 0-.5 1.3-2.4 2.9zm-117.4 3.3c-.2 1.3-.4.5-.4-1.7-.1-2.2.1-3.2.4-2.3.2 1 .2 2.8 0 4zm37.9-1.7c-.9 1.4-1.4 3-1.1 3.5.3.6-.5 1-1.9 1h-2.4l3.1-3.5c3.6-4.1 4.6-4.5 2.3-1zm39.2.6c-.6 1.6-1.2 2.8-1.5 2.6-.7-.7.8-5.7 1.8-5.7.4 0 .3 1.4-.3 3.1zm-17.5-.1c-.4 1.6 0 2 2 2 3.9 0 4.1 1.6.2 1.8-2.7.2-3.5-.2-4-1.9-.6-1.7.5-3.7 2.2-3.9 0 0-.1.9-.4 2zm-68.6 3.7c-.3 1-.5.2-.5-1.7s.2-2.7.5-1.8c.2 1 .2 2.6 0 3.5zm335.8 11.7c2 8.5 4.5 24.2 2.9 18.1-3-11.4-8.4-33.5-8.3-34.2.2-2.1 3.2 6.9 5.4 16.1zm-451.5-14c0 .3-.4.8-1 1.1-.5.3-1 .1-1-.4 0-.6.5-1.1 1-1.1.6 0 1 .2 1 .4zm123.3 3.8c4.3-.6 3.2.4-1.4 1.2l-3.6.6.6-3.2c.5-3 .6-3.1.9-.7.3 2.2.7 2.5 3.5 2.1zm-114.6 3.5c-1.3 1.3-1.3 1-.3-2.2.9-3 1.2-3.2 1.4-1.5.2 1.3-.3 2.9-1.1 3.7zm-10-1.5c-.3.7-.5.2-.5-1.2s.2-1.9.5-1.3c.2.7.2 1.9 0 2.5zm114.3.8c-.8.5-1.9 1-2.5 1-.5 0-.3-.5.5-1s2-1 2.5-1c.6 0 .3.5-.5 1zm5.7 1.6c-.3.3-1.2.4-1.9.1-.8-.3-.5-.6.6-.6 1.1-.1 1.7.2 1.3.5zm107 12.6c-.3.8-.6.5-.6-.6-.1-1.1.2-1.7.5-1.3.3.3.4 1.2.1 1.9zm-1 6c-.3.7-.5.2-.5-1.2s.2-1.9.5-1.3c.2.7.2 1.9 0 2.5zm196 2c-.3.8-.6.5-.6-.6-.1-1.1.2-1.7.5-1.3.3.3.4 1.2.1 1.9zm38.4 18.7c1.1 4.6 2.4 11.6 2.9 15.5.6 3.9 1.3 8.4 1.6 10 .4 1.8.2 2.6-.4 2.2-.5-.3-1.3-2.3-1.6-4.3-.4-2.1-1.8-9-3.1-15.3-4.4-21.4-4-27.7.6-8.1zm13.9-10.4c0 1.6-.6 2.5-1.6 2.5-1.2 0-1.5.6-.9 2.2 1.7 5.4 1.7 7.8.2 8.4-1.5.5-9.7-4.2-9.7-5.6 0-.4 1.1-1.9 2.5-3.4s2.5-3.2 2.5-3.8c0-.6 1.1-.8 2.6-.5 1.6.3 2.8 0 3.1-.9.8-2.1 1.3-1.7 1.3 1.1zm-60 2.9c0 .2-.7.9-1.5 1.6-1.3 1.1-1.4 1-.9-.4.5-1.4 2.4-2.3 2.4-1.2zm-172 6.1c2.5 1.8 6.1 5 7.9 6.9 2.9 3 3.2 3.6 1.6 3.6-3 0-10-3.8-14.9-8.1-8.4-7.4-4-9.4 5.4-2.4zm-59.7-.8c-.7.2-1.9.2-2.5 0-.7-.3-.2-.5 1.2-.5s1.9.2 1.3.5zm223.3.2c1.4-1.2 3 1.1 4.5 6.5.7 2.7.7 2.9-.5 1.3-.7-.9-1.7-1.7-2.2-1.7-1.4 0-5.4-4.6-5.4-6.1 0-1 .3-1 1.2-.1.8.8 1.5.8 2.4.1zm8.4.1c0 .5-.4 1-1 1-.5 0-1-.5-1-1 0-.6.5-1 1-1 .6 0 1 .4 1 1zm4.1 5.6c-.9 2.8-.9 2.9-1 .3-.1-1.4.2-2.9.6-3.2 1.1-1.2 1.3-.2.4 2.9zm-188.8 3.3c2.5 4.3 7.4 8.1 9.5 7.4.9-.3 1.4-.2.9.2-1 1.2 4.9 3.6 7.1 2.8 1.2-.4 1.1-.1-.4 1-1.8 1.3-2.8 1.4-6 .5-2.1-.6-4.6-1.1-5.6-.9-.9.1-2-.4-2.4-1-.5-.9-.2-1 1.1-.5 1 .3-.5-1.6-3.4-4.3-5-4.8-5.8-6.1-4.4-7.4 1.1-1.2 1.8-.8 3.6 2.2zm146.4 1.7c-.3.3-1.2.4-1.9.1-.8-.3-.5-.6.6-.6 1.1-.1 1.7.2 1.3.5zm43 2.6c-.3.8-.6.5-.6-.6-.1-1.1.2-1.7.5-1.3.3.3.4 1.2.1 1.9zm-32.7 1.2c0 .3-.4.8-1 1.1-.5.3-1 .1-1-.4 0-.6.5-1.1 1-1.1.6 0 1 .2 1 .4zm36 1.7c0 .6-.4.7-1 .4-.5-.3-1-1.1-1-1.6 0-.6.5-.7 1-.4.6.3 1 1.1 1 1.6zm-154.3 1.1c-.3.8-.6.5-.6-.6-.1-1.1.2-1.7.5-1.3.3.3.4 1.2.1 1.9zm-133 1c-.3.8-.6.5-.6-.6-.1-1.1.2-1.7.5-1.3.3.3.4 1.2.1 1.9zm-55 3c-.3.7-.5.2-.5-1.2s.2-1.9.5-1.3c.2.7.2 1.9 0 2.5zm316-.1c-.4 1.3 0 1.9 1.1 1.9 1 0 2.4.5 3.2 1 1.1.7.6.8-1.7.4-2.6-.5-3.3-.3-3.3 1 0 .9.5 1.6 1.2 1.6.6 0 .9.2.6.5-.3.3-3.7 0-7.7-.6-6.2-1-7.1-1.5-7.1-3.3.1-2 .2-2 1.4-.4 1.5 2.1 2.7 2.3 2.4.5-.2-.6.6-1.2 1.6-1.2 2.5 0 3.4 2.5.9 2.6-1.7.1-1.7.1 0 .6 2.5.6 5.7-2.4 5.7-5.4 0-1.5.4-2.2 1.1-1.7.6.3.9 1.5.6 2.5zm188.4-.1c2.2 0 2.4 1.1.7 2.8-2.3 2.3-3.8 1.3-3.7-2.6.1-2 .3-2.9.6-2 .2 1 1.3 1.8 2.4 1.8zm51.1 1.5c1.3 5-1.2 9.2-2.7 4.5-.3-1.1-1.5-2-2.5-2-2.4 0-3.3-3.7-1.2-5 2.9-1.7 5.5-.7 6.4 2.5zm-214.5 1.7c-.3.8-.6.5-.6-.6-.1-1.1.2-1.7.5-1.3.3.3.4 1.2.1 1.9zm-311.7-.3c0 .6-.4 1.3-1 1.6-.5.3-1-.1-1-.9 0-.9.5-1.6 1-1.6.6 0 1 .4 1 .9zm142.8-.2c-1 .2-2.6.2-3.5 0-1-.3-.2-.5 1.7-.5s2.7.2 1.8.5zM269 615.5c0 .8-.4 1.5-1 1.5-.5 0-.7-.7-.4-1.5.4-.8.8-1.5 1-1.5.2 0 .4.7.4 1.5zm256 1.1c2.5.4 5 .7 5.6.6.6-.1 2.8.5 4.8 1.3 2.6 1.1 3.6 2.1 3.2 3.1-.3.7 0 1.4.7 1.4.8 0 1.3 2 1.5 5.7.2 3.1.7 6.4 1.1 7.2.5.9 1.4 5.4 2.1 10.1 1.6 10.9 5 23.3 6.7 24.3.7.5 1.1 1.3.7 1.8-.3.6.2.9 1.2.7 1.2-.2 2 .6 2.5 2.5.7 2.8.7 3.7-.8 7.4-.3 1-.5 2.7-.5 3.8.1 1.1-.1 1.4-.4.7-.3-.6-1.2-1.2-2-1.2s-1.4-1-1.4-2.5c0-1.4-1.1-5.3-2.5-8.7-1.4-3.5-2.7-8.1-2.9-10.3-.8-6.4-3.3-14.3-4.1-12.4-.7 1.8-.2 6.7 1.5 14.4.6 2.7 1.2 5.9 1.4 7 .2 1.1 1.3 6 2.5 10.8 1.1 4.9 2.1 11.5 2.1 14.8 0 3.3.7 7.6 1.5 9.6.8 1.9 1.5 4.6 1.5 5.9 0 1.2.4 2.5.9 2.8.4.3 1.4 2.7 2.1 5.3.8 2.7 1.8 5.1 2.3 5.4 1.1.8 2.3 9.9 1.3 9.9-.4 0-1.6-.9-2.8-2-1.7-1.5-2.5-1.7-3.5-.8-1.8 1.5-5-1.3-3.7-3.4.5-.7.7-3.8.6-6.8-.2-4 0-5.1.7-4 2.1 2.9 1.2-1.1-1.3-5.9-1.3-2.5-2.8-5.7-3.3-7.1-.6-1.4-1.6-3.8-2.2-5.3-.6-1.5-1.1-3.8-1.1-4.9 0-1.2-.4-3.5-.9-5.2-.6-1.7-1.5-5.8-2.1-9.1-1.9-9.7-7.9-34.4-10-41.6-1.1-3.6-2-8-2-9.8 0-1.9-.4-3-1-2.6-.6.4-.7 2.3-.4 4.7.9 5.5-1.7 4.8-2.8-.8-.8-3.6-1.8-6.4-3.9-10.6-.5-1-.9-3.4-.9-5.3 0-3.1.2-3.4 1.8-2.7.9.6 3.7 1.3 6.2 1.8zm15.7 0c-.3.3-1.2.4-1.9.1-.8-.3-.5-.6.6-.6 1.1-.1 1.7.2 1.3.5zm6 1c-.3.3-1.2.4-1.9.1-.8-.3-.5-.6.6-.6 1.1-.1 1.7.2 1.3.5zm-279 3.6c-.3.8-.6.5-.6-.6-.1-1.1.2-1.7.5-1.3.3.3.4 1.2.1 1.9zm-51 10c-.2 2.4-.4.7-.4-3.7s.2-6.3.4-4.3c.2 2.1.2 5.7 0 8zm386.2-5.7c0 .5-.6.1-1.4-.9-.8-1.1-1.5-2.7-1.5-3.5.1-1.7 2.9 2.6 2.9 4.4zm-44.2-.3c-.3.8-.6.5-.6-.6-.1-1.1.2-1.7.5-1.3.3.3.4 1.2.1 1.9zm172 5c-.2 1.3-.4.5-.4-1.7-.1-2.2.1-3.2.4-2.3.2 1 .2 2.8 0 4zm-328 .5c-.3 1-.5.2-.5-1.7s.2-2.7.5-1.8c.2 1 .2 2.6 0 3.5zm169.9 3.7c-.9 1.4-2.6 3.1-3.8 3.7-1.8.9-1.5.3 1.2-2.8 3.8-4.3 5.2-4.8 2.6-.9zm-169.9 8.3c-.2 1.6-.4.5-.4-2.2 0-2.8.2-4 .4-2.8.2 1.3.2 3.5 0 5zm2-3c-.3 1-.5.4-.5-1.2 0-1.7.2-2.4.5-1.8.2.7.2 2.1 0 3zm-253.2 11.9c-4.8.8-11.5.9-11.5.2 0-.5 3-.7 6.8-.7 3.7.1 5.8.3 4.7.5zm-13.7 1.1c-1 .2-2.8.2-4 0-1.3-.2-.5-.4 1.7-.4 2.2-.1 3.2.1 2.3.4zM134 668c-1 2.3-1 2.2-.5-.9.3-1.8.6-5.2.7-7.5.2-3.8.2-3.7.5.9.2 2.8-.1 6.2-.7 7.5zm478.5-6c.7 1.2-1.9 1.2-5.5 0-2.2-.7-2.1-.8 1.2-.9 2-.1 4 .3 4.3.9zM509 672.7c0 2.7.1 5.8.2 7 0 1.2.6 2.4 1.4 2.7.8.3 1.4 1.3 1.4 2.2 0 1-.5 1.4-1.5 1-1-.3-1.5.1-1.6 1.2-.1.9-1-1.9-2-6.2-1.1-4.4-1.6-8.2-1.1-8.5.5-.3 1.1-1.4 1.5-2.4 1-2.8 1.5-2 1.7 3zm227.4 12.9c.9 2.2.8 2.4-.9 2.4-.8 0-1.5-.9-1.5-2 0-2.4 1.5-2.7 2.4-.4zM515 692.2c0 2.1.3 3.8.8 3.8.4 0 1.2 1.1 1.9 2.5.7 1.6.7 2.5.1 2.5-1.3 0-.1 5 1.8 7.1.8.8 1.4 2.6 1.4 3.8 0 1.3 1.5 5.5 3.4 9.5 1.9 3.9 4.2 9.5 5.1 12.4 1 2.9 2.1 5.5 2.6 5.8.5.3.9 1.4.9 2.5 0 1 .4 1.9.9 1.9.9 0 2.3 4.1 1.6 4.8-.3.3-1.1 0-1.8-.7-.8-.6-2.5-1-3.8-.9-1.7.2-2.4-.3-2.6-1.7-1-6-1.4-6.9-2.4-5.4-.5.9-.9.9-.9.2 0-.6.5-1.5 1-1.8 1.7-1 1.1-2.5-1-2.5-1.1 0-1.9-.3-1.8-.8.1-.4-.2-3.1-.6-5.9-.7-4.5-1.3-5.5-4.2-7.4-3.8-2.3-4.4-4.8-1.4-5.6 2.2-.6 2.3-1 1.4-7.7-.8-5.8-2.3-6-2.6-.4l-.1 4.3-.4-4c-.3-2.2-1-4.3-1.6-4.7-1.5-.9-2-14.7-.5-16.5 1.6-2 2.8.1 2.8 4.9zm-259.3 8c-.3.8-.6.5-.6-.6-.1-1.1.2-1.7.5-1.3.3.3.4 1.2.1 1.9zm220.2 5.9c-1 2-1.2 2-2.1.5-.6-1.1-.5-2.1.6-3.2.9-.8 1.7-2.3 1.7-3.2.1-.9.4-.5.6 1 .2 1.5-.1 3.7-.8 4.9zM721 708c0 .5-.4 1-1 1-.5 0-1-.5-1-1 0-.6.5-1 1-1 .6 0 1 .4 1 1zm-239 3.4c0 1.4-1 3-2.5 4-2.4 1.6-2.5 1.6-2.5-.4 0-1.9 2.7-5.7 4.3-5.9.4-.1.7 1 .7 2.3zm227 .1c0 .2-1.3 1.1-2.9 1.9-4.6 2.4-19.4 3.8-32.7 3.1-20.8-1.2-17.7-2.7 8.6-4.1 6.3-.3 11.7-.8 11.9-1 .6-.6 15.1-.5 15.1.1zm25.4 5.2c-1.3 2.7-2.4 5.4-2.4 6 0 .7-.5 1.3-1.1 1.3-1.3 0-.7-2.8 1.6-8.3.8-2 2.1-3.7 2.9-3.7 1 0 .7 1.3-1 4.7zM144 718c0 .5-.5 1-1.1 1-.5 0-.7-.5-.4-1 .3-.6.8-1 1.1-1 .2 0 .4.4.4 1zm527.6 1.8c-.2.1-3.9.9-8.2 1.6-10.7 1.9-38.2 2.4-41.1.8-3-1.7-2.9-1.9.6-1.4 1.6.2 3.7-.1 4.8-.6 1.5-.9 44.8-1.3 43.9-.4zm48.4 1.4c1.1 1.2 1.9 2.9 1.8 3.8-.3 1.6-4.8 2.8-4.8 1.2 0-.6-.9-.8-2.1-.5-1.8.5-1.9.2-1.3-2.3.4-1.6.9-3.2 1.1-3.7.8-1.4 3.2-.7 5.3 1.5zm-577.3 2c-.3.7-.5.2-.5-1.2s.2-1.9.5-1.3c.2.7.2 1.9 0 2.5zm33.6 2.8c-.3 1.2-.8 1.9-1.1 1.6-.5-.6.5-3.6 1.2-3.6.2 0 .2.9-.1 2zm537.2 10c-.5 1.4-.2 2 .9 2 .9 0 1.6-.7 1.6-1.6 0-.8.5-1.2 1.1-.9.6.4.7 1.9.4 3.5-.5 2.2-.2 2.9 1.1 3.2 2.8.5 2.5 8.6-.4 11.8-1.5 1.7-2.1 3.2-1.7 4.7.6 2.6.5 2.6-2.9 1.3-3.5-1.3-3.6 1.3 0 3.6 1.4.9 2.3 2.3 2 3-.5 1.3 3.1 3.1 4.1 2 .4-.3-.1-.6-1-.6-1 0-1.7-.8-1.7-2 0-2 .1-2 2.4-.3 2.5 1.8 2.5 1.8.5 3.8-1.4 1.4-2.2 1.7-2.7.8-1.3-2-5.8-2.6-7.5-.9-2 2-2.3 2-4.8-.5l-2-2 2.1-3.5c1.2-1.8 2.5-3.4 3-3.4.7 0 1.5-5.8 2.5-18.5.2-2.4.9-5.1 1.7-5.9 1.8-2.1 2-2 1.3.4zm-160.7 2.8c.2 1.2 1.2 2.7 2.3 3.2 1.5.8 1.9 2.1 1.9 5.8-.1 4-.2 4.4-1.2 2.7-.6-1.1-2-2.6-3-3.3-1-.7-1.8-2.3-1.8-3.5 0-1.2-.7-3.1-1.5-4.1-2-2.7-1.9-3.3.8-3.1 1.4.1 2.3.9 2.5 2.3zM771.6 754c1.1 2.6 1.9 9.5 2.9 26 .3 4.7 1 14.3 1.5 21.5.9 12.8 1.1 15.7 3 44.5.5 8 1.6 28.9 2.5 46.5.8 17.6 1.8 36 2.1 41 .3 4.9.7 14.8.9 22 .3 7.1.7 14.9 1.1 17.3.4 2.9.2 5.2-.7 6.8-.8 1.6-.9 2.8-.4 3.2 2.2 1.6 1.4 6.3-1.5 9.2-1.7 1.8-2.7 3.6-2.4 4.5.4.8.1 1.5-.5 1.5-1.6 0-1.3-4.6.4-6 .8-.7 1.5-2 1.5-2.9 0-1.2-.2-1.3-.8-.3-.6.8-1.3.2-2.5-2.2-1.2-2.7-2-3.3-3.6-2.9-1.2.3-2.1.9-2.1 1.4 0 1.3-3.3 4.9-4.5 4.9-.6 0-1.6-.9-2.3-2-1.5-2.5-4.2-2.6-4.2-.3 0 1.6-.2 1.6-1.1.3-.8-1.2-1-.9-.6 1.2.9 5.6-1.1 2.6-2.2-3.3-.7-3.4-3.8-12.9-7-21.3-3.1-8.3-6.3-17.1-7-19.6-.8-2.5-2.2-7-3.3-10-1.5-4.2-1.8-6.8-1.3-11.2.4-3.6.2-6.5-.6-7.9-1.9-3.6-2.1-23.3-.4-40.4.9-8.8 1.8-23.9 2.1-33.5.2-9.6.6-18.1.9-18.7.6-1.6-2.3-34.4-3.5-39.8-.5-2.3-.5-8.7 0-15 .5-6.1.9-11.5.9-12 .1-1.4 4.4-1.7 7.6-.5 2 .7 2.5.6 2.5-.5s1.2-1.5 4.5-1.5c2.7 0 4.9-.6 5.7-1.5.9-1 2.9-1.4 6.3-1.2 4.3.2 5.2.6 6.1 2.7zm-234.6-.5c0 .8-.2 1.5-.4 1.5s-.6-.7-1-1.5c-.3-.8-.1-1.5.4-1.5.6 0 1 .7 1 1.5zm20.5 3.2c.1 1.5.5 3.5.8 4.3.3.8 1 3.3 1.5 5.5.6 2.2 1.4 5.1 1.7 6.5l.7 2.5-2.1-2.5c-1.1-1.4-2.1-3-2.1-3.6 0-.6-.6-1.7-1.4-2.3-1.8-1.5-2.6-8.2-1.1-8.8.7-.2 1-1.5.7-3.1-.3-1.5-.1-2.4.3-2 .4.4.8 2 1 3.5zm-48.5 1.8c0 .8-.7 1.5-1.6 1.5-1.4 0-1.4-.3-.4-1.5.7-.8 1.4-1.5 1.6-1.5.2 0 .4.7.4 1.5zm212.6 3.2c-.6 1.4-.9 1.5-1.6.4-1.1-1.9-.1-4.6 1.3-3.2.5.5.7 1.8.3 2.8zm-175.8 10.7c1.1 2.3 2.3 5.5 2.7 7.3.8 3.9 4.2 11.2 6.3 13.6 1.4 1.6 1.4 1.9 0 3.4-2 1.9-4.8 1.1-5.5-1.7-.3-1.1-.9-2-1.4-2-.5 0-.8-.3-.7-.8.3-1.1-1.3-5.5-2.5-7.1-.6-.7-1.2-1.8-1.3-2.5-.1-.6-1-2.9-1.9-5.1-1.9-4-2.5-8-1.7-10.2.7-2 3.8.6 6 5.1zm-69.2 6.3c-1 1-1.9-.5-1-1.8.6-1.1.8-1.1 1.2 0 .2.7.1 1.5-.2 1.8zM503 785c0 .5-.4 1-1 1-.5 0-1-.5-1-1 0-.6.5-1 1-1 .6 0 1 .4 1 1zm-208.7 10.7c-.7.2-1.9.2-2.5 0-.7-.3-.2-.5 1.2-.5s1.9.2 1.3.5zm-6.3.7c0 .2-.7.6-1.5 1-.8.3-1.5.1-1.5-.4 0-.6.7-1 1.5-1s1.5.2 1.5.4zm-8.7 2.3c-.7.2-2.1.2-3 0-1-.3-.4-.5 1.2-.5 1.7 0 2.4.2 1.8.5zm-38.6 6.9c-.3.3-1.2.4-1.9.1-.8-.3-.5-.6.6-.6 1.1-.1 1.7.2 1.3.5zm-5.4 1.1c-.7.2-1.9.2-2.5 0-.7-.3-.2-.5 1.2-.5s1.9.2 1.3.5zm312.4 4.9c0 2.6-4.5 3.6-10.8 2.5-.4 0-.9-.7-1.2-1.5-.4-1 .5-1.4 3.5-1.4 2.2-.1 4.3-.3 4.6-.6 1.2-1.2 3.9-.5 3.9 1zm-75.4 1.1c-.7.2-1.9.2-2.5 0-.7-.3-.2-.5 1.2-.5s1.9.2 1.3.5zm59.1 1.9c.5 1.4.4 1.5-.9.4-1.7-1.4-1.9-2-.6-2 .5 0 1.2.7 1.5 1.6zm-8.4.4c0 .5-.2 1-.4 1-.3 0-.8-.5-1.1-1-.3-.6-.1-1 .4-1 .6 0 1.1.4 1.1 1zm-283.3 2.6c-.3.3-1.2.4-1.9.1-.8-.3-.5-.6.6-.6 1.1-.1 1.7.2 1.3.5zm-4.4 1.1c-.7.2-1.9.2-2.5 0-.7-.3-.2-.5 1.2-.5s1.9.2 1.3.5zm-15.8 2.3c-1.1.5-2.7.9-3.5.9-1.3.1-1.3 0 0-.9.8-.5 2.4-.9 3.5-.9h2l-2 .9zm5.2-.4c-.3.3-1.2.4-1.9.1-.8-.3-.5-.6.6-.6 1.1-.1 1.7.2 1.3.5zm-13 2c-.9.9-14.7 3-14.7 2.2 0-.4.9-.8 1.9-.8 1.1 0 2.2-.4 2.5-.8.3-.5 2.8-.9 5.6-.9s4.9.1 4.7.3zm-18.2 3.3c-1.1.5-5.4 1.4-9.5 2-4.1.7-8.3 1.5-9.2 1.7-1 .3-1.8.1-1.8-.4 0-.8 15.3-3.7 20.5-4l2-.1-2 .8zm-23.3 4.2c-3.3 1.3-20.9 4.2-22.4 3.6-.7-.2.7-.7 3.2-1.2 2.5-.4 6.8-1.3 9.5-2 2.8-.8 6.6-1.4 8.5-1.4 3.1 0 3.3.1 1.2 1zm-25.7 4.9c-1.1.5-3.6.8-5.5.8-3.2 0-3.3-.1-1-.8 1.4-.4 3.9-.8 5.5-.8 2.5-.1 2.7.1 1 .8zm160.7 11.1c-.8.7-26.2 5.7-76.2 15-25.3 4.7-65.5 12.2-77.4 14.4-15.1 2.9-15.7 3-15 1 .7-1.7 3.9-2.6 18.9-5.4 6.1-1.1 15.7-2.9 21.5-4 27.9-5.3 66.3-12.3 83-15.1 10.2-1.7 20.5-3.5 23-4s6.7-1.2 9.5-1.5c2.7-.3 5.1-.8 5.3-.9.1-.2 2-.3 4.2-.2 2.2 0 3.6.4 3.2.7zM279.5 860c-.3.5-1 1-1.6 1-.5 0-.9-.5-.9-1 0-.6.7-1 1.6-1 .8 0 1.2.4.9 1zm18.2 11.6c-.3.3-1.2.4-1.9.1-.8-.3-.5-.6.6-.6 1.1-.1 1.7.2 1.3.5zm-133 9c-.3.3-1.2.4-1.9.1-.8-.3-.5-.6.6-.6 1.1-.1 1.7.2 1.3.5zm498 2.6c-.3.7-.5.2-.5-1.2s.2-1.9.5-1.3c.2.7.2 1.9 0 2.5zm1 4c-.3.8-.6.5-.6-.6-.1-1.1.2-1.7.5-1.3.3.3.4 1.2.1 1.9zm110 105c-.3.8-.6.5-.6-.6-.1-1.1.2-1.7.5-1.3.3.3.4 1.2.1 1.9zm-9.3.9c-.6 1.1-2.4.2-2.4-1.1 0-.5.7-.7 1.5-.4.8.4 1.2 1 .9 1.5z"/><path d="M366 435c-.9.6-1 1-.3 1 .6 0 1.5-.5 1.8-1 .8-1.2.4-1.2-1.5 0zm-2.5 21.6c.3 3.8.6 9.6.8 12.9.2 3.9.7 5.9 1.5 5.8.6-.2.9.4.6 1.2-.4.8-.1 1.5.6 1.5s1 .7.5 1.7c-.4 1.2-.3 1.4.3.8 1-1.1.4-7.5-.7-7.5-.3 0-.6-2.4-.5-5.3 0-2.8-.3-6.3-.8-7.6-.5-1.3-1.1-4-1.4-6-1-6.1-1.5-4.8-.9 2.5zM371 477c0 .5 1.1 1 2.4 1 1.4 0 2.8-.5 3.1-1 .4-.6-.7-1-2.4-1s-3.1.4-3.1 1zm284-34c0 .5.5 1 1 1 .6 0 1-.5 1-1 0-.6-.4-1-1-1-.5 0-1 .4-1 1zm42 29.4c0 .9.7 1.6 1.6 1.6.9 0 1.4-.5 1.2-1.2-.6-1.8-2.8-2.1-2.8-.4zm4.7 4.6c-.3 1.1-.1 2 .4 2s.9-.9.9-2-.2-2-.4-2-.6.9-.9 2zm17.1-.9c-2.5 1.4-2.3 4.9.2 4.9 1.6 0 2-.7 2-3 0-1.7-.1-3-.2-3-.2 0-1.1.5-2 1.1zm-13.3 2c-.5.7-.1 1.8 1.1 2.6 2.4 1.7 3.3-.2 1.1-2.4-1.1-1.2-1.6-1.2-2.2-.2zm-65.8 26.6c-.2.5-1 2.5-1.6 4.5-.9 2.6-2.7 4.8-6.4 7.5-10.8 7.8-18.7 14.4-18.7 15.7 0 2.4 4.3 2.7 6.5.6 1.2-1.1 2.7-2 3.5-2 .7 0 2.2-.8 3.2-1.7 1.1-1 3.9-1.7 7.5-1.9 4.6-.3 6.2-.8 8.7-3.2 1.7-1.6 3.6-2.8 4.3-2.5 1.4.5 5-1.7 12.1-7.3 3.3-2.7 3.3-2.7 1.4-4.6-1.1-1.1-4.2-2.2-7.8-2.8-3.2-.4-7.2-1.3-8.7-1.9-3.4-1.3-3.5-1.3-4-.4zm63.1 14.8c-.3.6 0 2.6.8 4.5.7 2.1 1.2 2.7 1.2 1.5 0-3.1-1.3-7.1-2-6zM599.5 521c.3.5.8 1 1.1 1 .2 0 .4-.5.4-1 0-.6-.5-1-1.1-1-.5 0-.7.4-.4 1zm0 3c-.6 1 3.3 4 5.2 4 2.6 0 2-1.8-1.2-3.3-1.9-.9-3.7-1.2-4-.7zm8.2 1.1c.7.7 1.5 1 1.8.7.3-.3-.2-.9-1.2-1.2-1.4-.6-1.5-.5-.6.5zm116.3 22c0 .5.5.7 1 .4.6-.3 1-.8 1-1.1 0-.2-.4-.4-1-.4-.5 0-1 .5-1 1.1zm-115.5.9c-1.7.6-1.7.8-.3 1.6.9.5 2.1 2 2.7 3.4.8 2.3.9 2.2.7-1.2-.2-4.4-.5-4.8-3.1-3.8zm113 1c-.3.5-.1 1 .4 1 .6 0 1.1-.5 1.1-1 0-.6-.2-1-.4-1-.3 0-.8.4-1.1 1zm1 10c-.3.5-.2 1 .4 1 .5 0 1.1 1 1.3 2.2l.3 2.3.7-2.2c.7-2.4-1.5-5.2-2.7-3.3zm-87.6 13.2c-1.6.6-2 1.4-1.5 3.1.3 1.2.6 4 .6 6.2.1 3.2.3 3.7 1.1 2.2.5-.9 1.7-1.7 2.4-1.7.8 0 1.5-.5 1.5-1 0-.6-.5-1-1-1-1.8 0-.7-6.3 1.2-6.8 1-.2 1.8-.7 1.8-1.1 0-.9-3.5-.8-6.1.1zm-8.3 12.6c-.7 1.3 0 4.6 1.1 4.9.5.2.8-.9.5-2.7-.4-3.1-.7-3.5-1.6-2.2zm24.9 7.2c-.4.6-1.4.8-2.4.5-.9-.3-2.6.2-3.7 1-1.8 1.3-1.7 1.4 1.8 1.5 2 0 3.8-.5 4-1.2.3-.8 1.4-.7 3.8.5 3.8 1.9 4.3 1.9 2.7-.4-1.6-2.1-5.3-3.3-6.2-1.9zm-27.5 1.1c0 .5.5.7 1 .4.6-.3 1-.8 1-1.1 0-.2-.4-.4-1-.4-.5 0-1 .5-1 1.1zm16 5.9c-1.3 1-2.9 1.6-3.5 1.4-.5-.2-2.6.9-4.5 2.5-3.7 3.2-2.5 4.2 2.4 2 1.8-.8 3.3-.9 5.5-.1 2.8 1 3.1.9 3.1-.9 0-1-.7-1.9-1.5-1.9-2 0-1.9-1 .2-2.6 1-.7 1.6-1.5 1.3-1.7-.3-.3-1.6.3-3 1.3zm10 .9c-3.9 1.1-1 1.9 4 1.1 2.5-.4 3.7-.8 2.8-.9-.9 0-2.2-.3-3-.5-.7-.2-2.4-.1-3.8.3zm34 .2c-1.2.8-.8.9 1.4.4 1.9-.4 3.2-.2 3.8.7.7 1 .9 1 .5-.2-.5-1.9-3.7-2.4-5.7-.9zm-66.5 2.9c-.4.6.3 1 1.4 1 2.5 0 2.7-.6.6-1.3-.8-.4-1.7-.2-2 .3zm64.5.4c0 .9.5 1.6 1 1.6.6 0 1-.4 1-.9 0-.6-.4-1.3-1-1.6-.5-.3-1 .1-1 .9zm-3 2.7c0 .5.5.7 1 .4.6-.3 1-.8 1-1.1 0-.2-.4-.4-1-.4-.5 0-1 .5-1 1.1zm-59.7 3.6c.9.2 1.7.9 1.7 1.4 0 .6.5.7 1 .4 1.9-1.2 1-2.5-1.7-2.4-1.7.1-2.1.3-1 .6zm49.3 4.9c-.4 1-.1 1.4.6 1.2 1.5-.5 2.3-2.8 1-2.8-.5 0-1.3.7-1.6 1.6zm14.2-.3c-6.2 2.8-9.5 8.6-4 7.2 2.9-.7 7.2-5 7.2-7.2 0-.7-.1-1.3-.2-1.2-.2 0-1.5.6-3 1.2zm-59.3 2.7c.8 3.2.8 3.2 3.6 2.1 1.7-.7 1.9-1 .7-1-1.9-.1-2.6-2.1-.8-2.1.6 0 1-.4 1-.9s-1.1-.8-2.5-.7c-2.2.1-2.5.4-2 2.6zm5.5-2c0 .5.5 1 1.1 1 .5 0 .7-.5.4-1-.3-.6-.8-1-1.1-1-.2 0-.4.4-.4 1zm40 2c-1.4.4-1.9.8-1.2.9 2 .2 1.4 2.1-.8 2.1-1 0-2.3.7-2.8 1.6-.5.8-2.2 2.4-3.8 3.5-1.8 1.2-2.3 1.9-1.3 1.9.9 0 3.7-1.6 6.2-3.5s5.2-3.4 5.9-3.3c.7.2 1.4-.7 1.6-2 .4-2.4.1-2.4-3.8-1.2zm20 .6c0 .8.5 1.2 1 .9.6-.4.8-1.1.5-1.6-.9-1.4-1.5-1.1-1.5.7zm-59 2.7c0 3 1.7 4.5 6.1 5.3 2.6.4 3 .3 1.9-.5-1-.7-1.1-1.1-.2-1.1 3.4 0-.6-4-5.5-5.5-2-.5-2.3-.3-2.3 1.8zm30.5.7c-.3.6.1.7.9.4 1.8-.7 2.1-1.4.7-1.4-.6 0-1.3.4-1.6 1zm-9.2 11.7c-3.1 1.2-.7 3 6.9 5.3 3.1 1 5-.6 2.1-1.7-1-.4-2.7-1.5-3.7-2.5-2-1.8-3.1-2.1-5.3-1.1zm-18.3 2.8c0 .8-.7 1.5-1.6 1.5-1.3 0-1.5.7-.9 4.2 1 6 2.1 7.7 4.5 7.1 1.1-.3 3.4 0 5.1.7 4 1.7 6.1 0 3.6-2.8-.9-1-1.7-2.4-1.7-3 0-.7-.5-1.2-1.1-1.2-.6 0-2-1-3.1-2.3-1.6-1.7-1.8-1.8-1.4-.4.3 1.1.2 1.6-.4 1.2-.6-.3-1-1.9-1-3.6 0-1.6-.4-2.9-1-2.9-.5 0-1 .7-1 1.5zm1 5.5c0 .5-.2 1-.4 1-.3 0-.8-.5-1.1-1-.3-.6-.1-1 .4-1 .6 0 1.1.4 1.1 1zm-13 0c-2.2.7-1 1.6 1.5 1 .6-.1 2-.2 3.3-.2 1.2 0 2.5-.4 2.8-.9.6-1.1-4.1-1-7.6.1zm20.4 26.1c-.3.5.9.9 2.5.9 1.7 0 3.1-.4 3.1-.9s-1.1-.9-2.5-.9-2.8.4-3.1.9zm-8.1 3.9c-2.4 1-2.9 3.5-1.3 6 .8 1.2 1 1.2 1.1-.5 0-1.7.1-1.8.7-.3s1.5 1.4 8.2-1.4c8.3-3.4 8.6-3.6 7.8-4.3-.2-.3-2.6.2-5.2 1.1-2.6.9-5 1.3-5.3 1-.4-.3.1-.6 1.1-.6.9 0 1.4-.5 1.1-1-.8-1.2-5.2-1.2-8.2 0zm90.4 7c.3 1.1.7 2 .9 2 .2 0 .4-.9.4-2s-.4-2-.9-2-.7.9-.4 2zm-60-218.3c-1.2 1.2-.7 3.3.8 3.3 1.7 0 1.9-.9.7-2.8-.5-.7-1.1-.9-1.5-.5zM445 495.1c0 .5.5.7 1 .4.6-.3 1-.8 1-1.1 0-.2-.4-.4-1-.4-.5 0-1 .5-1 1.1zm83.6 127.1c.8 2.4 2.1 4.8 2.8 5.3.8.6 1.6 1.9 1.9 3 .2 1.1.5.1.6-2.3 0-2.3-.3-4.2-.9-4.2-.5 0-1-.6-1-1.4 0-1.6-2.6-4.6-4-4.6-.5 0-.2 1.9.6 4.2zm5.6 11.5c-.9 1.5-.6 3 1.3 6.9 1.4 2.7 2.5 5.5 2.5 6.1 0 .7.4 1.3.9 1.3 1.1 0-.4-8.6-2.2-12.9-1.4-3.2-1.5-3.3-2.5-1.4zM458 357c-.1.3-.4 1.8-.6 3.5-.2 2.4-.1 2.7.7 1.2.6-1 .8-2.5.6-3.5-.3-.9-.6-1.5-.7-1.2zm7.9 2.7c-1.3 1.6-1.2 1.7.4.4 1.6-1.3 2.1-2.1 1.3-2.1-.2 0-1 .8-1.7 1.7zm-4.5 1.4c-.3.6-.2 1.5.3 2s.9.1.9-1.1c0-2.3-.2-2.4-1.2-.9zm4.1 6c-.4.6-.5 1.2-.2 1.5.2.3.7-.2 1-1.1.7-1.7.1-2-.8-.4zm25.5 2.6c0 1 .4 1.4.8.8.4-.6 1.1-1.3 1.6-1.8.5-.4.2-.7-.7-.7-1 0-1.7.8-1.7 1.7zm-27.9 1.9c0 1.1.3 1.4.6.6.3-.7.2-1.6-.1-1.9-.3-.4-.6.2-.5 1.3zm1.9-.6c0 .5.5 1 1 1 .6 0 1-.5 1-1 0-.6-.4-1-1-1-.5 0-1 .4-1 1zm3.8-.3c.6.2 1.2.9 1.2 1.4 0 .6-.6.7-1.2.3-1-.5-1-.3 0 .7 1.1 1.1 1.4 1.2 2.1.1.5-.8 1.1-1.3 1.5-1.3.3.1.9.1 1.4 0 1.2-.1-3.2-1.8-4.8-1.8-1 .1-1.1.2-.2.6zm6.7.4c-.4.6-.5 1.2-.2 1.5.2.3.7-.2 1-1.1.7-1.7.1-2-.8-.4zm323 1.9c.3.5.8 1 1.1 1 .2 0 .4-.5.4-1 0-.6-.5-1-1.1-1-.5 0-.7.4-.4 1zm-335 3c-.4.6-1 .8-1.5.5-.4-.3-.6.5-.2 1.7l.5 2.2.8-2.2c1-2.7 1.7-2.7 3.6-.5 1.3 1.6 1.3 1.6.3-.5-1.1-2.4-2.5-2.8-3.5-1.2zm-15.4 2.6c0 1.1.3 1.4.6.6.3-.7.2-1.6-.1-1.9-.3-.4-.6.2-.5 1.3zM815 378c-.8.5-1 1-.5 1 .6 0 1.7-.5 2.5-1s1.1-1 .5-1c-.5 0-1.7.5-2.5 1zm-359.9 1.6c0 1.1.3 1.4.6.6.3-.7.2-1.6-.1-1.9-.3-.4-.6.2-.5 1.3z"/><path d="M465.1 380.6c0 1.1.3 1.4.6.6.3-.7.2-1.6-.1-1.9-.3-.4-.6.2-.5 1.3zm330.6.5c-.4 1.6-.3 1.8.9.8.7-.6 1.1-1.5.8-2-.8-1.3-1.1-1.1-1.7 1.2zm3.3-1.1c0 .8.5 2.2 1 3 .9 1.3 1 1.3 1 0 0-.8-.5-2.2-1-3-.9-1.3-1-1.3-1 0zm-337.9 2.6c0 1.1.3 1.4.6.6.3-.7.2-1.6-.1-1.9-.3-.4-.6.2-.5 1.3zm340.9-1.1c0 .2 1 1 2.3 1.6 2 1.1 2.1 1.1.8-.4-1.3-1.6-3.1-2.3-3.1-1.2zm-398.9 5.7c.5 1 1.1 1.8 1.2 1.8.2 0 .3-.8.3-1.8s-.6-1.9-1.3-1.9c-.8 0-.9.6-.2 1.9zm409.4-.2c-.3.6.1.7.9.4 1.8-.7 2.1-1.4.7-1.4-.6 0-1.3.4-1.6 1zm0 4c-.3.6.1.7.9.4 1.8-.7 2.1-1.4.7-1.4-.6 0-1.3.4-1.6 1zm4.7 2.1c0 1.7.2 2.8.5 2.5.9-.9 1.2-5.6.4-5.6-.5 0-.8 1.4-.9 3.1zM389.5 392c-.4.6-1.1.7-1.7.4-.7-.4-.8-.2-.4.5.4.6 1.5.9 2.5.6 2.8-.8 2.4 3.6-.6 6.7-1.5 1.5-2.3 3.1-2 3.5.4.3.7.1.7-.5 0-.7.5-1.2 1-1.2.6 0 .9.5.8 1.1-.2.6.3 1.4 1.1 1.7.9.3 1.1 0 .6-.8-.5-.9-.4-1.1.4-.6 1.7 1.1 4.8-.2 4.8-1.9 0-.8-.4-1.5-.8-1.5-.5 0-.6-.8-.2-1.8.6-1.5.4-1.5-1.6.2-1.6 1.5-1.8 2.1-.9 2.8 1 .6.9.8-.3.8-2.6 0-3-1.2-.9-2.7 1.1-.8 2-2.4 2-3.6 0-2.5-3.5-5.3-4.5-3.7zm-7.8.7c-.3.5.6.9 2 1 1.9.1 2.2-.1 1.2-.8-1.7-1.1-2.6-1.1-3.2-.2zM811 394c0 .5.5 1 1 1 .6 0 1-.5 1-1 0-.6-.4-1-1-1-.5 0-1 .4-1 1z"/><path d="M384.8 397.8c-1.6.9-2.8 2.1-2.8 2.6 0 .4.6.4 1.3-.2.6-.6 1.6-1.1 2-1.1 1.1 0 4.1-3.1 3-3.1-.4 0-2 .8-3.5 1.8zm38.2-.3c0 .8.2 1.5.4 1.5s.6-.7 1-1.5c.3-.8.1-1.5-.4-1.5-.6 0-1 .7-1 1.5zm-6.6 1.9c-.3.8-.4 2.3-.2 3.3.3 1.1.6.6.9-1.5.6-3.4.2-4.2-.7-1.8zm-55.8.4c-.3.5.1.9.9.9s1.2-.4.9-.9c-.3-.4-.7-.8-.9-.8-.2 0-.6.4-.9.8zm53.5 2.4c0 .9-.4 2.5-.7 3.5-.5 1.7-.5 1.7.6 0 .6-1 .9-2.5.7-3.5-.4-1.5-.5-1.5-.6 0zm-12 3.5c0 1.3-.6 2.2-1.2 2-.6-.1-1.4.5-1.6 1.3-.4 1.3-.3 1.3.6 0 .9-1.3 1.1-1.2 1.1.5.1 1.9.1 1.9 1.1.2.6-1 .8-2.8.6-4l-.4-2.2-.2 2.2zM249 407c0 .5.5 1 1 1 .6 0 1-.5 1-1 0-.6-.4-1-1-1-.5 0-1 .4-1 1zm159.8 1.1c-1.5 1.6-1.5 1.9-.3 1.9.8 0 1.5-.5 1.5-1.1 0-.5.4-.7 1-.4.6.3.7-.1.4-.9-.3-.9-.7-1.6-.8-1.5 0 0-.9.9-1.8 2zm-133.3.9c.3.5.8 1 1.1 1 .2 0 .4-.5.4-1 0-.6-.5-1-1.1-1-.5 0-.7.4-.4 1zm448.5 3.1c0 .5.5.7 1 .4.6-.3 1-.8 1-1.1 0-.2-.4-.4-1-.4-.5 0-1 .5-1 1.1zm8.6 0c.6 1.1 4.4 1.2 4.4.1 0-.4-1.1-.8-2.5-.8-1.4-.1-2.2.2-1.9.7zm8 .4c.4.8 1.1 1.5 1.6 1.5.6 0 .5-.6-.2-1.5-.7-.8-1.4-1.5-1.6-1.5-.2 0-.1.7.2 1.5zM302 414c0 1.6.7 2 3 2s3-.4 3-2-.7-2-3-2-3 .4-3 2zm425.2-.5c-.7.8-.9 1.5-.4 1.5s1.5-.7 2.2-1.5c1.6-1.9-.1-1.9-1.8 0zm-372.4.2c.6.2 1.8.2 2.5 0 .6-.3.1-.5-1.3-.5-1.4 0-1.9.2-1.2.5zm395.7 1.3c-.3.5-.1 1 .4 1 .6 0 1.1-.5 1.1-1 0-.6-.2-1-.4-1-.3 0-.8.4-1.1 1zm-401.9 2.3c1.3 2.1 1.4 3 .4 4.2-.6.8-.9 2.3-.5 3.5.7 2.2 2.5 1.8 2.5-.6 0-.8-.4-1.2-1-.9-.5.3-.7 0-.4-.9.3-.8 1.2-1.2 1.9-1 1 .4 1.2-.1.8-1.8-.4-1.8-.3-2 .6-.8.7.9 1.1 1 1.1.3 0-1.6-1.7-2.6-2.5-1.3-.4.6-1.4.1-2.6-1.2l-2-2.3 1.7 2.8zm380.4-.8c0 .8.9 1.5 2 1.5 2.4 0 2.7-1.5.4-2.4-2.2-.9-2.4-.8-2.4.9zm-402 1.2c0 1.2 2.8 3.8 3.4 3.2.2-.2-.5-1.3-1.5-2.3-1.1-1.1-1.9-1.5-1.9-.9zm346 .3c0 1.3 1.8 2.2 2.4 1.1.3-.5-.1-1.1-.9-1.5-.8-.3-1.5-.1-1.5.4zm-263 3.1c0 1.7.4 2.8 1 2.4.6-.3 1-1.7 1-3.1 0-1.3-.4-2.4-1-2.4-.5 0-1 1.4-1 3.1zm244.8-1.4c.7.3 1.6.2 1.9-.1.4-.3-.2-.6-1.3-.5-1.1 0-1.4.3-.6.6zm3.7.3c-.3.6.1.7.9.4 1.8-.7 2.1-1.4.7-1.4-.6 0-1.3.4-1.6 1zM130 421c0 .5.5 1 1.1 1 .5 0 .7-.5.4-1-.3-.6-.8-1-1.1-1-.2 0-.4.4-.4 1zm-1.9 5.6c0 1.1.3 1.4.6.6.3-.7.2-1.6-.1-1.9-.3-.4-.6.2-.5 1.3zm44.9-.6c0 .5.5 1 1.1 1 .5 0 .7-.5.4-1-.3-.6-.8-1-1.1-1-.2 0-.4.4-.4 1zm-41.4 1.2c-1.1 3.4-1.7 7.2-1.1 6.6.8-.8 2.5-7.8 1.9-7.8-.3 0-.6.6-.8 1.2zm520-.3c-.4.5-.2 1.2.3 1.5.5.4 1.2.2 1.5-.3.4-.5.2-1.2-.3-1.5-.5-.4-1.2-.2-1.5.3zm-449.9 3c.3 1.2.9 2.1 1.3 2.1 1 0 2.2-3.1 1.5-3.8-.3-.3-.5 0-.5.8 0 1-.3 1-1.4.1-1.2-1-1.3-.8-.9.8zm-75.7 2.3c0 1.9.2 2 1 .8 1.3-1.9 1.3-3 0-3-.5 0-1 1-1 2.2zm71.1-1.3c-1.1.7-1.1 1 0 1.5s1.1.7.2 1.2c-.7.3-1.3 1.8-1.4 3.2 0 2.4-.1 2.5-.9.7-.7-1.6-.9-1.7-.9-.3-.1.9-.7 1.9-1.3 2.1-.7.3-.3.6.9.6 1.2.1 2.5.5 2.8 1.1.4.6-.1.7-1.1.3-1.2-.4-1.5-.3-1 .5.8 1.4-2.4 7.3-3.6 6.6-1.1-.7-1 0 .6 3.1l1.4 2.7 2.1-4c2.4-4.8 2.6-5.6.9-4.7-.7.4-.6 0 .3-.7 2-1.7 3.8-7.5 3.4-11.2-.4-3.4-.7-3.7-2.4-2.7zm497.9.1c0 .5.5 1 1 1 .6 0 1-.5 1-1 0-.6-.4-1-1-1-.5 0-1 .4-1 1zm-514.2 4c-1 1.7-1.2 3-.7 3 .6 0 1.3-.9 1.6-2 .3-1.1.9-2 1.4-2 .5 0 .9-.5.9-1 0-1.9-1.5-1-3.2 2zm-55.6 3c0 1.9.2 2.7.5 1.7.2-.9.2-2.5 0-3.5-.3-.9-.5-.1-.5 1.8z"/><path d="M186.6 439.5c-.3.8-.8 3.8-1.1 6.7-.5 4.4-.4 5 .6 3.3.7-1.1 2.6-3.2 4.3-4.7 3-2.6 3-2.7.6-2.1-1.4.4-2.9 1.1-3.3 1.7-.5.6-.6-.6-.3-2.7.5-3.9.2-4.8-.8-2.2zm515.5.1c0 1.1.3 1.4.6.6.3-.7.2-1.6-.1-1.9-.3-.4-.6.2-.5 1.3zm-1.5 5c-.4.9-.4 1.9-.1 2.2.2.3.7-.3 1.1-1.2.4-.9.4-1.9.1-2.2-.2-.3-.7.3-1.1 1.2zM128 496.5c0 2.8 1.7 3.2 4.5 1.2 2.3-1.7 1.2-3.7-2.1-3.7-1.9 0-2.4.5-2.4 2.5zm-2.8.5c0 1.4.2 1.9.5 1.2.2-.6.2-1.8 0-2.5-.3-.6-.5-.1-.5 1.3zm437.9 55.6c0 1.1.3 1.4.6.6.3-.7.2-1.6-.1-1.9-.3-.4-.6.2-.5 1.3zm-18 2c0 1.1.3 1.4.6.6.3-.7.2-1.6-.1-1.9-.3-.4-.6.2-.5 1.3zm1.4 5.8c.2 2.2 1 4.4 1.6 5 .9.8 1 .6.4-.9-.4-1.1-1.1-3.4-1.6-5-.8-2.7-.8-2.6-.4.9zM532 573c0 .5-.7.7-1.5.4-1.1-.4-1.5.1-1.5 1.7-.1 2.2-.2 2.3-1.4.7-1.8-2.4-2.7-1.2-1.4 1.8 1.1 2.4 2.8 3.3 2.8 1.5 0-.5 2-.8 4.5-.7 4.5.3 4.5.2 4.5-3.1 0-3.8-1.6-4.4-3-1.1l-.9 2.3v-2.3c-.1-2.1-2.1-3.3-2.1-1.2zm48.8 6.3c-.3 1.9-.2 2.5.4 1.9.6-.6.8-1.8.6-2.8-.3-1.4-.5-1.2-1 .9zm-2.8 5.2c0 .8.2 1.5.4 1.5s.6-.7 1-1.5c.3-.8.1-1.5-.4-1.5-.6 0-1 .7-1 1.5zM446.2 637c-1 1.6-1 2.9-.1 6 1 3.3.9 4.1-.6 5.6-1.4 1.4-1.8 1.5-2.5.3-1.4-2.1-1.8-1-3.1 8.6-.7 5-1.5 9.2-1.9 9.5-.4.3-.9 3-1.3 6-.6 6.5-4.2 19.9-6.7 25.5-1 2.2-2.2 5.3-2.5 7-1.7 7.7-5.9 18.8-8.1 21.5-.7.8-1.5 2.6-1.8 4-.5 3-3.4 8.7-4.6 9.5-.5.3-1.6 2-2.3 3.8-5.1 11.7-7.6 15.6-11.7 18.3-5.1 3.4-5.2 5.4-.5 5.4 5.4 0 14.5-5.3 14.5-8.5 0-1.9 4.2-3.3 6.8-2.4 1.3.5 2.8.6 3.4.3.5-.3 1.7.1 2.7 1 1 .9 3.4 1.9 5.4 2.3 2.8.4 3.7.1 4.6-1.5.6-1 .8-2.2.4-2.5-.3-.4 0-1.4.8-2.3.7-.9 1.4-2.6 1.5-3.7.2-3.3 1.5-6.7 2.5-6.7.5 0 .3-1.2-.3-2.6-1.1-2.3-1-2.9 1-4.4 1.3-1.1 2.2-2.9 2.2-4.5 0-1.5.7-5.4 1.5-8.7 1.7-6.4 1.9-7.7 3.5-21.3 1.2-10.9 2.7-42.5 2.5-51.5-.1-3.6.1-7.5.6-8.8.5-1.3.5-2.2-.1-2.2s-1.5-1.1-2-2.5c-1.2-3-2.1-3.1-3.8-.5zM403 658c0 1.6.2 3 .4 3s.6-1.4.8-3c.3-1.7.1-3-.4-3-.4 0-.8 1.3-.8 3zm9.3 39.9c-.7 1.2-1.3 3-1.3 4.1 0 1.1-.4 2-1 2-.5 0-1 1.1-1 2.4 0 1.4-.4 2.7-.9 3-1.1.7-2.3 8.4-1.5 9.8 1 1.6 2.4-1.4 1.7-3.9-.3-1.6-.1-2.3.9-2.3 2.4 0 5.4-7.9 4.8-12.8-.5-3.9-.6-4.1-1.7-2.3zm45.3 8.8c-1.2 1.3-.6 5.3.9 5.3.9 0 1.5-.9 1.5-2.4 0-2.6-1.2-4-2.4-2.9zm-54.9 17.8c-.9.8-1.7 1.1-2 .7-.2-.4-.2-.1-.1.6.2.6-.8 2.8-2.1 4.8-1.4 2-2.3 4-2 4.4.3.5-.1 1-.7 1.3-.7.2-1 .7-.7 1.1.4.4 1.7-.5 3-1.9 1.3-1.3 2.9-2.5 3.6-2.5 1.3 0 3.9-3.9 3.5-5.2-.1-.4.7-1.2 1.8-1.8 1.1-.6 1.8-1.5 1.5-2.1-.9-1.4-4.2-1.1-5.8.6zM275.6 941.9c-.4.7-.5 1.5-.2 1.8.9.9 1.9-.4 1.4-1.8-.4-1.1-.6-1.1-1.2 0zM664 974.1c1.1.8 1.2 1.2.3 1.6-.7.2-1.3.9-1.3 1.5s.6.6 1.5-.2c1.2-1 1.8-.8 3.5 1.1 1.9 2.3 1.9 2.3 2 .3 0-2.5-2.9-5.4-5.6-5.4-1.6 0-1.7.2-.4 1.1zm210 16.8c0 .5-1.2.8-2.7.7-2.6-.3-9 .9-12.8 2.4-3.3 1.2-10.7 3.1-14.8 3.6-8.6 1.1-8.2 2.3.8 2.3 6.2.1 8.5-.2 7.5-.9-.9-.6-1-1-.3-1 .6 0 1.5.5 1.9 1.1 1.2 2.1 11.6.3 13.9-2.3 1.4-1.6 2.9-2.2 4.8-2 2.3.3 2.7 0 2.7-2.2 0-1.4-.2-2.6-.5-2.6s-.5.4-.5.9z"/></svg>