<?xml version="1.0" standalone="no"?>
<!DOCTYPE svg PUBLIC "-//W3C//DTD SVG 20010904//EN"
 "http://www.w3.org/TR/2001/REC-SVG-20010904/DTD/svg10.dtd">
<svg version="1.0" xmlns="http://www.w3.org/2000/svg"
 width="1000.000000pt" height="1000.000000pt" viewBox="0 0 1000.000000 1000.000000"
 preserveAspectRatio="xMidYMid meet">
<metadata>
Created by potrace 1.14, written by Peter Selinger 2001-2017
</metadata>
<g transform="translate(0.000000,1000.000000) scale(0.100000,-0.100000)"
fill="#000000" stroke="none">
<path d="M1250 9776 l0 -223 60 -6 c33 -4 87 -4 120 0 52 5 60 4 60 -11 0 -12
10 -16 40 -16 29 0 40 -4 40 -15 0 -12 13 -15 60 -15 46 0 60 3 60 14 0 16 73
32 106 23 11 -3 0 -5 -23 -6 -39 -1 -43 -3 -43 -26 0 -25 1 -25 80 -25 47 0
80 -4 80 -10 0 -6 33 -10 80 -10 73 0 80 -2 80 -20 0 -17 7 -20 40 -20 22 0
40 -4 40 -10 0 -5 18 -10 40 -10 29 0 40 -4 40 -15 0 -11 11 -15 40 -15 29 0
40 4 40 15 0 12 16 15 80 15 52 0 80 -4 80 -11 0 -7 17 -10 45 -7 25 2 45 0
45 -3 0 -4 8 -9 18 -12 9 -2 25 -8 36 -12 16 -7 17 -5 11 16 -7 21 -6 22 9 7
9 -9 21 -29 26 -44 10 -24 12 -25 28 -11 19 18 52 6 52 -18 0 -23 17 -18 23 6
4 15 11 20 22 15 9 -3 32 -6 51 -6 24 0 34 -5 34 -15 0 -12 16 -15 80 -15 64
0 80 3 80 15 0 11 11 15 40 15 38 0 40 -2 40 -30 l0 -30 81 0 81 0 -4 -27 c-4
-27 -3 -28 39 -24 29 2 43 8 43 17 0 10 12 14 40 14 22 0 40 -5 40 -10 0 -6 9
-21 21 -33 19 -21 21 -21 33 -4 16 21 26 22 26 2 0 -12 16 -15 80 -15 47 0 80
-4 80 -10 0 -5 18 -10 40 -10 38 0 40 -2 40 -30 l0 -30 160 0 c136 0 160 2
160 15 0 11 -11 15 -42 15 -23 0 -39 3 -35 6 3 3 40 3 81 -1 55 -5 76 -11 76
-21 0 -11 19 -14 80 -14 47 0 80 -4 80 -10 0 -6 33 -10 80 -10 64 0 80 -3 80
-15 0 -11 11 -15 40 -15 36 0 40 3 40 25 0 23 4 25 40 25 22 0 40 -4 40 -10 0
-5 18 -10 40 -10 29 0 40 -4 40 -15 0 -12 20 -15 120 -15 100 0 120 3 120 15
0 11 11 15 40 15 36 0 40 3 40 24 0 22 -5 25 -42 29 l-43 4 43 1 c30 1 42 6
42 17 0 21 18 19 32 -5 10 -16 21 -19 68 -16 30 2 38 1 18 -1 -37 -4 -38 -6
-38 -43 0 -21 -5 -40 -12 -42 -9 -3 -9 -6 0 -12 7 -4 12 -2 12 3 0 14 37 14
45 1 14 -23 35 -7 52 40 18 52 35 62 52 33 10 -17 10 -17 11 0 0 13 9 17 40
17 29 0 40 4 40 15 0 12 16 15 80 15 75 0 80 -1 80 -21 0 -15 4 -19 16 -15 9
3 27 6 40 6 15 0 24 6 24 15 0 11 12 15 49 15 41 0 53 4 69 25 26 33 58 32 90
-2 16 -18 27 -23 30 -15 2 7 21 12 43 12 35 0 39 -3 39 -25 0 -14 -4 -25 -10
-25 -5 0 -10 -4 -10 -9 0 -9 93 -2 98 8 1 3 22 5 47 3 39 -4 48 -1 70 26 23
27 29 29 72 24 27 -3 50 -8 53 -12 3 -5 40 -11 83 -15 55 -5 77 -11 77 -21 0
-10 13 -14 40 -14 22 0 40 5 40 10 0 6 18 10 40 10 33 0 40 -3 40 -20 0 -18 7
-20 80 -20 47 0 80 -4 80 -10 0 -6 33 -10 80 -10 47 0 80 -4 80 -10 0 -5 18
-10 40 -10 39 0 40 -1 41 -37 0 -21 4 -56 8 -78 8 -39 9 -39 10 -7 2 46 18 39
24 -10 3 -24 12 -65 20 -93 8 -27 17 -99 20 -160 25 -461 46 -619 46 -345 0
96 0 191 1 210 l1 35 14 -25 c14 -24 14 -23 15 32 0 31 3 64 7 74 4 11 2 15
-4 11 -7 -4 -9 26 -5 91 4 94 10 121 19 95 5 -15 63 -18 63 -3 0 6 18 10 40
10 22 0 40 -4 40 -10 0 -5 18 -10 39 -10 29 0 41 -5 44 -17 3 -10 6 -2 7 17 2
19 6 -3 11 -50 14 -156 38 -473 50 -652 7 -98 16 -178 19 -178 4 0 10 -9 13
-20 3 -13 11 -18 20 -14 10 3 18 -2 21 -14 7 -22 77 -32 239 -32 57 0 96 -4
92 -9 -10 -17 57 -41 112 -41 29 0 53 -5 53 -10 0 -6 8 -5 20 2 16 10 24 10
40 0 11 -6 38 -12 60 -12 30 0 40 -4 40 -16 0 -14 8 -16 48 -12 39 4 51 1 72
-19 29 -27 40 -29 40 -8 0 20 3 19 44 -9 27 -18 56 -26 116 -31 74 -7 98 -17
68 -28 -7 -3 0 -10 17 -16 59 -24 95 -43 95 -52 0 -5 14 -9 30 -9 20 0 30 -5
30 -15 0 -8 6 -15 14 -15 8 0 21 -3 30 -6 15 -6 16 106 16 1215 l0 1221 -3750
0 -3750 0 0 -224z m1465 -376 c3 -5 -1 -10 -9 -10 -9 0 -16 5 -16 10 0 6 4 10
9 10 6 0 13 -4 16 -10z m25 -50 c0 -5 -4 -10 -10 -10 -5 0 -10 5 -10 10 0 6 5
10 10 10 6 0 10 -4 10 -10z m808 -138 c2 -7 -6 -12 -17 -12 -21 0 -27 11 -14
24 9 9 26 2 31 -12z m1142 -2 c0 -5 -5 -10 -11 -10 -5 0 -7 5 -4 10 3 6 8 10
11 10 2 0 4 -4 4 -10z m935 0 c3 -5 -3 -10 -15 -10 -12 0 -18 5 -15 10 3 6 10
10 15 10 5 0 12 -4 15 -10z m264 -6 c2 -2 -19 -4 -47 -4 -29 0 -52 4 -52 9 0
8 90 3 99 -5z m106 6 c3 -5 -1 -10 -9 -10 -9 0 -16 5 -16 10 0 6 4 10 9 10 6
0 13 -4 16 -10z m438 -57 c-13 -2 -33 -2 -45 0 -13 2 -3 4 22 4 25 0 35 -2 23
-4z m-1773 -23 c0 -5 -4 -10 -10 -10 -5 0 -10 5 -10 10 0 6 5 10 10 10 6 0 10
-4 10 -10z m130 0 c0 -5 -4 -10 -10 -10 -5 0 -10 5 -10 10 0 6 5 10 10 10 6 0
10 -4 10 -10z m-917 -7 c-13 -2 -33 -2 -45 0 -13 2 -3 4 22 4 25 0 35 -2 23
-4z m460 0 c-24 -2 -62 -2 -85 0 -24 2 -5 4 42 4 47 0 66 -2 43 -4z m2614
-155 c-3 -7 -5 -2 -5 12 0 14 2 19 5 13 2 -7 2 -19 0 -25z m40 -70 c-2 -13 -4
-3 -4 22 0 25 2 35 4 23 2 -13 2 -33 0 -45z m226 -15 c-24 -2 -62 -2 -85 0
-24 2 -5 4 42 4 47 0 66 -2 43 -4z"/>
<path d="M1890 9425 c0 -11 11 -15 40 -15 29 0 40 4 40 15 0 11 -11 15 -40 15
-29 0 -40 -4 -40 -15z"/>
<path d="M2370 9350 c0 -5 18 -10 40 -10 22 0 40 5 40 10 0 6 -18 10 -40 10
-22 0 -40 -4 -40 -10z"/>
<path d="M2509 9340 c13 -11 28 -20 35 -19 7 0 7 2 -1 6 -7 2 -13 11 -13 19 0
8 -10 14 -22 14 l-23 -1 24 -19z"/>
<path d="M3382 9188 c6 -18 28 -21 28 -4 0 9 -7 16 -16 16 -9 0 -14 -5 -12
-12z"/>
<path d="M7315 8770 c-3 -5 -2 -10 4 -10 5 0 12 -10 14 -22 4 -20 4 -20 6 4 1
28 -13 45 -24 28z"/>
<path d="M3560 7896 c0 -9 5 -16 10 -16 6 0 10 4 10 9 0 6 -4 13 -10 16 -5 3
-10 -1 -10 -9z"/>
<path d="M5283 7755 c-3 -9 -3 -18 -1 -21 3 -3 8 4 11 16 6 23 -1 27 -10 5z"/>
<path d="M4843 7413 c-14 -5 -18 -33 -5 -33 4 0 13 9 20 20 12 20 8 23 -15 13z"/>
<path d="M4723 7303 c9 -2 25 -2 35 0 9 3 1 5 -18 5 -19 0 -27 -2 -17 -5z"/>
<path d="M4600 7179 c-66 -34 -81 -38 -130 -34 -37 3 -47 2 -30 -4 l25 -8 -27
-8 c-16 -4 -28 -10 -28 -15 0 -4 -18 -15 -40 -25 -22 -10 -40 -23 -40 -30 0
-11 -25 -26 -65 -40 -19 -6 -19 -7 -2 -20 12 -9 18 -23 15 -42 -2 -20 1 -28
12 -28 22 0 70 -40 70 -59 0 -9 6 -16 14 -16 8 0 24 -12 35 -27 21 -25 24 -26
69 -15 35 8 49 7 55 -1 6 -9 10 -9 14 1 2 6 13 12 24 12 10 0 19 7 19 15 0 9
8 19 18 22 9 4 28 15 41 25 30 23 38 23 44 1 4 -17 5 -17 6 -1 2 27 72 41 199
40 61 0 112 3 112 8 0 4 15 8 34 8 38 0 56 8 56 23 0 6 -4 8 -9 5 -5 -3 -12 5
-15 19 -4 14 -12 25 -19 25 -18 0 -109 99 -102 110 3 6 -2 10 -12 10 -14 0
-15 2 -5 9 18 11 -7 21 -53 21 -67 0 -95 11 -95 36 0 23 -3 24 -57 23 -46 -1
-74 -10 -133 -40z"/>
<path d="M8696 6805 c-8 -8 -18 -15 -23 -15 -5 0 -19 -8 -33 -17 -13 -9 -32
-18 -42 -18 -10 -1 -29 -12 -43 -25 -14 -13 -25 -19 -26 -14 0 5 -4 -1 -10
-14 -6 -17 -14 -22 -28 -17 -14 4 -23 0 -31 -15 -7 -12 -18 -19 -25 -16 -8 3
-17 1 -20 -4 -4 -6 3 -10 14 -10 12 0 21 -4 21 -10 0 -5 -6 -10 -14 -10 -8 0
-18 -10 -22 -22 -3 -13 -15 -46 -25 -74 -17 -46 -22 -51 -44 -46 -21 4 -25 0
-25 -19 0 -12 -6 -30 -13 -38 -7 -9 -19 -35 -27 -58 -9 -30 -19 -43 -32 -43
-10 0 -18 -4 -18 -8 0 -5 -10 -14 -22 -20 -20 -9 -17 -10 18 -7 37 3 41 1 37
-15 -3 -12 -11 -16 -20 -13 -11 4 -14 0 -11 -13 3 -15 10 -18 38 -16 30 3 36
0 36 -17 0 -16 -7 -21 -29 -21 -15 0 -26 4 -23 9 3 5 -2 12 -11 15 -9 4 -20 1
-25 -6 -12 -19 -10 -28 6 -22 8 3 16 1 19 -3 5 -8 -15 -9 -60 -4 -7 0 -10 7
-7 14 3 9 -4 13 -26 11 -27 -2 -30 1 -26 22 3 14 1 22 -5 19 -5 -4 -9 -13 -9
-21 0 -8 -4 -13 -10 -9 -5 3 -7 13 -4 23 4 13 3 13 -7 -2 -10 -16 -9 -21 4
-31 13 -9 14 -14 4 -25 -10 -10 -8 -12 11 -7 12 3 20 1 16 -4 -5 -9 15 -14 46
-11 8 1 125 3 260 6 262 4 258 3 -63 -15 -241 -14 -266 -31 -42 -30 98 1 144
-2 140 -9 -4 -6 -59 -10 -138 -11 -73 0 -124 -4 -114 -8 10 -4 18 -11 18 -16
-1 -6 7 -10 17 -10 9 0 16 6 14 13 -1 8 5 12 15 10 10 -2 19 -12 21 -22 2 -10
0 -16 -5 -13 -5 3 -15 2 -23 -4 -10 -6 -11 -9 -2 -9 6 0 12 -4 12 -10 0 -14
-37 -12 -43 3 -4 9 -6 9 -6 0 -1 -6 4 -15 9 -18 6 -3 10 -13 10 -22 0 -14 -4
-13 -23 5 -55 52 -131 9 -108 -61 14 -41 58 -85 97 -97 25 -7 26 -8 6 -9 -85
-3 -159 132 -103 188 19 19 19 20 -19 26 -22 4 -47 2 -59 -4 -11 -6 -31 -11
-44 -11 -14 0 -30 -7 -37 -15 -9 -11 -22 -14 -42 -10 -24 6 -28 3 -28 -14 0
-13 -10 -26 -25 -33 -14 -6 -27 -23 -30 -39 -4 -16 -15 -31 -27 -35 -14 -4
-19 -12 -16 -29 4 -18 1 -22 -11 -17 -13 4 -13 2 2 -15 10 -11 15 -27 11 -37
-3 -9 -1 -23 6 -31 11 -13 8 -15 -20 -15 -26 0 -31 3 -26 16 5 13 4 14 -7 6
-10 -9 -17 -8 -27 1 -10 10 -11 9 -5 -2 5 -9 4 -12 -3 -7 -7 4 -12 13 -12 19
1 18 50 75 50 58 0 -11 4 -9 15 5 20 27 18 47 -6 63 -16 9 -19 15 -10 21 9 5
6 9 -9 13 -21 5 -22 3 -17 -41 3 -26 2 -56 -3 -67 l-9 -20 -1 20 c-2 11 -2 25
-1 31 1 6 -6 17 -14 24 -14 12 -16 -4 -11 -166 3 -136 2 -160 -5 -99 -7 64
-13 113 -19 153 0 1 -7 2 -15 2 -20 0 -19 30 2 45 16 12 16 16 3 40 -8 15 -16
22 -18 16 -2 -5 -10 -7 -18 -4 -8 3 -14 -1 -14 -11 0 -9 5 -16 11 -16 8 0 8
-4 -1 -15 -6 -8 -9 -19 -5 -25 9 -14 -5 -100 -16 -100 -5 0 -9 15 -9 33 0 17
-3 42 -6 55 -5 18 -9 20 -21 10 -12 -10 -17 -9 -24 4 -6 11 -22 15 -63 13 -32
-1 -54 3 -53 8 2 12 -41 37 -65 37 -10 0 -18 -5 -18 -11 0 -6 7 -9 15 -5 13 4
12 1 -1 -20 -12 -17 -22 -23 -33 -18 -37 16 -64 17 -59 3 3 -8 11 -13 17 -11
6 1 11 -5 11 -13 0 -18 -11 -19 -43 -4 -17 8 -30 8 -43 1 -14 -8 -21 -6 -30 6
-7 10 -16 14 -20 9 -4 -4 -3 -12 3 -18 6 -6 9 -17 7 -24 -3 -7 5 -15 18 -19
19 -5 20 -8 8 -16 -11 -7 -18 -5 -27 6 -20 27 -46 9 -41 -27 3 -16 1 -32 -4
-35 -14 -9 -9 -26 6 -21 8 3 16 -2 19 -13 3 -11 0 -17 -7 -14 -7 3 -12 -12
-13 -40 -1 -25 -10 -54 -20 -65 -9 -11 -18 -39 -19 -61 -1 -23 -5 -44 -9 -48
-11 -12 -25 23 -25 66 0 38 -2 42 -25 42 -33 0 -49 31 -30 56 19 25 19 35 0
28 -10 -4 -13 -2 -10 8 3 8 -4 23 -15 33 -17 15 -23 17 -30 6 -6 -10 -12 -7
-25 12 -16 26 -18 26 -41 9 -13 -9 -21 -23 -19 -30 3 -7 0 -10 -5 -7 -6 3 -10
2 -10 -3 0 -5 -9 -12 -20 -15 -30 -8 -24 -24 10 -32 36 -8 46 -21 30 -40 -14
-17 -95 -21 -104 -6 -9 14 14 18 56 11 21 -4 35 -3 32 1 -3 5 -10 9 -16 9 -5
0 -25 7 -43 16 l-33 16 39 35 c23 21 38 42 35 50 -4 10 -2 11 11 5 11 -7 21
-5 31 4 20 21 10 38 -23 39 -21 0 -33 7 -42 25 -7 14 -20 24 -30 23 -10 -1
-12 0 -5 3 19 9 14 24 -8 24 -11 0 -20 -4 -20 -9 0 -21 13 -41 26 -41 8 0 14
-9 14 -20 0 -13 -7 -20 -20 -20 -13 0 -22 -9 -26 -25 -3 -14 -14 -30 -24 -35
-24 -13 -27 -13 -33 4 -4 10 -1 13 9 9 10 -4 12 0 8 11 -4 11 -13 14 -24 11
-14 -5 -17 -2 -13 13 6 25 -12 37 -29 19 -11 -12 -16 -10 -32 17 -11 17 -19
35 -18 39 1 5 -2 6 -8 2 -6 -4 -7 -12 -2 -18 4 -7 14 -25 20 -41 l13 -28 -38
6 c-21 4 -43 14 -49 22 -10 13 -12 13 -18 -1 -7 -20 -66 -21 -66 -1 0 9 7 12
19 9 20 -5 54 23 48 41 -2 6 6 16 17 22 14 7 20 19 19 37 -1 15 2 25 6 23 4
-3 14 14 22 37 20 53 9 103 -26 119 -14 6 -25 20 -25 30 0 11 4 17 9 14 5 -3
15 2 22 12 12 15 12 16 -2 4 -14 -10 -18 -10 -23 3 -3 8 -2 15 2 15 4 0 8 11
8 25 1 14 -2 25 -7 25 -5 0 -9 9 -9 19 0 11 -5 23 -10 26 -6 4 -8 11 -5 16 4
5 1 9 -5 9 -6 0 -9 4 -6 8 3 5 -5 18 -17 29 -12 11 -30 34 -39 52 -10 19 -25
31 -37 31 -11 0 -23 5 -27 12 -5 8 -2 9 9 5 27 -10 30 12 5 32 -13 11 -48 32
-78 48 -30 15 -75 43 -99 61 -41 31 -49 33 -95 28 -119 -12 -187 -25 -267 -49
-80 -26 -87 -31 -147 -97 -114 -127 -148 -257 -88 -346 15 -23 28 -54 30 -68
1 -15 11 -32 20 -39 16 -12 15 -13 -13 -11 -17 1 -31 -2 -31 -6 0 -4 -7 -11
-16 -14 -20 -8 -46 22 -40 47 2 9 0 17 -4 17 -18 0 -19 -19 -5 -60 8 -24 13
-45 10 -48 -7 -8 -35 19 -35 34 0 8 -4 14 -9 14 -5 0 -12 11 -15 25 -4 14 -13
25 -21 25 -11 0 -12 6 -4 30 6 17 15 30 20 30 5 0 9 7 9 15 0 8 -4 15 -9 15
-5 0 -17 3 -27 7 -13 5 -16 3 -11 -10 5 -12 1 -17 -12 -17 -15 0 -21 -10 -26
-42 l-7 -42 -44 84 c-23 47 -47 94 -52 106 -14 28 -102 114 -118 114 -7 0 -19
6 -27 14 -22 23 -148 57 -197 55 -54 -3 -152 -31 -185 -53 -27 -18 -55 -12
-55 13 -1 9 -9 -1 -19 -22 -9 -20 -20 -35 -23 -31 -4 3 -4 -3 -1 -14 4 -17 1
-20 -16 -15 -16 4 -21 1 -21 -13 0 -16 2 -17 10 -4 5 8 10 11 10 5 0 -5 -23
-31 -51 -58 -34 -32 -49 -41 -44 -28 4 14 2 21 -7 21 -9 0 -9 3 -2 8 6 4 14
14 18 22 3 8 4 5 2 -8 -3 -15 0 -22 7 -19 7 2 11 12 9 21 -2 10 2 24 9 32 7 9
8 14 1 14 -6 0 -12 -6 -15 -12 -2 -8 -11 0 -20 17 l-17 30 6 -37 c7 -41 0 -46
-30 -23 -11 9 -16 20 -12 31 4 12 2 15 -9 10 -10 -3 -15 1 -15 12 0 14 -2 15
-10 2 -6 -10 -4 -21 8 -34 14 -15 14 -20 3 -24 -7 -2 -22 -13 -32 -23 -28 -28
-36 -23 -9 6 19 21 21 25 7 30 -8 4 -29 -1 -46 -9 -16 -9 -43 -16 -59 -16 -15
0 -37 -7 -48 -16 -18 -14 -18 -15 4 -4 21 10 23 9 20 -7 -2 -11 -12 -18 -25
-18 -13 0 -27 -6 -33 -13 -7 -8 -7 -9 1 -3 6 5 39 3 77 -4 105 -21 105 -20 97
-74 -4 -25 -9 -48 -11 -50 -8 -9 -54 23 -59 40 -5 16 -9 17 -26 6 -10 -6 -19
-18 -19 -25 0 -8 -16 -29 -35 -48 -23 -22 -30 -34 -20 -34 33 0 13 -19 -27
-26 -40 -6 -41 -8 -20 -17 29 -13 25 -34 -10 -55 -35 -21 -50 -6 -18 18 l24
18 -28 -5 c-25 -5 -27 -3 -21 16 4 13 2 21 -5 21 -6 0 -9 -4 -6 -9 3 -5 0 -11
-7 -14 -7 -3 -19 -24 -26 -47 -14 -49 -28 -48 -46 2 -10 31 -10 41 2 58 13 18
12 21 -4 27 -10 4 -21 11 -25 17 -5 7 -8 6 -8 -3 0 -24 -53 -132 -60 -124 -10
11 0 84 11 77 19 -11 13 43 -7 63 -12 13 -14 12 -14 -1 0 -13 -4 -12 -20 4
-11 11 -25 20 -31 20 -8 0 -8 4 0 13 8 11 5 13 -19 9 -34 -5 -31 -32 5 -32 26
0 52 -25 36 -35 -6 -3 -19 -1 -30 5 -26 13 -97 13 -123 -1 -32 -17 -35 -1 -4
28 22 20 30 23 37 12 4 -7 11 -11 14 -7 3 3 -1 13 -9 21 -12 12 -13 17 -3 20
6 3 -2 6 -19 6 -19 1 -34 -5 -37 -13 -3 -8 -16 -16 -29 -18 -18 -2 -24 -11
-28 -37 l-5 -34 -14 26 c-7 14 -11 34 -7 44 5 16 4 15 -10 -2 -16 -20 -16 -20
-11 3 3 13 3 21 0 18 -9 -8 -33 21 -34 41 0 16 -1 16 -8 -2 -5 -12 -3 -25 6
-33 7 -7 13 -15 13 -16 0 -6 -40 1 -47 9 -5 4 -2 5 4 1 9 -5 11 -2 6 10 -6 15
-7 15 -15 -1 -15 -25 -2 -47 24 -41 13 3 17 3 10 0 -6 -3 -10 -10 -6 -15 3 -5
0 -9 -6 -9 -18 0 -70 -40 -70 -53 0 -8 3 -8 9 1 5 9 8 4 7 -16 -1 -17 -4 -28
-7 -26 -4 2 -9 -5 -12 -16 -3 -11 -4 -20 -2 -20 12 0 55 25 55 32 0 4 5 8 10
8 22 0 8 -26 -25 -48 -24 -15 -35 -30 -35 -47 0 -13 -4 -27 -10 -30 -6 -4 -10
7 -10 24 0 17 -5 31 -11 31 -6 0 -9 -7 -5 -15 5 -14 2 -13 -24 0 -17 9 -30 23
-31 33 0 10 -3 12 -6 5 -8 -22 -24 -14 -18 10 3 12 2 34 -3 47 -8 22 -9 20 -9
-15 0 -26 -8 -53 -24 -77 -28 -43 -39 -47 -39 -15 0 33 -11 67 -21 67 -5 0
-10 -10 -10 -22 -1 -17 -2 -19 -6 -5 -6 23 -16 21 -28 -5 -12 -28 -41 -31 -37
-5 5 26 -47 69 -76 64 -28 -5 -40 17 -25 43 9 13 7 19 -8 28 -30 19 -37 15
-89 -40 l-49 -53 -1 48 0 47 -39 0 c-22 0 -41 5 -43 11 -2 6 -14 8 -31 4 -28
-7 -35 -19 -17 -30 17 -10 11 -32 -10 -38 -11 -3 -20 -12 -20 -20 0 -18 -57
-34 -71 -20 -6 6 -6 20 1 37 14 39 13 44 -15 44 -20 0 -27 -8 -37 -39 -14 -47
-34 -50 -43 -6 -4 17 -12 38 -17 45 -12 13 -32 17 -24 4 3 -5 1 -26 -5 -47 -8
-28 -14 -34 -22 -26 -16 16 -30 14 -24 -3 7 -18 -18 -42 -28 -27 -3 6 -1 19 5
30 16 31 12 81 -11 118 -16 26 -24 31 -30 21 -7 -11 -12 -11 -30 0 -11 7 -23
11 -26 9 -2 -3 1 -33 8 -66 6 -34 10 -64 7 -67 -9 -8 -38 8 -38 22 0 7 -6 11
-14 8 -10 -4 -14 -20 -13 -52 2 -35 -2 -47 -13 -47 -8 0 -16 -10 -18 -22 -2
-12 -10 -27 -19 -34 -13 -11 -17 -10 -28 4 -7 9 -21 17 -31 17 -15 0 -16 -2
-5 -9 8 -5 11 -16 8 -25 -10 -26 -27 -18 -27 14 0 32 -19 80 -31 80 -4 0 -10
-13 -14 -30 -8 -34 -37 -41 -54 -12 -10 16 -12 16 -25 0 -7 -10 -18 -18 -25
-18 -6 0 -11 -9 -11 -20 0 -11 -4 -20 -8 -20 -5 0 -9 27 -9 60 -1 33 2 58 7
55 4 -2 5 8 2 23 l-5 27 -9 -30 c-5 -16 -8 -61 -7 -100 1 -38 0 -117 -1 -175
-2 -85 -4 -97 -11 -65 -4 22 -8 68 -8 103 -1 38 -5 62 -12 62 -7 0 -9 15 -5
43 3 23 3 35 0 27 -3 -8 -12 -29 -19 -46 -12 -25 -55 -200 -55 -220 0 -4 9 1
20 11 17 16 20 16 20 2 0 -9 -5 -19 -11 -23 -6 -3 -8 -17 -4 -33 6 -25 5 -25
-11 -9 -16 16 -18 16 -30 0 -21 -28 -23 -10 -9 58 15 67 19 110 8 80 -3 -8
-12 -23 -20 -32 -14 -16 -17 -16 -44 4 -27 20 -31 21 -45 6 -14 -14 -14 -17 1
-32 10 -9 14 -20 11 -23 -4 -4 -16 3 -28 14 -33 34 -36 113 -5 193 20 54 22
67 11 78 -11 10 -13 7 -8 -18 4 -18 2 -30 -4 -30 -6 0 -14 -9 -17 -20 -4 -13
-21 -24 -51 -31 -36 -9 -44 -16 -44 -34 0 -12 -7 -28 -15 -35 -9 -7 -13 -15
-11 -17 3 -3 17 7 33 21 29 27 53 34 53 16 0 -6 -7 -13 -16 -17 -10 -4 -14
-13 -10 -26 3 -12 -3 -31 -16 -46 -18 -23 -20 -24 -14 -4 4 12 2 24 -4 28 -5
3 -10 1 -10 -4 0 -14 -67 -14 -75 0 -4 5 9 31 29 56 25 32 33 50 26 58 -14 17
-2 25 42 25 21 0 38 4 38 9 0 4 -12 6 -27 3 -25 -5 -26 -3 -20 26 7 37 0 62
-18 62 -7 0 -29 -11 -49 -25 -20 -14 -40 -25 -44 -25 -4 0 0 5 8 10 12 8 13
13 2 27 -7 10 -15 26 -18 36 -4 9 -9 17 -13 17 -7 0 -31 -49 -31 -64 0 -16
-51 -37 -64 -27 -6 4 -43 9 -83 9 -39 1 -75 3 -80 4 -11 4 -53 -39 -45 -47 4
-3 2 -9 -4 -13 -21 -14 -35 -100 -41 -249 l-6 -153 168 -2 c128 -2 169 -6 173
-16 3 -10 -21 -13 -114 -12 -66 1 -143 1 -171 1 l-53 -1 2 -67 c0 -38 3 -53 5
-35 5 35 23 45 23 12 0 -14 7 -20 23 -20 29 0 47 -18 47 -47 0 -27 -41 -47
-77 -38 l-23 5 0 -1445 0 -1445 23 5 c27 7 309 49 467 70 63 9 176 27 250 40
74 13 169 29 210 34 41 6 116 15 165 22 50 6 115 18 145 25 30 8 68 14 86 14
17 0 89 9 160 20 71 12 176 27 234 35 58 8 146 22 195 30 168 29 200 34 315
50 179 24 394 57 408 62 6 3 12 17 12 32 0 14 11 55 24 91 90 251 87 241 82
315 -3 39 -9 126 -12 195 -3 69 -8 126 -9 128 -2 2 1 18 6 35 6 22 5 33 -4 39
-6 4 -7 8 -2 8 6 0 9 25 8 59 -2 44 2 61 12 65 8 3 12 12 9 21 -3 8 -11 12
-17 8 -6 -3 -7 -1 -3 6 4 6 12 9 17 6 9 -6 11 -1 13 28 1 6 4 14 8 17 9 7 13
124 4 138 -11 18 4 54 19 48 27 -10 34 110 8 130 -17 12 -17 15 -1 61 10 28
13 49 8 51 -6 2 -10 19 -10 37 0 39 -17 56 -23 23 -2 -13 -3 9 -1 47 3 67 3
68 -7 25 -5 -25 -15 -80 -21 -123 -9 -64 -9 -80 2 -87 11 -7 10 -12 -5 -26
-17 -18 -18 -11 -13 201 2 121 2 234 -2 250 l-6 30 -8 -38 c-4 -21 -11 -35
-17 -32 -5 4 -9 0 -9 -8 0 -8 -7 -17 -15 -21 -8 -3 -12 -11 -10 -18 3 -7 -7
-19 -22 -25 -31 -15 -63 -17 -63 -4 0 5 -17 0 -37 -10 -21 -11 -51 -19 -68
-18 -16 1 -49 -4 -72 -11 -39 -12 -45 -11 -63 5 -13 12 -20 30 -19 54 1 30 2
32 8 13 5 -21 9 -16 26 33 25 74 77 148 206 293 145 164 235 249 294 276 54
26 157 65 190 71 26 6 97 37 112 50 7 5 19 16 27 22 23 19 26 1 9 -48 -47
-137 34 -308 180 -375 58 -27 70 -29 187 -28 114 0 132 3 206 31 93 35 185 94
234 149 48 55 83 140 77 187 -6 40 -2 44 22 23 9 -8 71 -32 137 -54 151 -49
200 -81 241 -159 42 -81 81 -272 86 -425 1 -42 5 -74 8 -73 9 6 37 -86 50
-165 6 -41 22 -110 35 -153 13 -43 24 -91 24 -107 0 -16 8 -45 17 -65 9 -19
15 -36 12 -38 -8 -6 -169 -57 -179 -57 -17 0 -11 42 8 56 15 12 15 13 -10 14
-15 0 -30 -4 -33 -10 -3 -5 -10 -10 -16 -10 -15 0 -10 64 7 88 10 15 14 40 13
80 -2 31 1 74 5 95 9 41 -6 53 -19 15 -8 -23 -8 -23 -12 3 -2 14 0 44 5 66 10
42 1 80 -11 49 -12 -30 -27 -16 -27 24 0 22 5 40 10 40 12 0 13 57 1 64 -5 3
-11 -4 -14 -16 -4 -12 -9 -19 -13 -15 -4 3 1 25 10 47 17 42 34 183 18 145 -9
-19 -9 -19 -20 0 -9 16 -11 17 -12 4 0 -9 -9 -19 -19 -22 -11 -2 -21 -13 -24
-23 -2 -11 -3 -2 -2 19 3 28 -2 44 -16 58 -18 18 -20 32 -18 114 2 52 0 97 -3
101 -12 11 -28 -71 -29 -151 -2 -89 -10 -139 -23 -139 -5 -1 -19 22 -32 49
-27 60 -29 45 -9 -94 8 -57 13 -106 10 -109 -2 -2 -11 -2 -20 2 -11 4 -15 16
-14 38 4 53 0 88 -10 88 -6 0 -5 -15 1 -36 8 -30 7 -40 -6 -52 -12 -12 -16
-13 -16 -3 0 7 -6 11 -12 8 -8 -2 -22 15 -34 41 -16 35 -22 41 -27 28 -4 -10
-3 -15 3 -11 13 8 12 5 -1 -34 -6 -17 -8 -39 -3 -49 12 -28 10 -37 -10 -42
-16 -5 -19 -15 -20 -59 -1 -39 -5 -56 -16 -59 -13 -4 -13 -3 -2 10 9 11 10 18
2 23 -5 3 -10 3 -10 -2 0 -4 -5 -15 -10 -23 -8 -13 -11 -12 -23 4 -13 18 -14
18 -19 -12 -2 -17 -1 -29 3 -27 4 3 9 -2 12 -10 5 -12 -4 -13 -53 -9 l-58 5
-6 -30 c-20 -105 -18 -99 -28 -72 -4 13 -7 38 -6 55 1 18 -1 37 -5 43 -4 6 0
10 10 9 10 -1 17 9 20 28 6 42 41 116 58 123 20 7 19 26 -3 46 -16 14 -19 14
-40 -8 -13 -14 -21 -29 -17 -35 3 -6 0 -7 -9 -4 -11 4 -16 0 -16 -15 0 -12 -4
-21 -9 -21 -6 0 -8 -9 -6 -20 4 -19 -6 -25 -30 -20 -5 1 -2 -7 8 -18 16 -18
16 -19 -8 -30 -27 -12 -34 -49 -14 -69 6 -6 11 -28 11 -49 0 -46 7 -62 19 -43
5 8 7 -6 5 -35 -1 -26 2 -53 8 -60 12 -12 13 -182 2 -233 -10 -42 -46 -48 -46
-8 0 14 -4 25 -10 25 -5 0 -10 7 -10 15 0 8 -7 15 -16 15 -11 0 -14 -6 -9 -21
10 -31 -16 -150 -35 -157 -8 -3 -27 -14 -42 -24 -16 -11 -32 -17 -36 -14 -15
9 -82 -17 -82 -31 0 -9 -13 -13 -40 -13 -34 0 -40 -3 -45 -25 -17 -83 -17 -83
-30 -30 -6 27 -14 45 -17 40 -22 -36 -29 -218 -10 -264 11 -29 11 -35 -2 -50
-12 -13 -13 -20 -4 -29 9 -9 9 -21 0 -50 -7 -22 -12 -48 -12 -60 0 -11 -7 -33
-15 -48 -8 -16 -15 -46 -15 -66 0 -21 -4 -38 -8 -38 -15 0 -30 -90 -22 -125 6
-25 4 -38 -6 -46 -8 -6 -14 -22 -14 -35 0 -13 -4 -24 -10 -24 -5 0 -10 -20
-10 -44 0 -25 -4 -47 -9 -50 -11 -7 -51 -88 -51 -104 0 -7 -4 -12 -10 -12 -5
0 -10 -7 -10 -15 0 -9 -18 -38 -40 -66 -22 -28 -40 -57 -40 -64 0 -14 -31 -28
-98 -45 -23 -6 -40 -15 -37 -21 10 -15 -21 -22 -44 -10 -26 14 -141 18 -161 6
-11 -7 -5 -11 25 -17 22 -4 85 -16 140 -27 105 -20 149 -24 415 -41 91 -6 179
-15 195 -20 17 -5 109 -10 205 -11 275 -2 272 -2 263 42 -4 20 -19 32 -74 57
-38 18 -72 32 -74 32 -3 0 -17 11 -32 24 -25 24 -25 24 -4 31 23 7 29 25 7 25
-7 0 -19 7 -26 15 -9 10 -9 15 -1 15 6 0 11 5 11 10 0 6 -13 10 -29 10 -16 0
-34 7 -41 15 -12 14 -8 15 28 9 38 -6 42 -5 42 15 0 23 -18 61 -35 73 -5 4 -2
10 8 14 22 8 57 -21 57 -47 0 -12 5 -16 15 -13 10 4 15 0 15 -15 0 -12 5 -21
10 -21 6 0 10 -6 10 -13 0 -8 16 -28 35 -46 19 -17 35 -40 35 -49 0 -10 16
-33 36 -50 19 -17 33 -36 30 -41 -4 -5 2 -25 12 -43 19 -33 20 -33 93 -34 92
-1 98 -2 76 -15 -26 -15 -197 -37 -226 -29 -14 3 -49 3 -78 -1 -46 -6 -518 -5
-518 1 0 7 -228 36 -348 43 -77 5 -87 4 -77 -8 7 -8 9 -15 4 -15 -19 0 22 -20
42 -20 12 0 37 -7 55 -16 33 -14 29 -15 -76 -10 -248 12 -397 45 -474 105
l-24 18 17 51 c10 29 22 54 27 57 5 4 2 19 -6 36 -12 21 -13 34 -5 48 9 17 15
71 7 71 -1 0 -68 -11 -147 -25 -509 -90 -654 -115 -1395 -240 -143 -24 -298
-51 -345 -59 -47 -8 -186 -31 -310 -51 -124 -19 -267 -42 -317 -51 l-93 -16 0
-374 0 -374 50 0 c28 0 67 7 87 15 19 8 47 15 62 15 15 0 51 6 81 14 30 7 88
16 129 19 74 5 74 4 50 -14 l-24 -19 23 0 c22 0 31 -23 12 -35 -13 -8 -13 -45
-1 -45 6 0 11 -19 13 -42 3 -38 6 -43 28 -45 14 -1 19 0 13 3 -7 3 -13 23 -13
45 0 28 -4 39 -15 39 -8 0 -15 5 -15 10 0 6 9 10 19 10 12 0 23 11 30 30 5 17
15 30 20 30 19 0 12 18 -9 25 -11 3 -20 10 -20 14 0 11 67 41 91 41 11 0 34 7
51 16 17 9 39 14 49 11 10 -3 26 1 36 9 10 7 42 14 71 14 31 0 63 7 77 16 14
9 32 13 41 10 9 -3 21 -3 26 0 6 4 79 7 162 7 83 0 158 4 166 9 64 38 360 87
360 60 0 -12 -29 -24 -41 -16 -15 9 -9 -10 10 -33 11 -13 29 -23 40 -23 16 0
21 -6 21 -25 0 -16 6 -25 15 -25 8 0 15 -7 15 -15 0 -8 -7 -15 -16 -15 -14 0
-15 -11 -11 -82 3 -46 3 -73 1 -60 -6 25 -14 28 -32 10 -17 -17 -15 -45 6 -60
14 -11 17 -29 17 -117 l0 -104 -37 -37 c-21 -20 -38 -43 -38 -51 0 -8 -8 -19
-19 -26 -15 -9 -17 -20 -13 -62 3 -34 1 -51 -7 -51 -6 0 -11 -17 -11 -40 0
-29 -4 -40 -15 -40 -23 0 -18 -20 10 -42 21 -16 25 -28 25 -69 0 -27 -4 -49
-9 -49 -5 0 -12 -34 -16 -76 -7 -73 -8 -77 -52 -120 -25 -24 -50 -44 -54 -44
-5 0 -9 -18 -9 -40 l0 -40 1959 0 1958 0 7 135 c8 134 6 181 -16 406 -9 103
-9 119 6 140 9 14 16 43 16 71 0 25 5 59 11 75 6 15 10 62 10 103 -1 41 3 81
8 89 5 7 5 27 1 42 -5 16 -5 29 -1 29 11 0 23 -78 15 -92 -5 -7 -2 -8 5 -3 9
5 12 1 10 -11 -1 -11 3 -37 9 -59 6 -22 19 -87 27 -145 15 -95 24 -120 91
-257 46 -94 93 -175 124 -212 55 -66 70 -97 70 -142 0 -16 4 -48 10 -71 5 -24
12 -55 15 -71 l5 -27 615 1 c436 0 615 4 617 11 3 7 32 13 66 14 34 1 65 4 69
7 4 2 40 14 78 27 39 12 74 26 80 31 5 5 15 9 23 9 7 0 33 9 56 20 24 11 62
22 85 26 l41 7 0 1423 c0 783 -2 1424 -4 1424 -2 0 -82 -12 -178 -26 -95 -14
-218 -31 -273 -39 -55 -7 -257 -36 -450 -64 -192 -28 -353 -51 -357 -51 -15 0
-8 23 33 117 27 61 49 98 63 104 12 5 93 18 181 30 88 11 203 27 255 35 52 8
160 21 240 30 201 21 192 20 320 38 63 9 127 18 143 22 l27 6 0 1473 0 1474
-33 4 -32 4 33 1 32 2 0 330 c0 319 -1 330 -19 330 -11 0 -26 -7 -35 -15z
m-2580 -520 c4 -9 19 -15 35 -15 16 0 29 -5 29 -11 0 -6 -10 -9 -22 -6 -13 3
-32 1 -43 -3 l-20 -9 20 -1 c15 -1 12 -5 -12 -16 -54 -23 -37 -64 26 -64 19 0
31 -3 28 -7 -4 -3 -2 -12 4 -20 9 -10 3 -13 -30 -13 -24 0 -40 4 -36 9 7 12
-12 24 -25 16 -8 -5 -8 -11 0 -20 13 -16 -36 -29 -102 -26 -38 2 -58 -4 -109
-34 -34 -20 -75 -39 -91 -42 -15 -3 -31 -10 -34 -14 -3 -5 -10 -7 -15 -4 -25
16 6 146 48 195 50 60 153 98 271 99 56 1 74 -2 78 -14z m2344 -5 c-8 -5 -24
-10 -35 -10 -19 -1 -19 -1 -2 -14 19 -15 23 -41 6 -52 -8 -4 -9 0 -4 15 5 16
3 20 -8 15 -10 -4 -14 2 -14 20 0 25 11 33 52 35 16 1 17 -1 5 -9z m-97 -46
c3 -4 1 -16 -5 -27 -9 -18 -11 -19 -20 -4 -13 25 6 49 25 31z m360 -121 c-13
-2 -35 -2 -50 0 -16 2 -5 4 22 4 28 0 40 -2 28 -4z m-120 -10 c-7 -2 -19 -2
-25 0 -7 3 -2 5 12 5 14 0 19 -2 13 -5z m-4238 -13 c3 -5 1 -10 -4 -10 -6 0
-11 5 -11 10 0 6 2 10 4 10 3 0 8 -4 11 -10z m4037 -7 c-19 -4 -21 -7 -11 -19
9 -11 7 -14 -10 -14 -11 0 -21 6 -21 13 0 20 11 27 39 26 25 -2 25 -2 3 -6z
m-62 -29 c0 -8 -4 -14 -10 -14 -5 0 -10 9 -10 21 0 11 5 17 10 14 6 -3 10 -13
10 -21z m200 -5 c0 -11 -4 -17 -10 -14 -5 3 -10 15 -10 26 0 11 5 17 10 14 6
-3 10 -15 10 -26z m40 -5 c0 -8 -4 -14 -10 -14 -5 0 -10 9 -10 21 0 11 5 17
10 14 6 -3 10 -13 10 -21z m-130 2 c0 -8 6 -17 13 -20 6 -3 3 -5 -8 -3 -20 2
-35 37 -16 37 6 0 11 -6 11 -14z m-2110 -38 c0 -6 -7 -5 -15 2 -8 7 -15 17
-15 22 0 6 7 5 15 -2 8 -7 15 -17 15 -22z m17 0 c-3 -7 -5 -2 -5 12 0 14 2 19
5 13 2 -7 2 -19 0 -25z m2040 26 c-3 -3 -12 -4 -19 -1 -8 3 -5 6 6 6 11 1 17
-2 13 -5z m230 -10 c-3 -3 -12 -4 -19 -1 -8 3 -5 6 6 6 11 1 17 -2 13 -5z
m-550 -20 c-3 -3 -12 -4 -19 -1 -8 3 -5 6 6 6 11 1 17 -2 13 -5z m-1701 -41
c4 -16 15 -47 25 -69 20 -45 40 -152 29 -159 -3 -2 -12 23 -19 56 -8 33 -16
57 -19 55 -9 -10 -34 25 -36 49 0 14 -4 25 -8 25 -4 0 -3 12 2 26 6 14 8 30 4
35 -3 5 -1 9 5 9 6 0 14 -12 17 -27z m1823 12 c-1 -5 -10 -9 -19 -7 -23 4 -33
-33 -14 -49 8 -7 12 -14 9 -17 -2 -3 -11 1 -20 8 -15 13 -21 61 -8 74 11 10
54 3 52 -9z m91 -44 c0 -34 -6 -56 -20 -72 l-20 -24 16 39 c10 26 14 53 10 79
-4 25 -3 36 4 32 5 -3 10 -28 10 -54z m-3387 -3 c19 -19 15 -29 -26 -73 -21
-22 -42 -50 -47 -62 -10 -25 -4 -53 13 -53 6 0 -10 -14 -35 -30 -44 -29 -48
-30 -92 -18 -53 14 -57 27 -21 74 14 18 25 44 25 57 0 29 45 77 71 77 11 0 27
9 36 20 20 23 58 26 76 8z m-1093 -8 c0 -5 -16 -20 -36 -34 -35 -23 -35 -25
-15 -35 15 -9 26 -9 42 -1 11 7 23 9 27 6 3 -3 0 -6 -7 -6 -8 0 -10 -7 -6 -20
5 -16 2 -20 -14 -20 -12 0 -21 5 -21 10 0 6 -11 15 -24 21 -15 7 -23 20 -23
35 0 13 3 21 8 18 5 -3 21 4 35 15 30 24 34 25 34 11z m4402 -22 c-7 -7 -10
-5 -7 8 5 29 6 30 12 16 3 -8 1 -18 -5 -24z m-1691 5 c12 -16 12 -17 -1 -7 -8
6 -22 14 -30 17 -13 5 -12 6 1 6 9 1 23 -7 30 -16z m-532 -59 c-9 -11 -15 -12
-25 -3 -19 16 -18 25 9 52 l22 22 3 -28 c2 -16 -2 -35 -9 -43z m-2299 13 c0
-7 -9 -13 -20 -13 -23 0 -25 7 -8 24 13 13 28 7 28 -11z m2245 4 c-3 -6 -11
-11 -16 -11 -5 0 -4 6 3 14 14 16 24 13 13 -3z m-300 -1 c3 -5 1 -10 -4 -10
-6 0 -11 5 -11 10 0 6 2 10 4 10 3 0 8 -4 11 -10z m-1632 -13 c3 -7 -3 -13
-14 -13 -13 0 -15 3 -7 13 6 7 12 13 13 13 2 0 5 -6 8 -13z m1680 6 c4 -3 2
-12 -4 -19 -6 -8 -9 -34 -7 -59 2 -25 0 -45 -3 -45 -7 0 -19 80 -17 113 1 17
19 23 31 10z m82 -33 c18 0 18 -2 4 -34 -7 -14 -17 -22 -25 -19 -19 7 -30 -43
-13 -63 17 -21 39 -85 33 -96 -10 -16 -22 -7 -33 24 -13 37 -13 38 -49 -36
-26 -50 -28 -59 -15 -72 13 -12 12 -14 -1 -14 -8 0 -18 4 -21 10 -4 6 -13 5
-25 -2 -28 -18 -37 -2 -11 19 20 17 21 19 6 41 -9 12 -23 22 -31 22 -8 0 -14
5 -14 10 0 18 23 11 51 -16 l27 -26 24 51 c12 28 27 51 32 51 4 0 4 6 -2 13
-7 8 -9 35 -5 70 5 48 8 55 20 45 10 -8 17 -8 25 0 9 9 9 12 0 12 -7 0 -12 10
-12 23 1 20 2 20 11 5 5 -10 17 -18 24 -18z m50 20 c3 -5 -3 -10 -15 -10 -12
0 -18 5 -15 10 3 6 10 10 15 10 5 0 12 -4 15 -10z m-1948 -22 c3 6 9 10 14 6
5 -3 9 0 9 6 0 6 5 8 10 5 7 -4 6 -13 -1 -27 -6 -11 -12 -39 -14 -61 -3 -43
-25 -66 -25 -26 0 22 0 22 -14 3 -17 -22 -21 -19 -30 21 -4 19 -3 25 2 17 12
-17 22 16 17 55 -3 26 -2 26 12 8 11 -14 17 -16 20 -7z m2613 18 c0 -3 -4 -8
-10 -11 -5 -3 -10 -1 -10 4 0 6 5 11 10 11 6 0 10 -2 10 -4z m1598 -7 l87 -3
-72 -3 -73 -4 0 -35 c0 -19 -4 -33 -9 -30 -13 8 -42 -29 -36 -45 4 -10 -1 -15
-15 -15 -14 0 -20 7 -21 26 l-1 25 -7 -25 c-5 -18 -13 -24 -27 -22 -27 5 -28
8 -14 44 16 40 35 62 28 33 -4 -18 -1 -21 24 -19 35 3 58 20 58 45 0 17 -7 19
-55 17 l-55 -2 -17 -51 c-10 -27 -18 -56 -18 -62 0 -25 -19 -18 -26 10 -4 15
-5 27 -3 27 2 0 7 0 10 -1 4 0 16 22 29 48 l22 48 51 -2 c29 0 91 -2 140 -4z
m-2118 -13 c0 -15 -24 -28 -34 -19 -7 7 13 33 25 33 5 0 9 -6 9 -14z m2131
-33 c-21 -4 -23 -9 -18 -40 4 -21 3 -32 -2 -27 -9 9 -14 37 -12 62 0 7 13 11
29 11 25 -2 25 -2 3 -6z m-4301 -19 c0 -8 -4 -12 -10 -9 -5 3 -10 10 -10 16 0
5 5 9 10 9 6 0 10 -7 10 -16z m460 -14 c-12 -22 -41 -40 -64 -40 -19 0 -22 20
-3 20 6 0 23 9 37 20 32 25 43 25 30 0z m3882 8 c-7 -7 -12 -20 -12 -30 0 -23
-16 -24 -24 -2 -4 9 -5 17 -4 18 2 1 12 6 23 13 26 15 32 16 17 1z m-1657 -8
c3 -5 1 -10 -4 -10 -6 0 -11 5 -11 10 0 6 2 10 4 10 3 0 8 -4 11 -10z m1555
-19 c0 -14 -18 -23 -30 -16 -6 4 -8 11 -5 16 8 12 35 12 35 0z m-3480 -11 c0
-5 -6 -10 -13 -10 -22 0 -45 -32 -50 -70 l-4 -35 -1 40 c-2 47 20 85 49 85 10
0 19 -4 19 -10z m3267 -5 c7 -21 -4 -32 -19 -17 -7 7 -31 12 -55 12 -24 0 -43
5 -43 10 0 6 25 10 55 10 41 0 57 -4 62 -15z m-4354 -19 c4 -10 1 -13 -9 -9
-7 3 -14 9 -14 14 0 14 17 10 23 -5z m387 -27 c0 -5 -9 -19 -20 -31 -31 -34
-62 -127 -67 -204 -5 -63 -3 -74 15 -92 11 -11 18 -23 15 -26 -12 -12 -21 -5
-34 27 -19 44 -14 141 10 211 12 32 18 62 15 67 -3 5 0 17 6 26 9 15 10 14 5
-7 -6 -24 -6 -24 18 5 14 16 23 34 20 39 -4 5 -1 6 5 2 7 -4 12 -12 12 -17z
m3934 12 c7 -11 -22 -23 -35 -15 -12 7 -11 -13 2 -38 8 -15 8 -23 -2 -32 -9
-8 -10 -8 -5 1 3 6 2 14 -4 18 -16 10 -11 53 8 64 21 13 29 13 36 2z m473 3
c-3 -3 -12 -4 -19 -1 -8 3 -5 6 6 6 11 1 17 -2 13 -5z m-4537 -24 l22 -12 -25
-13 c-21 -11 -54 -18 -107 -25 -3 0 10 -8 28 -17 24 -12 32 -21 29 -35 -3 -10
-1 -21 5 -24 5 -3 6 -19 3 -34 -3 -16 -2 -46 4 -67 5 -21 12 -68 16 -105 l7
-68 42 0 c51 0 65 13 126 119 47 81 46 86 -22 97 -69 12 -39 23 42 17 52 -4
84 -2 93 5 10 9 12 4 9 -24 -3 -27 -8 -33 -21 -29 -12 4 -23 -6 -39 -34 -12
-21 -22 -44 -22 -51 0 -6 -11 -26 -24 -43 -14 -18 -41 -62 -60 -99 -45 -82
-90 -133 -109 -121 -8 4 -27 23 -42 41 -30 36 -52 41 -62 15 -11 -28 -36 -43
-62 -37 -22 5 -23 3 -11 -11 16 -19 6 -31 -32 -40 -21 -5 -29 -2 -38 14 -6 12
-15 21 -21 21 -13 0 -7 -89 7 -94 10 -4 10 -90 -1 -134 -3 -13 -1 -30 6 -38 9
-11 8 -24 -6 -59 -14 -37 -15 -49 -4 -61 15 -18 -2 -171 -28 -257 -9 -29 -17
-59 -18 -67 -2 -8 -20 -64 -40 -125 -21 -60 -38 -117 -38 -125 0 -8 -3 -17 -6
-20 -13 -11 -31 -51 -31 -69 0 -11 -5 -23 -11 -26 -6 -4 -8 -14 -5 -22 3 -8 1
-11 -4 -8 -13 8 -3 120 17 195 8 30 30 105 48 165 19 61 48 164 65 230 31 119
31 121 24 299 l-7 178 -66 -6 c-43 -4 -59 -3 -46 3 11 5 41 10 67 10 46 1 46
1 53 41 9 53 29 73 66 65 l29 -7 0 54 c0 61 11 78 52 78 l27 0 -6 68 c-3 37
-10 69 -15 70 -5 2 -4 9 1 16 6 7 8 22 4 35 -5 21 -6 21 -24 -8 -10 -17 -23
-31 -28 -31 -11 0 -31 54 -31 83 0 27 17 10 22 -21 1 -12 7 -23 13 -23 10 0
55 128 47 136 -7 7 20 36 43 45 25 10 66 5 95 -10z m607 5 c3 -9 -4 -44 -15
-78 -15 -44 -22 -57 -27 -45 -4 10 0 39 9 65 9 25 14 49 11 51 -3 3 -19 -5
-36 -17 -33 -25 -44 -25 -26 0 27 36 74 49 84 24z m2899 -2 c19 -25 17 -53 -6
-90 l-20 -33 22 0 c16 0 19 -3 11 -11 -7 -7 -19 -8 -30 -4 -10 4 -28 7 -40 6
-22 -2 -36 12 -38 40 -1 11 5 14 22 11 13 -2 26 -9 29 -14 9 -15 44 23 44 47
0 31 -28 54 -41 34 -14 -22 -11 -29 11 -29 11 0 20 -4 20 -10 0 -16 -36 -12
-50 5 -10 12 -10 21 -2 40 14 29 49 33 68 8z m54 -35 c0 -27 15 -39 22 -18 6
20 48 -31 48 -58 0 -28 -34 -60 -45 -42 -3 5 4 14 15 20 21 11 25 27 12 48
-10 16 -45 4 -38 -13 5 -14 -10 -42 -19 -33 -3 3 -8 39 -11 79 -4 54 -3 70 5
59 6 -8 11 -27 11 -42z m-3325 32 c8 -14 -17 -140 -28 -140 -10 0 -4 71 9 104
6 16 5 17 -15 6 -32 -17 -41 -2 -12 21 26 21 37 24 46 9z m2675 0 c8 -5 11
-10 5 -10 -5 0 -2 -7 9 -15 21 -16 15 -45 -8 -45 -10 0 -13 6 -10 15 4 10 0
15 -14 15 -11 0 -22 8 -25 19 -8 31 13 41 43 21z m170 6 c0 -2 -7 -7 -16 -10
-8 -3 -12 -2 -9 4 6 10 25 14 25 6z m-5147 -13 c-7 -3 -13 -13 -13 -24 0 -14
-7 -19 -25 -19 -18 0 -25 5 -25 19 0 19 13 25 55 28 11 0 14 -1 8 -4z m3048
-3 c10 -6 19 -18 19 -26 0 -9 13 -28 29 -43 15 -14 31 -37 35 -49 7 -22 -10
-92 -22 -92 -22 0 -60 -53 -66 -90 -5 -32 -10 -41 -22 -36 -14 5 -15 -6 -9
-97 4 -56 11 -109 15 -117 4 -8 7 -65 6 -126 l-2 -112 38 -17 c20 -9 47 -29
58 -45 11 -16 30 -32 42 -36 12 -4 28 -13 36 -20 7 -8 27 -14 43 -14 17 0 28
-4 25 -8 -3 -5 0 -9 7 -9 7 0 21 -4 32 -7 15 -5 15 -4 -2 5 -30 16 -29 29 2
29 16 0 25 -6 25 -15 0 -15 11 -19 39 -16 7 2 10 -2 7 -8 -13 -21 -138 -51
-210 -51 -90 0 -154 28 -214 94 -54 58 -60 75 -68 184 l-7 89 35 39 c19 21 40
48 46 60 19 36 26 169 12 252 -16 103 -18 108 -32 94 -15 -15 -58 -16 -58 -2
0 6 -19 10 -42 10 -42 0 -44 14 -3 22 12 2 20 12 21 23 3 49 4 51 14 35 5 -8
7 -23 4 -32 -3 -10 -1 -18 5 -18 6 0 11 5 11 10 0 6 7 10 16 10 13 0 15 -6 9
-27 -9 -39 13 -16 24 25 7 22 6 32 -2 35 -9 3 -9 10 1 26 6 11 12 27 12 36 0
9 6 12 16 8 10 -4 17 1 21 16 6 23 24 27 54 11z m1379 -21 c0 -5 -4 -9 -10 -9
-5 0 -10 7 -10 16 0 8 5 12 10 9 6 -3 10 -10 10 -16z m376 6 c9 -23 -3 -45
-21 -38 -12 4 -13 8 -5 13 9 5 9 9 1 14 -16 10 -13 26 4 26 9 0 18 -7 21 -15z
m-1925 -22 c-8 -15 -10 -15 -11 -2 0 17 10 32 18 25 2 -3 -1 -13 -7 -23z
m1504 17 c3 -5 -1 -10 -10 -10 -9 0 -13 5 -10 10 3 6 8 10 10 10 2 0 7 -4 10
-10z m-4480 -20 c3 -5 2 -10 -4 -10 -6 0 -8 -6 -5 -14 3 -8 0 -24 -6 -36 -6
-12 -13 -37 -15 -56 -4 -45 -54 -90 -70 -64 -3 6 -2 10 4 10 6 0 6 11 0 32 -7
24 -5 36 7 49 12 13 12 19 3 25 -9 5 -8 10 3 18 8 6 15 15 16 20 1 8 39 33 54
35 4 1 10 -3 13 -9z m4975 -12 c0 -6 6 -5 15 2 21 17 44 5 56 -29 8 -21 18
-31 37 -33 46 -5 36 -25 -14 -26 -25 0 -83 -6 -129 -13 -79 -11 -83 -13 -79
-36 5 -27 38 -63 57 -63 8 0 7 4 -3 11 -11 8 -12 12 -2 16 6 2 12 16 12 31 0
37 9 22 14 -24 2 -26 14 -51 36 -76 30 -33 38 -37 104 -43 39 -4 88 -14 109
-22 36 -15 72 -14 112 2 20 8 20 8 1 -13 -11 -12 -14 -22 -8 -22 6 0 17 -3 26
-6 10 -4 16 -1 16 7 0 19 47 76 55 67 4 -4 -2 -19 -14 -34 -11 -15 -21 -33
-21 -40 0 -19 79 -39 94 -23 8 9 7 11 -5 6 -10 -3 -26 3 -38 14 -24 23 -26 30
-9 47 20 20 47 13 62 -15 l15 -28 1 35 c1 30 2 32 11 17 6 -10 9 -27 6 -38 -4
-14 0 -19 14 -19 11 0 22 -6 25 -14 6 -16 46 -11 91 12 37 19 39 18 46 -25 6
-40 14 -53 33 -53 8 0 14 -5 14 -11 0 -5 -3 -8 -7 -6 -19 10 -50 20 -67 22
-11 1 -27 12 -37 24 -13 16 -25 21 -39 16 -33 -10 -24 -28 51 -94 38 -35 81
-80 94 -100 52 -78 61 -86 81 -71 17 14 17 14 2 -8 -15 -22 -14 -27 13 -79 34
-65 61 -101 79 -105 21 -5 81 -70 96 -104 19 -46 27 -124 16 -171 -8 -34 -7
-45 5 -54 8 -7 21 -26 30 -43 8 -17 24 -38 35 -47 12 -9 20 -28 20 -45 1 -72
20 -128 101 -301 15 -33 3 -38 -40 -18 -29 14 -60 18 -133 17 -137 -2 -127 -1
-112 -11 9 -5 -11 -10 -53 -13 -49 -4 -72 -11 -89 -27 -12 -12 -33 -21 -47
-20 -23 1 -22 1 5 9 15 5 36 15 45 23 9 8 38 22 65 31 46 16 88 35 76 36 -15
0 -112 -31 -153 -50 -27 -12 -51 -19 -54 -16 -4 3 -1 6 5 6 9 0 9 5 0 20 -17
27 -2 49 50 75 23 11 41 22 42 25 0 4 -18 6 -39 5 -21 0 -37 -3 -35 -7 3 -4
-7 -10 -21 -14 -29 -7 -55 10 -55 37 0 9 -7 25 -16 34 -10 9 -17 30 -18 46 -1
16 -4 29 -8 29 -15 0 -8 18 17 41 30 29 30 29 4 87 -12 25 -22 51 -23 57 -2 5
-10 35 -19 65 -10 30 -20 85 -24 121 -4 51 -9 66 -19 62 -17 -6 -18 1 -2 27
10 15 10 22 0 32 -9 9 -12 9 -12 0 0 -19 -20 -14 -21 6 0 9 -3 12 -5 5 -3 -6
2 -28 10 -48 17 -39 23 -185 8 -185 -8 0 -20 30 -42 110 -7 25 -17 55 -22 67
-6 12 -8 30 -6 41 3 12 -2 25 -13 33 -12 8 -21 32 -26 64 -6 42 -8 46 -14 25
-13 -45 -9 -166 6 -216 17 -57 19 -75 5 -54 -5 8 -15 41 -21 73 -7 33 -17 57
-24 57 -16 0 -28 -60 -19 -95 5 -19 3 -25 -7 -23 -16 3 -14 -40 2 -57 14 -14
11 -45 -5 -45 -7 0 -19 6 -25 14 -6 7 -22 11 -37 8 -32 -6 -18 -22 28 -31 31
-7 33 -9 31 -46 -1 -22 3 -45 9 -52 9 -12 5 -17 -13 -15 -3 1 -6 -12 -7 -29
-1 -32 12 -38 26 -13 6 11 16 14 31 9 18 -5 21 -12 16 -34 -5 -23 -1 -29 20
-39 21 -10 25 -19 26 -54 1 -49 10 -80 24 -78 30 4 43 -11 55 -60 15 -61 8
-133 -19 -213 -18 -53 -19 -85 -2 -88 3 -1 20 -3 38 -5 28 -2 33 1 38 28 5 23
9 27 16 17 14 -23 11 -59 -6 -59 -12 0 -15 -13 -15 -60 0 -55 11 -78 23 -47 3
6 6 2 6 -10 1 -12 7 -23 13 -25 9 -3 8 -10 -5 -23 -11 -11 -16 -26 -13 -39 3
-15 -8 -35 -39 -71 -43 -48 -61 -80 -31 -56 8 7 28 16 44 21 28 7 33 5 56 -25
14 -18 31 -45 37 -59 14 -31 45 -34 54 -7 3 11 0 44 -8 74 -12 45 -12 56 -1
72 13 18 14 18 14 -4 0 -21 2 -22 16 -10 15 12 16 11 10 -8 -4 -12 -2 -24 4
-28 14 -8 13 -102 -2 -167 -6 -29 -11 -57 -9 -62 1 -5 -1 -27 -4 -48 -6 -32
-11 -38 -32 -38 -20 0 -24 -4 -21 -22 4 -33 52 -32 56 0 2 13 10 26 18 29 8 3
14 9 14 15 0 5 -4 7 -9 4 -5 -4 -7 3 -4 14 3 11 9 17 14 14 13 -7 11 -48 -2
-61 -8 -8 -8 -13 0 -17 6 -4 11 -3 11 2 0 6 9 8 21 5 14 -4 18 -11 13 -22 -3
-9 -8 -25 -11 -36 -7 -29 -26 -69 -38 -77 -6 -5 -4 -8 5 -8 13 0 13 -1 0 -10
-12 -8 -13 -12 -2 -19 24 -15 -17 -23 -55 -10 -30 10 -66 49 -45 49 6 0 12 9
15 20 6 25 -1 25 -22 3 -19 -21 -46 -38 -81 -54 -25 -11 -60 -10 -359 11 -74
5 -138 7 -143 4 -11 -7 -329 -35 -337 -29 -4 2 -29 5 -55 6 -28 2 -50 8 -53
16 -3 7 -15 15 -26 19 -12 3 -30 14 -40 23 -11 9 -40 27 -65 41 -53 29 -83 77
-92 152 l-6 46 35 -18 c20 -10 49 -32 65 -49 17 -17 37 -31 46 -31 9 0 25 -7
36 -15 10 -8 21 -15 24 -15 3 0 5 100 6 222 0 123 2 248 5 278 2 30 0 61 -4
68 -5 6 -4 12 2 12 6 0 11 9 11 21 0 16 4 19 20 14 11 -4 20 -2 20 4 0 6 -9
11 -20 11 -11 0 -20 5 -20 11 0 8 12 10 33 6 19 -3 40 -1 48 4 9 6 -4 9 -38 9
-42 0 -51 3 -47 15 4 8 16 16 28 16 20 2 20 2 -1 6 -29 6 -30 23 -1 23 l21 0
-22 19 c-16 14 -18 21 -9 24 7 3 3 6 -9 6 -23 1 -28 15 -36 103 -3 41 10 51
51 36 17 -6 24 -4 29 8 3 8 12 13 19 10 8 -3 14 1 14 8 0 9 7 12 21 9 19 -5
89 24 89 38 0 3 11 11 25 17 15 7 25 20 25 32 0 21 -15 27 -25 9 -4 -6 -14 -8
-22 -5 -8 3 -24 -5 -37 -19 -24 -26 -46 -33 -46 -15 0 6 -4 10 -10 10 -5 0
-10 -11 -10 -24 0 -17 -7 -27 -22 -32 -13 -4 -26 -12 -30 -18 -6 -8 -8 -8 -8
1 0 8 -9 9 -32 2 -17 -5 -32 -8 -33 -6 -13 22 -25 103 -26 180 -1 102 -11 124
-43 97 -8 -6 -39 -14 -69 -17 -67 -7 -67 -6 -93 127 -21 113 -66 236 -83 232
-7 -1 -9 2 -6 8 8 13 -14 70 -27 70 -5 0 -6 5 -3 10 4 6 -22 39 -57 73 -57 55
-76 67 -169 101 -57 21 -120 49 -139 61 -19 12 -45 25 -57 29 -12 4 -27 13
-33 21 -22 27 11 17 69 -20 l55 -35 13 32 c13 31 29 48 46 48 4 0 -2 -9 -13
-20 -11 -11 -20 -30 -20 -42 l1 -23 18 23 c11 12 27 22 35 22 9 0 19 7 22 15
3 8 14 17 24 20 12 4 17 12 13 21 -3 10 1 13 13 12 23 -4 184 83 184 98 0 7 6
12 13 11 52 -2 64 26 25 63 l-22 20 -23 -22 -23 -21 0 35 c0 39 11 48 62 48
37 0 32 -9 -8 -16 -38 -7 -44 -14 -11 -14 15 0 33 -10 45 -25 23 -29 32 -23
32 22 0 21 4 32 10 28 6 -4 7 -12 4 -18 -4 -7 4 -2 18 11 36 33 40 17 9 -34
-16 -25 -31 -66 -35 -95 -6 -46 -4 -53 23 -84 16 -19 34 -42 40 -52 11 -17 12
-17 26 1 8 11 15 29 16 40 0 20 1 20 12 2 7 -10 24 -30 40 -44 15 -14 27 -31
27 -38 0 -7 5 -14 11 -16 17 -6 -1 -60 -22 -65 -27 -7 -23 -38 7 -58 25 -16
26 -16 20 3 -5 16 0 22 24 31 17 5 45 20 61 32 26 18 33 19 40 8 11 -18 11
-32 0 -25 -5 4 -7 -3 -4 -14 5 -18 10 -14 38 27 18 26 55 69 83 96 32 30 61
70 78 107 15 33 30 57 34 55 16 -10 30 116 18 164 -11 41 -13 43 -18 21 -7
-25 -7 -25 -22 10 -36 80 -46 138 -32 175 5 12 9 13 14 5 6 -9 26 -11 75 -5
38 4 64 10 58 13 -5 4 -12 15 -16 25 -4 11 -17 17 -37 17 -16 0 -30 5 -30 10
0 6 9 10 20 10 11 0 20 4 20 10 0 5 7 7 15 4 8 -4 15 -11 15 -16z m-4265 -8
c-3 -5 -13 -10 -21 -10 -8 0 -14 5 -14 10 0 6 9 10 21 10 11 0 17 -4 14 -10z
m-647 -24 c4 -21 -14 -37 -35 -29 -14 5 -18 35 -6 47 12 12 38 1 41 -18z
m5352 4 c0 -12 -44 -20 -53 -11 -15 15 1 29 28 23 14 -2 25 -8 25 -12z m-2854
-30 c22 0 17 -17 -7 -23 -16 -4 -19 -10 -14 -27 5 -16 3 -21 -6 -18 -8 3 -15
14 -17 26 -2 11 -11 23 -20 25 -12 3 -10 5 6 6 14 1 22 7 22 19 0 27 14 37 18
13 2 -12 10 -21 18 -21z m1689 -9 c6 -26 4 -32 -6 -29 -8 3 -15 16 -17 31 l-3
27 -29 -22 c-31 -23 -31 -43 1 -33 23 8 26 -10 3 -19 -20 -8 -54 20 -54 44 0
23 19 37 55 42 37 5 41 1 50 -41z m-4455 7 c0 -6 8 -17 18 -25 9 -8 12 -12 6
-9 -17 9 -25 -20 -14 -50 15 -38 13 -40 -32 -39 -41 0 -43 1 -41 29 1 16 6 32
10 35 4 3 9 19 11 36 4 30 19 48 34 39 4 -3 8 -10 8 -16z m1980 12 c0 -5 -18
-10 -40 -10 -22 0 -40 5 -40 10 0 6 18 10 40 10 22 0 40 -4 40 -10z m1115 -15
c8 0 14 -5 12 -10 -1 -6 -9 -10 -17 -10 -8 0 -16 -10 -18 -22 -2 -13 -7 -23
-12 -23 -11 0 -20 54 -9 58 5 2 9 11 9 20 0 15 2 15 10 2 5 -8 16 -15 25 -15z
m3858 -2 c-13 -2 -33 -2 -45 0 -13 2 -3 4 22 4 25 0 35 -2 23 -4z m-2793 -17
c0 -3 -4 -8 -10 -11 -5 -3 -10 -1 -10 4 0 6 5 11 10 11 6 0 10 -2 10 -4z
m2150 -50 c0 -39 -6 -31 -14 19 -5 29 -4 36 3 25 6 -8 11 -28 11 -44z m37 -23
c-2 -16 -4 -3 -4 27 0 30 2 43 4 28 2 -16 2 -40 0 -55z m-4347 49 c0 -11 -88
-13 -95 -2 -4 6 14 10 44 10 28 0 51 -4 51 -8z m965 -1 c27 -5 35 -10 25 -15
-13 -5 -51 -3 -70 4 -3 2 -30 2 -60 1 -40 -1 -51 1 -40 8 18 12 88 13 145 2z
m2255 -27 c0 -13 9 -33 21 -45 l20 -20 -5 36 c-4 21 -9 42 -13 47 -3 6 0 9 8
6 8 -2 15 -16 17 -30 4 -35 40 -46 38 -12 0 14 -6 22 -13 20 -7 -3 -10 1 -6
10 5 14 34 19 46 8 3 -4 2 -15 -4 -25 -8 -15 -6 -19 8 -19 16 0 16 -1 -1 -13
-10 -7 -17 -20 -16 -28 5 -34 0 -51 -15 -45 -8 3 -15 1 -15 -4 0 -5 -7 -7 -15
-4 -8 4 -15 13 -15 21 0 11 -6 8 -19 -8 -11 -13 -23 -20 -28 -16 -4 5 -1 14 7
20 8 7 16 20 18 31 3 15 -2 18 -27 14 -17 -3 -31 -4 -31 -2 0 1 7 15 15 30 10
20 11 30 4 33 -6 2 -15 -2 -19 -9 -5 -8 -10 -9 -14 -2 -9 15 22 42 39 36 8 -4
15 -17 15 -30z m-5147 9 c13 -8 -14 -33 -35 -33 -14 0 -18 5 -14 16 3 9 6 20
6 25 0 7 21 4 43 -8z m6657 -8 c0 -14 -4 -25 -9 -25 -6 0 -8 36 -2 48 5 10 11
-2 11 -23z m407 -67 c-2 -18 -4 -4 -4 32 0 36 2 50 4 33 2 -18 2 -48 0 -65z
m-2491 75 c-11 -11 -35 -12 -42 -2 -3 5 7 9 22 9 15 0 24 -3 20 -7z m2156 -75
c2 -20 0 -34 -4 -32 -4 3 -7 26 -7 52 1 49 5 42 11 -20z m-3892 49 c0 -1 -4
-17 -9 -35 -9 -30 -8 -32 15 -32 31 0 30 -27 -1 -44 -11 -6 -23 -15 -26 -20
-12 -15 -29 4 -29 32 0 45 20 102 35 102 8 0 15 -1 15 -3z m320 -12 c0 -3 -12
-17 -27 -30 l-28 -24 43 -1 c26 0 41 -4 37 -10 -9 -14 -58 -12 -79 3 -16 12
-16 15 10 40 25 25 44 34 44 22z m3300 -22 c0 -19 -3 -24 -10 -17 -6 6 -8 18
-4 27 9 24 14 21 14 -10z m27 -10 c-3 -10 -5 -4 -5 12 0 17 2 24 5 18 2 -7 2
-21 0 -30z m371 12 c-3 -3 -9 2 -12 12 -6 14 -5 15 5 6 7 -7 10 -15 7 -18z
m-6101 -37 c-2 -34 -6 -44 -22 -47 -17 -3 -18 -1 -5 14 12 14 12 18 -1 26 -12
8 -12 10 0 18 7 5 10 14 7 20 -4 6 -1 11 8 11 10 0 14 -11 13 -42z m5876 35
c-7 -2 -21 -2 -30 0 -10 3 -4 5 12 5 17 0 24 -2 18 -5z m574 -15 c-3 -8 -6 -5
-6 6 -1 11 2 17 5 13 3 -3 4 -12 1 -19z m-898 -146 c11 -41 6 -107 -8 -116 -3
-2 -6 30 -7 73 0 42 -5 85 -11 96 -6 11 -8 38 -4 60 l5 40 7 -55 c4 -30 12
-75 18 -98z m-5629 109 c0 -25 -53 -24 -58 2 -3 13 3 17 27 17 24 0 31 -5 31
-19z m5960 -6 c0 -8 -4 -15 -10 -15 -5 0 -7 7 -4 15 4 8 8 15 10 15 2 0 4 -7
4 -15z m-370 -5 c0 -5 -2 -10 -4 -10 -3 0 -8 5 -11 10 -3 6 -1 10 4 10 6 0 11
-4 11 -10z m-70 -38 c0 -5 -5 -13 -11 -19 -8 -8 -5 -17 11 -33 l22 -22 -4 40
c-2 22 0 38 4 36 5 -3 8 -18 8 -35 0 -16 6 -29 13 -30 10 0 10 -2 0 -6 -7 -2
-13 -11 -13 -19 0 -9 -4 -13 -9 -10 -5 3 -11 -3 -14 -14 -3 -11 -10 -20 -16
-20 -7 0 -6 9 4 24 18 28 10 56 -16 56 -24 0 -24 16 -2 38 16 16 15 17 -5 20
-12 2 -20 8 -17 13 7 10 45 -6 45 -19z m467 6 c-3 -8 -6 -5 -6 6 -1 11 2 17 5
13 3 -3 4 -12 1 -19z m-5977 2 c0 -5 -2 -10 -4 -10 -3 0 -8 5 -11 10 -3 6 -1
10 4 10 6 0 11 -4 11 -10z m5229 -28 c-11 -33 -9 -100 5 -137 7 -19 7 -19 -7
-2 -18 22 -23 22 -30 -3 -3 -11 -11 -20 -18 -20 -10 0 -10 3 -1 12 29 29 3 97
-55 144 -15 12 -25 26 -20 30 9 9 53 -31 78 -71 11 -16 19 -28 20 -25 8 55 28
114 35 107 2 -2 -1 -18 -7 -35z m336 28 c3 -5 1 -10 -4 -10 -6 0 -11 5 -11 10
0 6 2 10 4 10 3 0 8 -4 11 -10z m-220 -56 c7 2 19 -3 27 -12 11 -13 11 -14 -1
-7 -9 5 -20 0 -32 -16 l-19 -24 2 55 c0 30 3 42 5 27 3 -19 9 -27 18 -23z
m-1856 -20 c27 -35 37 -89 21 -122 -7 -15 -15 -22 -17 -15 -2 7 0 20 5 30 12
25 -2 74 -32 106 -16 18 -20 27 -11 27 7 0 23 -12 34 -26z m1951 3 c12 -4 11
-6 -3 -6 -14 -1 -17 -6 -12 -23 5 -16 4 -20 -3 -13 -11 10 -15 30 -13 55 1 10
4 11 9 4 4 -6 14 -14 22 -17z m-5300 -7 c0 -11 -4 -20 -10 -20 -5 0 -10 9 -10
20 0 11 5 20 10 20 6 0 10 -9 10 -20z m5157 -24 c-1 -23 -5 -32 -13 -29 -9 3
-10 12 -4 29 10 25 4 30 -19 15 -8 -5 -11 -16 -8 -25 4 -9 2 -16 -3 -16 -17 0
-11 38 8 49 30 18 40 12 39 -23z m-3111 -31 c-20 -19 -36 -31 -36 -25 0 11 63
71 68 65 2 -2 -12 -20 -32 -40z m1172 8 c-14 -38 -1 -58 46 -72 30 -9 30 -9 5
-10 -56 -2 -93 63 -59 104 18 22 21 13 8 -22z m2026 22 c-7 -17 -34 -21 -34
-4 0 5 4 8 9 4 5 -3 12 -1 16 5 9 15 15 12 9 -5z m196 -5 c0 -13 -6 -20 -17
-19 -11 0 -13 3 -5 6 6 2 12 11 12 19 0 8 2 14 5 14 3 0 5 -9 5 -20z m-3684
-50 c-7 -30 -7 -49 1 -71 9 -23 9 -29 0 -26 -16 5 -21 76 -8 110 16 40 20 33
7 -13z m1562 23 c-16 -2 -40 -2 -55 0 -16 2 -3 4 27 4 30 0 43 -2 28 -4z
m-1401 -17 c-3 -9 3 -17 16 -21 21 -7 21 -7 2 -12 -26 -7 -34 -21 -36 -58 -1
-17 -3 -22 -6 -12 -4 15 -6 16 -26 2 -12 -8 -25 -15 -29 -15 -12 0 -9 38 3 46
8 4 9 -1 4 -17 -8 -24 -8 -24 14 -5 25 22 29 51 5 42 -8 -3 -12 -2 -9 4 3 6
14 10 23 11 11 1 8 4 -8 9 l-25 8 26 1 c15 1 29 8 33 16 3 8 8 15 12 15 3 0 4
-6 1 -14z m3826 7 c-7 -2 -21 -2 -30 0 -10 3 -4 5 12 5 17 0 24 -2 18 -5z
m-2448 -13 c-3 -5 -21 -9 -38 -9 l-32 1 30 8 c43 11 47 11 40 0z m-1025 -29
c-10 -20 -9 -21 17 -16 26 6 25 4 -7 -14 -20 -10 -42 -31 -49 -45 -8 -14 -20
-27 -28 -30 -9 -4 -11 -1 -7 5 4 7 1 10 -7 7 -8 -3 -13 -11 -11 -17 1 -6 -2
-11 -8 -11 -21 0 -8 25 33 62 23 22 32 35 20 28 -18 -8 -23 -8 -24 2 0 10 -2
10 -6 1 -8 -21 -22 -15 -16 7 3 11 9 18 13 15 4 -2 25 4 46 14 45 22 50 21 34
-8z m-113 6 c-16 -7 -35 -23 -42 -37 l-14 -25 -1 26 c0 33 17 49 55 49 l30 -1
-28 -12z m-119 -30 c-2 -30 -5 -33 -35 -34 -25 -1 -33 3 -32 15 0 11 2 12 6 5
8 -21 22 -15 38 17 20 39 26 38 23 -3z m-2862 12 c3 -6 2 -15 -4 -21 -6 -6 -8
-17 -5 -24 4 -10 -3 -14 -21 -14 -30 0 -32 7 -9 32 15 17 15 18 -8 18 -19 0
-21 2 -9 10 20 13 47 13 56 -1z m1954 1 c0 -6 -27 -9 -62 -9 -50 1 -57 3 -33
9 45 11 95 11 95 0z m-1880 -25 c0 -33 -25 -81 -45 -89 -34 -13 -35 -5 -6 27
27 28 37 52 32 80 0 4 4 7 9 7 6 0 10 -11 10 -25z m6450 9 c0 -9 8 -23 18 -30
16 -13 16 -14 -3 -7 -30 10 -51 53 -25 53 6 0 10 -7 10 -16z m67 -16 c-3 -8
-6 -5 -6 6 -1 11 2 17 5 13 3 -3 4 -12 1 -19z m-2792 -36 c-6 -7 -35 18 -35
31 0 5 9 2 20 -8 11 -10 18 -20 15 -23z m-1459 3 c-4 -10 1 -15 14 -15 16 0
20 -7 20 -30 0 -16 -5 -30 -11 -30 -6 0 -8 -9 -4 -20 3 -11 2 -28 -4 -37 -9
-15 -10 -13 -11 13 0 17 -7 53 -15 80 -8 27 -15 50 -15 52 0 1 7 2 16 2 10 0
14 -6 10 -15z m-104 -94 c-2 -16 -11 -38 -21 -48 -9 -10 -26 -39 -38 -65 -20
-43 -43 -63 -43 -39 0 39 84 196 99 186 4 -2 6 -17 3 -34z m4097 -61 c0 -9 -4
-8 -9 5 -5 11 -9 27 -9 35 0 9 4 8 9 -5 5 -11 9 -27 9 -35z m-329 -4 c0 -2 -7
-6 -15 -10 -8 -3 -15 -1 -15 4 0 6 7 10 15 10 8 0 15 -2 15 -4z m-2193 -23 c4
-11 -4 -25 -26 -44 -28 -23 -37 -26 -57 -17 -13 6 -24 14 -24 18 0 17 63 57
93 59 4 1 11 -7 14 -16z m2228 -23 c7 0 16 6 18 13 3 7 6 4 6 -7 1 -14 -4 -17
-24 -14 -14 3 -25 1 -25 -5 0 -6 -2 -8 -5 -5 -3 3 -2 13 2 24 4 11 8 13 11 6
2 -7 10 -12 17 -12z m190 2 c-3 -3 -11 0 -18 7 -9 10 -8 11 6 5 10 -3 15 -9
12 -12z m112 -39 c-3 -10 -5 -2 -5 17 0 19 2 27 5 18 2 -10 2 -26 0 -35z m550
41 c-3 -3 -12 -4 -19 -1 -8 3 -5 6 6 6 11 1 17 -2 13 -5z m-752 -32 c-3 -3
-11 0 -18 7 -9 10 -8 11 6 5 10 -3 15 -9 12 -12z m-4942 -39 c-7 -2 -21 -2
-30 0 -10 3 -4 5 12 5 17 0 24 -2 18 -5z m50 -10 c-7 -2 -19 -2 -25 0 -7 3 -2
5 12 5 14 0 19 -2 13 -5z m4834 -25 c-3 -7 -5 -2 -5 12 0 14 2 19 5 13 2 -7 2
-19 0 -25z m-4757 -66 c0 -32 -31 -102 -45 -102 -2 0 4 15 15 33 26 42 26 97
-1 133 l-21 29 26 -28 c18 -20 26 -39 26 -65z m5287 42 c-3 -3 -12 -4 -19 -1
-8 3 -5 6 6 6 11 1 17 -2 13 -5z m-4774 -27 c-12 -7 -34 -28 -48 -47 -14 -18
-25 -30 -25 -26 0 4 9 21 21 37 19 27 19 29 2 30 -10 1 -4 5 12 9 47 12 62 11
38 -3z m-605 -4 c-20 -3 -28 -10 -29 -26 -1 -20 -2 -21 -6 -2 -3 11 -10 23
-17 27 -6 4 9 7 34 6 29 -1 35 -2 18 -5z m-90 -10 c-23 -4 -28 -10 -30 -36
l-1 -32 -4 32 c-3 23 -10 33 -26 36 -12 2 3 4 33 4 30 0 43 -2 28 -4z m-1251
-59 c-24 -34 -32 -56 -32 -89 0 -24 -3 -41 -7 -38 -14 8 -8 78 9 103 17 27 55
70 60 70 1 0 -12 -21 -30 -46z m1260 -1 c-3 -10 -5 -2 -5 17 0 19 2 27 5 18 2
-10 2 -26 0 -35z m-164 22 c-3 -9 -8 -14 -10 -11 -3 3 -2 9 2 15 9 16 15 13 8
-4z m685 2 c22 -13 22 -13 -25 -57 l-48 -45 39 42 c22 24 38 44 35 46 -2 2
-13 9 -24 15 -11 6 -15 11 -10 11 6 0 20 -5 33 -12z m222 -41 c0 -27 -10 -14
-16 20 -3 22 -2 25 6 14 5 -8 10 -24 10 -34z m471 15 c-23 -19 -31 -32 -26
-41 5 -9 4 -11 -4 -6 -6 4 -19 2 -27 -5 -19 -15 -38 1 -31 27 4 16 5 15 6 -3
0 -13 5 -23 11 -23 13 0 28 32 23 50 -4 13 -3 13 6 0 9 -13 13 -12 33 8 12 12
27 22 33 22 5 0 -5 -13 -24 -29z m-1174 -33 c-2 -13 -4 -5 -4 17 -1 22 1 32 4
23 2 -10 2 -28 0 -40z m379 17 c-9 -14 -14 -30 -11 -35 3 -6 -5 -10 -19 -10
l-24 0 31 35 c36 41 46 45 23 10z m392 -6 c-6 -16 -12 -28 -15 -26 -7 7 8 57
18 57 4 0 3 -14 -3 -31z m-175 1 c-4 -16 0 -20 20 -20 39 0 41 -16 2 -18 -27
-2 -35 2 -40 19 -6 17 5 37 22 39 0 0 -1 -9 -4 -20z m-686 -37 c-3 -10 -5 -2
-5 17 0 19 2 27 5 18 2 -10 2 -26 0 -35z m3358 -117 c20 -85 45 -242 29 -181
-30 114 -84 335 -83 342 2 21 32 -69 54 -161z m-4515 140 c0 -3 -4 -8 -10 -11
-5 -3 -10 -1 -10 4 0 6 5 11 10 11 6 0 10 -2 10 -4z m1233 -38 c43 6 32 -4
-14 -12 l-36 -6 6 32 c5 30 6 31 9 7 3 -22 7 -25 35 -21z m-1146 -35 c-13 -13
-13 -10 -3 22 9 30 12 32 14 15 2 -13 -3 -29 -11 -37z m-100 15 c-3 -7 -5 -2
-5 12 0 14 2 19 5 13 2 -7 2 -19 0 -25z m1143 -8 c-8 -5 -19 -10 -25 -10 -5 0
-3 5 5 10 8 5 20 10 25 10 6 0 3 -5 -5 -10z m57 -16 c-3 -3 -12 -4 -19 -1 -8
3 -5 6 6 6 11 1 17 -2 13 -5z m1070 -126 c-3 -8 -6 -5 -6 6 -1 11 2 17 5 13 3
-3 4 -12 1 -19z m-10 -60 c-3 -7 -5 -2 -5 12 0 14 2 19 5 13 2 -7 2 -19 0 -25z
m1960 -20 c-3 -8 -6 -5 -6 6 -1 11 2 17 5 13 3 -3 4 -12 1 -19z m384 -187 c11
-46 24 -116 29 -155 6 -39 13 -84 16 -100 4 -18 2 -26 -4 -22 -5 3 -13 23 -16
43 -4 21 -18 90 -31 153 -44 214 -40 277 6 81z m139 104 c0 -16 -6 -25 -16
-25 -12 0 -15 -6 -9 -22 17 -54 17 -78 2 -84 -15 -5 -97 42 -97 56 0 4 11 19
25 34 14 15 25 32 25 38 0 6 11 8 26 5 16 -3 28 0 31 9 8 21 13 17 13 -11z
m-600 -29 c0 -2 -7 -9 -15 -16 -13 -11 -14 -10 -9 4 5 14 24 23 24 12z m-1720
-61 c25 -18 61 -50 79 -69 29 -30 32 -36 16 -36 -30 0 -100 38 -149 81 -84 74
-40 94 54 24z m-597 8 c-7 -2 -19 -2 -25 0 -7 3 -2 5 12 5 14 0 19 -2 13 -5z
m2233 -2 c14 12 30 -11 45 -65 7 -27 7 -29 -5 -13 -7 9 -17 17 -22 17 -14 0
-54 46 -54 61 0 10 3 10 12 1 8 -8 15 -8 24 -1z m84 -1 c0 -5 -4 -10 -10 -10
-5 0 -10 5 -10 10 0 6 5 10 10 10 6 0 10 -4 10 -10z m41 -56 c-9 -28 -9 -29
-10 -3 -1 14 2 29 6 32 11 12 13 2 4 -29z m-1888 -33 c25 -43 74 -81 95 -74 9
3 14 2 9 -2 -10 -12 49 -36 71 -28 12 4 11 1 -4 -10 -18 -13 -28 -14 -60 -5
-21 6 -46 11 -56 9 -9 -1 -20 4 -24 10 -5 9 -2 10 11 5 10 -3 -5 16 -34 43
-50 48 -58 61 -44 74 11 12 18 8 36 -22z m1464 -17 c-3 -3 -12 -4 -19 -1 -8 3
-5 6 6 6 11 1 17 -2 13 -5z m430 -26 c-3 -8 -6 -5 -6 6 -1 11 2 17 5 13 3 -3
4 -12 1 -19z m-327 -12 c0 -3 -4 -8 -10 -11 -5 -3 -10 -1 -10 4 0 6 5 11 10
11 6 0 10 -2 10 -4z m360 -17 c0 -6 -4 -7 -10 -4 -5 3 -10 11 -10 16 0 6 5 7
10 4 6 -3 10 -11 10 -16z m-1543 -11 c-3 -8 -6 -5 -6 6 -1 11 2 17 5 13 3 -3
4 -12 1 -19z m-1330 -10 c-3 -8 -6 -5 -6 6 -1 11 2 17 5 13 3 -3 4 -12 1 -19z
m-550 -30 c-3 -7 -5 -2 -5 12 0 14 2 19 5 13 2 -7 2 -19 0 -25z m3160 1 c-4
-13 0 -19 11 -19 10 0 24 -5 32 -10 11 -7 6 -8 -17 -4 -26 5 -33 3 -33 -10 0
-9 5 -16 12 -16 6 0 9 -2 6 -5 -3 -3 -37 0 -77 6 -62 10 -71 15 -71 33 1 20 2
20 14 4 15 -21 27 -23 24 -5 -2 6 6 12 16 12 25 0 34 -25 9 -26 -17 -1 -17 -1
0 -6 25 -6 57 24 57 54 0 15 4 22 11 17 6 -3 9 -15 6 -25z m1884 1 c22 0 24
-11 7 -28 -23 -23 -38 -13 -37 26 1 20 3 29 6 20 2 -10 13 -18 24 -18z m511
-15 c13 -50 -12 -92 -27 -45 -3 11 -15 20 -25 20 -24 0 -33 37 -12 50 29 17
55 7 64 -25z m-2145 -17 c-3 -8 -6 -5 -6 6 -1 11 2 17 5 13 3 -3 4 -12 1 -19z
m-3117 3 c0 -6 -4 -13 -10 -16 -5 -3 -10 1 -10 9 0 9 5 16 10 16 6 0 10 -4 10
-9z m1428 2 c-10 -2 -26 -2 -35 0 -10 3 -2 5 17 5 19 0 27 -2 18 -5z m-1188
-48 c0 -8 -4 -15 -10 -15 -5 0 -7 7 -4 15 4 8 8 15 10 15 2 0 4 -7 4 -15z
m2560 -11 c25 -4 50 -7 56 -6 6 1 28 -5 48 -13 26 -11 36 -21 32 -31 -3 -7 0
-14 7 -14 8 0 13 -20 15 -57 2 -31 7 -64 11 -72 5 -9 14 -54 21 -101 16 -109
50 -233 67 -243 7 -5 11 -13 7 -18 -3 -6 2 -9 12 -7 12 2 20 -6 25 -25 7 -28
7 -37 -8 -74 -3 -10 -5 -27 -5 -38 1 -11 -1 -14 -4 -7 -3 6 -12 12 -20 12 -8
0 -14 10 -14 25 0 14 -11 53 -25 87 -14 35 -27 81 -29 103 -8 64 -33 143 -41
124 -7 -18 -2 -67 15 -144 6 -27 12 -59 14 -70 2 -11 13 -60 25 -108 11 -49
21 -115 21 -148 0 -33 7 -76 15 -96 8 -19 15 -46 15 -59 0 -12 4 -25 9 -28 4
-3 14 -27 21 -53 8 -27 18 -51 23 -54 11 -8 23 -99 13 -99 -4 0 -16 9 -28 20
-17 15 -25 17 -35 8 -18 -15 -50 13 -37 34 5 7 7 38 6 68 -2 40 0 51 7 40 21
-29 12 11 -13 59 -13 25 -28 57 -33 71 -6 14 -16 38 -22 53 -6 15 -11 38 -11
49 0 12 -4 35 -9 52 -6 17 -15 58 -21 91 -19 97 -79 344 -100 416 -11 36 -20
80 -20 98 0 19 -4 30 -10 26 -6 -4 -7 -23 -4 -47 9 -55 -17 -48 -28 8 -8 36
-18 64 -39 106 -5 10 -9 34 -9 53 0 31 2 34 18 27 9 -6 37 -13 62 -18z m157 0
c-3 -3 -12 -4 -19 -1 -8 3 -5 6 6 6 11 1 17 -2 13 -5z m60 -10 c-3 -3 -12 -4
-19 -1 -8 3 -5 6 6 6 11 1 17 -2 13 -5z m-2790 -36 c-3 -8 -6 -5 -6 6 -1 11 2
17 5 13 3 -3 4 -12 1 -19z m-510 -100 c-2 -24 -4 -7 -4 37 0 44 2 63 4 43 2
-21 2 -57 0 -80z m3862 57 c0 -5 -6 -1 -14 9 -8 11 -15 27 -15 35 1 17 29 -26
29 -44z m-442 3 c-3 -8 -6 -5 -6 6 -1 11 2 17 5 13 3 -3 4 -12 1 -19z m1720
-50 c-2 -13 -4 -5 -4 17 -1 22 1 32 4 23 2 -10 2 -28 0 -40z m-3280 -5 c-3
-10 -5 -2 -5 17 0 19 2 27 5 18 2 -10 2 -26 0 -35z m1699 -37 c-9 -14 -26 -31
-38 -37 -18 -9 -15 -3 12 28 38 43 52 48 26 9z m-1699 -83 c-2 -16 -4 -5 -4
22 0 28 2 40 4 28 2 -13 2 -35 0 -50z m20 30 c-3 -10 -5 -4 -5 12 0 17 2 24 5
18 2 -7 2 -21 0 -30z m-2532 -119 c-48 -8 -115 -9 -115 -2 0 5 30 7 68 7 37
-1 58 -3 47 -5z m-137 -11 c-10 -2 -28 -2 -40 0 -13 2 -5 4 17 4 22 1 32 -1
23 -4z m-38 -153 c-10 -23 -10 -22 -5 9 3 18 6 52 7 75 2 38 2 37 5 -9 2 -28
-1 -62 -7 -75z m4785 60 c7 -12 -19 -12 -55 0 -22 7 -21 8 12 9 20 1 40 -3 43
-9z m-1035 -107 c0 -27 1 -58 2 -70 0 -12 6 -24 14 -27 8 -3 14 -13 14 -22 0
-10 -5 -14 -15 -10 -10 3 -15 -1 -16 -12 -1 -9 -10 19 -20 62 -11 44 -16 82
-11 85 5 3 11 14 15 24 10 28 15 20 17 -30z m2274 -129 c9 -22 8 -24 -9 -24
-8 0 -15 9 -15 20 0 24 15 27 24 4z m-2214 -66 c0 -21 3 -38 8 -38 4 0 12 -11
19 -25 7 -16 7 -25 1 -25 -13 0 -1 -50 18 -71 8 -8 14 -26 14 -38 0 -13 15
-55 34 -95 19 -39 42 -95 51 -124 10 -29 21 -55 26 -58 5 -3 9 -14 9 -25 0
-10 4 -19 9 -19 9 0 23 -41 16 -48 -3 -3 -11 0 -18 7 -8 6 -25 10 -38 9 -17
-2 -24 3 -26 17 -10 60 -14 69 -24 54 -5 -9 -9 -9 -9 -2 0 6 5 15 10 18 17 10
11 25 -10 25 -11 0 -19 3 -18 8 1 4 -2 31 -6 59 -7 45 -13 55 -42 74 -38 23
-44 48 -14 56 22 6 23 10 14 77 -8 58 -23 60 -26 4 l-1 -43 -4 40 c-3 22 -10
43 -16 47 -15 9 -20 147 -5 165 16 20 28 -1 28 -49z m-2593 -80 c-3 -8 -6 -5
-6 6 -1 11 2 17 5 13 3 -3 4 -12 1 -19z m2202 -59 c-10 -20 -12 -20 -21 -5 -6
11 -5 21 6 32 9 8 17 23 17 32 1 9 4 5 6 -10 2 -15 -1 -37 -8 -49z m2451 -19
c0 -5 -4 -10 -10 -10 -5 0 -10 5 -10 10 0 6 5 10 10 10 6 0 10 -4 10 -10z
m-2390 -34 c0 -14 -10 -30 -25 -40 -24 -16 -25 -16 -25 4 0 19 27 57 43 59 4
1 7 -10 7 -23z m2270 -1 c0 -2 -13 -11 -29 -19 -46 -24 -194 -38 -327 -31
-208 12 -177 27 86 41 63 3 117 8 119 10 6 6 151 5 151 -1z m254 -52 c-13 -27
-24 -54 -24 -60 0 -7 -5 -13 -11 -13 -13 0 -7 28 16 83 8 20 21 37 29 37 10 0
7 -13 -10 -47z m-5904 -13 c0 -5 -5 -10 -11 -10 -5 0 -7 5 -4 10 3 6 8 10 11
10 2 0 4 -4 4 -10z m5276 -18 c-2 -1 -39 -9 -82 -16 -107 -19 -382 -24 -411
-8 -30 17 -29 19 6 14 16 -2 37 1 48 6 15 9 448 13 439 4z m484 -14 c11 -12
19 -29 18 -38 -3 -16 -48 -28 -48 -12 0 6 -9 8 -21 5 -18 -5 -19 -2 -13 23 4
16 9 32 11 37 8 14 32 7 53 -15z m-5773 -20 c-3 -7 -5 -2 -5 12 0 14 2 19 5
13 2 -7 2 -19 0 -25z m336 -28 c-3 -12 -8 -19 -11 -16 -5 6 5 36 12 36 2 0 2
-9 -1 -20z m5372 -100 c-5 -14 -2 -20 9 -20 9 0 16 7 16 16 0 8 5 12 11 9 6
-4 7 -19 4 -35 -5 -22 -2 -29 11 -32 28 -5 25 -86 -4 -118 -15 -17 -21 -32
-17 -47 6 -26 5 -26 -29 -13 -35 13 -36 -13 0 -36 14 -9 23 -23 20 -30 -5 -13
31 -31 41 -20 4 3 -1 6 -10 6 -10 0 -17 8 -17 20 0 20 1 20 24 3 25 -18 25
-18 5 -38 -14 -14 -22 -17 -27 -8 -13 20 -58 26 -75 9 -20 -20 -23 -20 -48 5
l-20 20 21 35 c12 18 25 34 30 34 7 0 15 58 25 185 2 24 9 51 17 59 18 21 20
20 13 -4z m-1607 -28 c2 -12 12 -27 23 -32 15 -8 19 -21 19 -58 -1 -40 -2 -44
-12 -27 -6 11 -20 26 -30 33 -10 7 -18 23 -18 35 0 12 -7 31 -15 41 -20 27
-19 33 8 31 14 -1 23 -9 25 -23z m2188 -152 c11 -26 19 -95 29 -260 3 -47 10
-143 15 -215 9 -128 11 -157 30 -445 5 -80 16 -289 25 -465 8 -176 18 -360 21
-410 3 -49 7 -148 9 -220 3 -71 7 -149 11 -173 4 -29 2 -52 -7 -68 -8 -16 -9
-28 -4 -32 22 -16 14 -63 -15 -92 -17 -18 -27 -36 -24 -45 4 -8 1 -15 -5 -15
-16 0 -13 46 4 60 8 7 15 20 15 29 0 12 -2 13 -8 3 -6 -8 -13 -2 -25 22 -12
27 -20 33 -36 29 -12 -3 -21 -9 -21 -14 0 -13 -33 -49 -45 -49 -6 0 -16 9 -23
20 -15 25 -42 26 -42 3 0 -16 -2 -16 -11 -3 -8 12 -10 9 -6 -12 9 -56 -11 -26
-22 33 -7 34 -38 129 -70 213 -31 83 -63 171 -70 196 -8 25 -22 70 -33 100
-15 42 -18 68 -13 112 4 36 2 65 -6 79 -19 36 -21 233 -4 404 9 88 18 239 21
335 2 96 6 181 9 187 6 16 -23 344 -35 398 -5 23 -5 87 0 150 5 61 9 115 9
120 1 14 44 17 76 5 20 -7 25 -6 25 5 0 11 12 15 45 15 27 0 49 6 57 15 9 10
29 14 63 12 43 -2 52 -6 61 -27z m-2346 5 c0 -8 -2 -15 -4 -15 -2 0 -6 7 -10
15 -3 8 -1 15 4 15 6 0 10 -7 10 -15z m205 -32 c1 -15 5 -35 8 -43 3 -8 10
-33 15 -55 6 -22 14 -51 17 -65 l7 -25 -21 25 c-11 14 -21 30 -21 36 0 6 -6
17 -14 23 -18 15 -26 82 -11 88 7 2 10 15 7 31 -3 15 -1 24 3 20 4 -4 8 -20
10 -35z m-485 -18 c0 -8 -7 -15 -16 -15 -14 0 -14 3 -4 15 7 8 14 15 16 15 2
0 4 -7 4 -15z m2126 -32 c-6 -14 -9 -15 -16 -4 -11 19 -1 46 13 32 5 -5 7 -18
3 -28z m-1758 -107 c11 -23 23 -55 27 -73 8 -39 42 -112 63 -136 14 -16 14
-19 0 -34 -20 -19 -48 -11 -55 17 -3 11 -9 20 -14 20 -5 0 -8 3 -7 8 3 11 -13
55 -25 71 -6 7 -12 18 -13 25 -1 6 -10 29 -19 51 -19 40 -25 80 -17 102 7 20
38 -6 60 -51z m-692 -63 c-10 -10 -19 5 -10 18 6 11 8 11 12 0 2 -7 1 -15 -2
-18z m264 -63 c0 -5 -4 -10 -10 -10 -5 0 -10 5 -10 10 0 6 5 10 10 10 6 0 10
-4 10 -10z m-2087 -107 c-7 -2 -19 -2 -25 0 -7 3 -2 5 12 5 14 0 19 -2 13 -5z
m-63 -7 c0 -2 -7 -6 -15 -10 -8 -3 -15 -1 -15 4 0 6 7 10 15 10 8 0 15 -2 15
-4z m-87 -23 c-7 -2 -21 -2 -30 0 -10 3 -4 5 12 5 17 0 24 -2 18 -5z m-386
-69 c-3 -3 -12 -4 -19 -1 -8 3 -5 6 6 6 11 1 17 -2 13 -5z m-54 -11 c-7 -2
-19 -2 -25 0 -7 3 -2 5 12 5 14 0 19 -2 13 -5z m3124 -49 c0 -26 -45 -36 -108
-25 -4 0 -9 7 -12 15 -4 10 5 14 35 14 22 1 43 3 46 6 12 12 39 5 39 -10z
m-754 -11 c-7 -2 -19 -2 -25 0 -7 3 -2 5 12 5 14 0 19 -2 13 -5z m591 -19 c5
-14 4 -15 -9 -4 -17 14 -19 20 -6 20 5 0 12 -7 15 -16z m-84 -4 c0 -5 -2 -10
-4 -10 -3 0 -8 5 -11 10 -3 6 -1 10 4 10 6 0 11 -4 11 -10z m-2833 -26 c-3 -3
-12 -4 -19 -1 -8 3 -5 6 6 6 11 1 17 -2 13 -5z m-44 -11 c-7 -2 -19 -2 -25 0
-7 3 -2 5 12 5 14 0 19 -2 13 -5z m-158 -23 c-11 -5 -27 -9 -35 -9 -13 -1 -13
0 0 9 8 5 24 9 35 9 l20 0 -20 -9z m52 4 c-3 -3 -12 -4 -19 -1 -8 3 -5 6 6 6
11 1 17 -2 13 -5z m-130 -20 c-9 -9 -147 -30 -147 -22 0 4 9 8 19 8 11 0 22 4
25 8 3 5 28 9 56 9 28 0 49 -1 47 -3z m-182 -33 c-11 -5 -54 -14 -95 -20 -41
-7 -83 -15 -92 -17 -10 -3 -18 -1 -18 4 0 8 153 37 205 40 l20 1 -20 -8z
m-233 -42 c-33 -13 -209 -42 -224 -36 -7 2 7 7 32 12 25 4 68 13 95 20 28 8
66 14 85 14 31 0 33 -1 12 -10z m-257 -49 c-11 -5 -36 -8 -55 -8 -32 0 -33 1
-10 8 14 4 39 8 55 8 25 1 27 -1 10 -8z m1607 -111 c-8 -7 -262 -57 -762 -150
-253 -47 -655 -122 -774 -144 -151 -29 -157 -30 -150 -10 7 17 39 26 189 54
61 11 157 29 215 40 279 53 663 123 830 151 102 17 205 35 230 40 25 5 67 12
95 15 27 3 51 8 53 9 1 2 20 3 42 2 22 0 36 -4 32 -7z m-257 -139 c-3 -5 -10
-10 -16 -10 -5 0 -9 5 -9 10 0 6 7 10 16 10 8 0 12 -4 9 -10z m182 -116 c-3
-3 -12 -4 -19 -1 -8 3 -5 6 6 6 11 1 17 -2 13 -5z m-1330 -90 c-3 -3 -12 -4
-19 -1 -8 3 -5 6 6 6 11 1 17 -2 13 -5z m4980 -26 c-3 -7 -5 -2 -5 12 0 14 2
19 5 13 2 -7 2 -19 0 -25z m10 -40 c-3 -8 -6 -5 -6 6 -1 11 2 17 5 13 3 -3 4
-12 1 -19z m1100 -1050 c-3 -8 -6 -5 -6 6 -1 11 2 17 5 13 3 -3 4 -12 1 -19z
m-93 -9 c-6 -11 -24 -2 -24 11 0 5 7 7 15 4 8 -4 12 -10 9 -15z"/>
<path d="M3660 5650 c-9 -6 -10 -10 -3 -10 6 0 15 5 18 10 8 12 4 12 -15 0z"/>
<path d="M3635 5434 c3 -38 6 -96 8 -129 2 -39 7 -59 15 -58 6 2 9 -4 6 -12
-4 -8 -1 -15 6 -15 7 0 10 -7 5 -17 -4 -12 -3 -14 3 -8 10 11 4 75 -7 75 -3 0
-6 24 -5 53 0 28 -3 63 -8 76 -5 13 -11 40 -14 60 -10 61 -15 48 -9 -25z"/>
<path d="M3710 5230 c0 -5 11 -10 24 -10 14 0 28 5 31 10 4 6 -7 10 -24 10
-17 0 -31 -4 -31 -10z"/>
<path d="M6550 5570 c0 -5 5 -10 10 -10 6 0 10 5 10 10 0 6 -4 10 -10 10 -5 0
-10 -4 -10 -10z"/>
<path d="M6970 5276 c0 -9 7 -16 16 -16 9 0 14 5 12 12 -6 18 -28 21 -28 4z"/>
<path d="M7017 5230 c-3 -11 -1 -20 4 -20 5 0 9 9 9 20 0 11 -2 20 -4 20 -2 0
-6 -9 -9 -20z"/>
<path d="M7188 5239 c-25 -14 -23 -49 2 -49 16 0 20 7 20 30 0 17 -1 30 -2 30
-2 0 -11 -5 -20 -11z"/>
<path d="M7055 5219 c-5 -7 -1 -18 11 -26 24 -17 33 2 11 24 -11 12 -16 12
-22 2z"/>
<path d="M6397 4953 c-2 -5 -10 -25 -16 -45 -9 -26 -27 -48 -64 -75 -108 -78
-187 -144 -187 -157 0 -24 43 -27 65 -6 12 11 27 20 35 20 7 0 22 8 32 17 11
10 39 17 75 19 46 3 62 8 87 32 17 16 36 28 43 25 14 -5 50 17 121 73 33 27
33 27 14 46 -11 11 -42 22 -78 28 -32 4 -72 13 -87 19 -34 13 -35 13 -40 4z"/>
<path d="M7028 4805 c-3 -6 0 -26 8 -45 7 -21 12 -27 12 -15 0 31 -13 71 -20
60z"/>
<path d="M5995 4790 c3 -5 8 -10 11 -10 2 0 4 5 4 10 0 6 -5 10 -11 10 -5 0
-7 -4 -4 -10z"/>
<path d="M5995 4760 c-6 -10 33 -40 52 -40 26 0 20 18 -12 33 -19 9 -37 12
-40 7z"/>
<path d="M6077 4749 c7 -7 15 -10 18 -7 3 3 -2 9 -12 12 -14 6 -15 5 -6 -5z"/>
<path d="M7240 4529 c0 -5 5 -7 10 -4 6 3 10 8 10 11 0 2 -4 4 -10 4 -5 0 -10
-5 -10 -11z"/>
<path d="M6085 4520 c-17 -6 -17 -8 -3 -16 9 -5 21 -20 27 -34 8 -23 9 -22 7
12 -2 44 -5 48 -31 38z"/>
<path d="M7215 4510 c-3 -5 -1 -10 4 -10 6 0 11 5 11 10 0 6 -2 10 -4 10 -3 0
-8 -4 -11 -10z"/>
<path d="M7225 4410 c-3 -5 -2 -10 4 -10 5 0 11 -10 13 -22 l3 -23 7 22 c7 24
-15 52 -27 33z"/>
<path d="M6349 4278 c-16 -6 -20 -14 -15 -31 3 -12 6 -40 6 -62 1 -32 3 -37
11 -22 5 9 17 17 24 17 8 0 15 5 15 10 0 6 -5 10 -10 10 -18 0 -7 63 12 68 10
2 18 7 18 11 0 9 -35 8 -61 -1z"/>
<path d="M6266 4152 c-7 -13 0 -46 11 -49 5 -2 8 9 5 27 -4 31 -7 35 -16 22z"/>
<path d="M6515 4080 c-4 -6 -14 -8 -24 -5 -9 3 -26 -2 -37 -10 -18 -13 -17
-14 18 -15 20 0 38 5 40 12 3 8 14 7 38 -5 38 -19 43 -19 27 4 -16 21 -53 33
-62 19z"/>
<path d="M6240 4069 c0 -5 5 -7 10 -4 6 3 10 8 10 11 0 2 -4 4 -10 4 -5 0 -10
-5 -10 -11z"/>
<path d="M6400 4010 c-13 -10 -29 -16 -35 -14 -5 2 -26 -9 -45 -25 -37 -32
-25 -42 24 -20 18 8 33 9 55 1 28 -10 31 -9 31 9 0 10 -7 19 -15 19 -20 0 -19
10 2 26 10 7 16 15 13 17 -3 3 -16 -3 -30 -13z"/>
<path d="M6500 4001 c-39 -11 -10 -19 40 -11 25 4 37 8 28 9 -9 0 -22 3 -30 5
-7 2 -24 1 -38 -3z"/>
<path d="M6840 3999 c-12 -8 -8 -9 14 -4 19 4 32 2 38 -7 7 -10 9 -10 5 2 -5
19 -37 24 -57 9z"/>
<path d="M6175 3970 c-4 -6 3 -10 14 -10 25 0 27 6 6 13 -8 4 -17 2 -20 -3z"/>
<path d="M6820 3966 c0 -9 5 -16 10 -16 6 0 10 4 10 9 0 6 -4 13 -10 16 -5 3
-10 -1 -10 -9z"/>
<path d="M6790 3939 c0 -5 5 -7 10 -4 6 3 10 8 10 11 0 2 -4 4 -10 4 -5 0 -10
-5 -10 -11z"/>
<path d="M6193 3903 c9 -2 17 -9 17 -14 0 -6 5 -7 10 -4 19 12 10 25 -17 24
-17 -1 -21 -3 -10 -6z"/>
<path d="M6686 3854 c-4 -10 -1 -14 6 -12 15 5 23 28 10 28 -5 0 -13 -7 -16
-16z"/>
<path d="M6828 3857 c-62 -28 -95 -86 -40 -72 29 7 72 50 72 72 0 7 -1 13 -2
12 -2 0 -15 -6 -30 -12z"/>
<path d="M6235 3830 c8 -32 8 -32 36 -21 17 7 19 10 7 10 -19 1 -26 21 -8 21
6 0 10 4 10 9 0 5 -11 8 -25 7 -22 -1 -25 -4 -20 -26z"/>
<path d="M6290 3850 c0 -5 5 -10 11 -10 5 0 7 5 4 10 -3 6 -8 10 -11 10 -2 0
-4 -4 -4 -10z"/>
<path d="M6690 3830 c-14 -4 -19 -8 -12 -9 20 -2 14 -21 -8 -21 -10 0 -23 -7
-28 -16 -5 -8 -22 -24 -38 -35 -18 -12 -23 -19 -13 -19 9 0 37 16 62 35 25 19
52 34 59 33 7 -2 14 7 16 20 4 24 1 24 -38 12z"/>
<path d="M6890 3824 c0 -8 5 -12 10 -9 6 4 8 11 5 16 -9 14 -15 11 -15 -7z"/>
<path d="M6300 3797 c0 -30 17 -45 61 -53 26 -4 30 -3 19 5 -10 7 -11 11 -2
11 34 0 -6 40 -55 55 -20 5 -23 3 -23 -18z"/>
<path d="M6605 3790 c-3 -6 1 -7 9 -4 18 7 21 14 7 14 -6 0 -13 -4 -16 -10z"/>
<path d="M6513 3673 c-31 -12 -7 -30 69 -53 31 -10 50 6 21 17 -10 4 -27 15
-37 25 -20 18 -31 21 -53 11z"/>
<path d="M6330 3645 c0 -8 -7 -15 -16 -15 -13 0 -15 -7 -9 -42 10 -60 21 -77
45 -71 11 3 34 0 51 -7 40 -17 61 0 36 28 -9 10 -17 24 -17 30 0 7 -5 12 -11
12 -6 0 -20 10 -31 23 -16 17 -18 18 -14 4 3 -11 2 -16 -4 -12 -6 3 -10 19
-10 36 0 16 -4 29 -10 29 -5 0 -10 -7 -10 -15z m10 -55 c0 -5 -2 -10 -4 -10
-3 0 -8 5 -11 10 -3 6 -1 10 4 10 6 0 11 -4 11 -10z"/>
<path d="M6210 3590 c-22 -7 -10 -16 15 -10 6 1 20 2 33 2 12 0 25 4 28 9 6
11 -41 10 -76 -1z"/>
<path d="M6414 3329 c-3 -5 9 -9 25 -9 17 0 31 4 31 9 0 5 -11 9 -25 9 -14 0
-28 -4 -31 -9z"/>
<path d="M6333 3290 c-24 -10 -29 -35 -13 -60 8 -12 10 -12 11 5 0 17 1 18 7
3 6 -15 15 -14 82 14 83 34 86 36 78 43 -2 3 -26 -2 -52 -11 -26 -9 -50 -13
-53 -10 -4 3 1 6 11 6 9 0 14 5 11 10 -8 12 -52 12 -82 0z"/>
<path d="M7237 3220 c3 -11 7 -20 9 -20 2 0 4 9 4 20 0 11 -4 20 -9 20 -5 0
-7 -9 -4 -20z"/>
<path d="M6637 5403 c-12 -12 -7 -33 8 -33 17 0 19 9 7 28 -5 7 -11 9 -15 5z"/>
<path d="M4450 5049 c0 -5 5 -7 10 -4 6 3 10 8 10 11 0 2 -4 4 -10 4 -5 0 -10
-5 -10 -11z"/>
<path d="M5286 3778 c8 -24 21 -48 28 -53 8 -6 16 -19 19 -30 2 -11 5 -1 6 23
0 23 -3 42 -9 42 -5 0 -10 6 -10 14 0 16 -26 46 -40 46 -5 0 -2 -19 6 -42z"/>
<path d="M5342 3663 c-9 -15 -6 -30 13 -69 14 -27 25 -55 25 -61 0 -7 4 -13 9
-13 11 0 -4 86 -22 129 -14 32 -15 33 -25 14z"/>
<path d="M4580 6430 c-1 -3 -4 -18 -6 -35 -2 -24 -1 -27 7 -12 6 10 8 25 6 35
-3 9 -6 15 -7 12z"/>
<path d="M4659 6403 c-13 -16 -12 -17 4 -4 16 13 21 21 13 21 -2 0 -10 -8 -17
-17z"/>
<path d="M4614 6389 c-3 -6 -2 -15 3 -20 5 -5 9 -1 9 11 0 23 -2 24 -12 9z"/>
<path d="M4655 6329 c-4 -6 -5 -12 -2 -15 2 -3 7 2 10 11 7 17 1 20 -8 4z"/>
<path d="M4910 6303 c0 -10 4 -14 8 -8 4 6 11 13 16 18 5 4 2 7 -7 7 -10 0
-17 -8 -17 -17z"/>
<path d="M4631 6284 c0 -11 3 -14 6 -6 3 7 2 16 -1 19 -3 4 -6 -2 -5 -13z"/>
<path d="M4650 6290 c0 -5 5 -10 10 -10 6 0 10 5 10 10 0 6 -4 10 -10 10 -5 0
-10 -4 -10 -10z"/>
<path d="M4688 6293 c6 -2 12 -9 12 -14 0 -6 -6 -7 -12 -3 -10 5 -10 3 0 -7
11 -11 14 -12 21 -1 5 8 11 13 15 13 3 -1 9 -1 14 0 12 1 -32 18 -48 18 -10
-1 -11 -2 -2 -6z"/>
<path d="M4755 6289 c-4 -6 -5 -12 -2 -15 2 -3 7 2 10 11 7 17 1 20 -8 4z"/>
<path d="M7985 6270 c3 -5 8 -10 11 -10 2 0 4 5 4 10 0 6 -5 10 -11 10 -5 0
-7 -4 -4 -10z"/>
<path d="M4635 6240 c-4 -6 -10 -8 -15 -5 -4 3 -6 -5 -2 -17 l5 -22 8 22 c10
27 17 27 36 5 13 -16 13 -16 3 5 -11 24 -25 28 -35 12z"/>
<path d="M4481 6214 c0 -11 3 -14 6 -6 3 7 2 16 -1 19 -3 4 -6 -2 -5 -13z"/>
<path d="M8150 6220 c-8 -5 -10 -10 -5 -10 6 0 17 5 25 10 8 5 11 10 5 10 -5
0 -17 -5 -25 -10z"/>
<path d="M4551 6204 c0 -11 3 -14 6 -6 3 7 2 16 -1 19 -3 4 -6 -2 -5 -13z"/>
<path d="M4651 6194 c0 -11 3 -14 6 -6 3 7 2 16 -1 19 -3 4 -6 -2 -5 -13z"/>
<path d="M7957 6189 c-4 -16 -3 -18 9 -8 7 6 11 15 8 20 -8 13 -11 11 -17 -12z"/>
<path d="M7990 6200 c0 -8 5 -22 10 -30 9 -13 10 -13 10 0 0 8 -5 22 -10 30
-9 13 -10 13 -10 0z"/>
<path d="M4611 6174 c0 -11 3 -14 6 -6 3 7 2 16 -1 19 -3 4 -6 -2 -5 -13z"/>
<path d="M8020 6185 c0 -2 10 -10 23 -16 20 -11 21 -11 8 4 -13 16 -31 23 -31
12z"/>
<path d="M4031 6128 c5 -10 11 -18 12 -18 2 0 3 8 3 18 0 10 -6 19 -13 19 -8
0 -9 -6 -2 -19z"/>
<path d="M8125 6130 c-3 -6 1 -7 9 -4 18 7 21 14 7 14 -6 0 -13 -4 -16 -10z"/>
<path d="M8125 6090 c-3 -6 1 -7 9 -4 18 7 21 14 7 14 -6 0 -13 -4 -16 -10z"/>
<path d="M8172 6069 c0 -17 2 -28 5 -25 9 9 12 56 4 56 -5 0 -8 -14 -9 -31z"/>
<path d="M3895 6080 c-4 -6 -11 -7 -17 -4 -7 4 -8 2 -4 -5 4 -6 15 -9 25 -6
28 8 24 -36 -6 -67 -15 -15 -23 -31 -20 -35 4 -3 7 -1 7 5 0 7 5 12 10 12 6 0
9 -5 8 -11 -2 -6 3 -14 11 -17 9 -3 11 0 6 8 -5 9 -4 11 4 6 17 -11 48 2 48
19 0 8 -4 15 -8 15 -5 0 -6 8 -2 18 6 15 4 15 -16 -2 -16 -15 -18 -21 -9 -28
10 -6 9 -8 -3 -8 -26 0 -30 12 -9 27 11 8 20 24 20 36 0 25 -35 53 -45 37z"/>
<path d="M3817 6073 c-3 -5 6 -9 20 -10 19 -1 22 1 12 8 -17 11 -26 11 -32 2z"/>
<path d="M8110 6060 c0 -5 5 -10 10 -10 6 0 10 5 10 10 0 6 -4 10 -10 10 -5 0
-10 -4 -10 -10z"/>
<path d="M3848 6022 c-16 -9 -28 -21 -28 -26 0 -4 6 -4 13 2 6 6 16 11 20 11
11 0 41 31 30 31 -4 0 -20 -8 -35 -18z"/>
<path d="M4230 6025 c0 -8 2 -15 4 -15 2 0 6 7 10 15 3 8 1 15 -4 15 -6 0 -10
-7 -10 -15z"/>
<path d="M4164 6006 c-3 -8 -4 -23 -2 -33 3 -11 6 -6 9 15 6 34 2 42 -7 18z"/>
<path d="M3606 6002 c-3 -5 1 -9 9 -9 8 0 12 4 9 9 -3 4 -7 8 -9 8 -2 0 -6 -4
-9 -8z"/>
<path d="M4141 5978 c0 -9 -4 -25 -7 -35 -5 -17 -5 -17 6 0 6 10 9 25 7 35 -4
15 -5 15 -6 0z"/>
<path d="M4021 5943 c0 -13 -6 -22 -12 -20 -6 1 -14 -5 -16 -13 -4 -13 -3 -13
6 0 9 13 11 12 11 -5 1 -19 1 -19 11 -2 6 10 8 28 6 40 l-4 22 -2 -22z"/>
<path d="M2490 5930 c0 -5 5 -10 10 -10 6 0 10 5 10 10 0 6 -4 10 -10 10 -5 0
-10 -4 -10 -10z"/>
<path d="M4088 5919 c-15 -16 -15 -19 -3 -19 8 0 15 5 15 11 0 5 4 7 10 4 6
-3 7 1 4 9 -3 9 -7 16 -8 15 0 0 -9 -9 -18 -20z"/>
<path d="M2755 5910 c3 -5 8 -10 11 -10 2 0 4 5 4 10 0 6 -5 10 -11 10 -5 0
-7 -4 -4 -10z"/>
<path d="M7240 5879 c0 -5 5 -7 10 -4 6 3 10 8 10 11 0 2 -4 4 -10 4 -5 0 -10
-5 -10 -11z"/>
<path d="M7326 5879 c6 -11 44 -12 44 -1 0 4 -11 8 -25 8 -14 1 -22 -2 -19 -7z"/>
<path d="M7406 5875 c4 -8 11 -15 16 -15 6 0 5 6 -2 15 -7 8 -14 15 -16 15 -2
0 -1 -7 2 -15z"/>
<path d="M3020 5860 c0 -16 7 -20 30 -20 23 0 30 4 30 20 0 16 -7 20 -30 20
-23 0 -30 -4 -30 -20z"/>
<path d="M7272 5865 c-7 -8 -9 -15 -4 -15 5 0 15 7 22 15 16 19 -1 19 -18 0z"/>
<path d="M3548 5863 c6 -2 18 -2 25 0 6 3 1 5 -13 5 -14 0 -19 -2 -12 -5z"/>
<path d="M7505 5850 c-3 -5 -1 -10 4 -10 6 0 11 5 11 10 0 6 -2 10 -4 10 -3 0
-8 -4 -11 -10z"/>
<path d="M3486 5827 c13 -21 14 -30 4 -42 -6 -8 -9 -23 -5 -35 7 -22 25 -18
25 6 0 8 -4 12 -10 9 -5 -3 -7 0 -4 9 3 8 12 12 19 10 10 -4 12 1 8 18 -4 18
-3 20 6 8 7 -9 11 -10 11 -3 0 16 -17 26 -25 13 -4 -6 -14 -1 -26 12 l-20 23
17 -28z"/>
<path d="M7290 5835 c0 -8 9 -15 20 -15 24 0 27 15 4 24 -22 9 -24 8 -24 -9z"/>
<path d="M3270 5823 c0 -12 28 -38 34 -32 2 2 -5 13 -15 23 -11 11 -19 15 -19
9z"/>
<path d="M6730 5820 c0 -13 18 -22 24 -11 3 5 -1 11 -9 15 -8 3 -15 1 -15 -4z"/>
<path d="M4100 5789 c0 -17 4 -28 10 -24 6 3 10 17 10 31 0 13 -4 24 -10 24
-5 0 -10 -14 -10 -31z"/>
<path d="M6548 5803 c7 -3 16 -2 19 1 4 3 -2 6 -13 5 -11 0 -14 -3 -6 -6z"/>
<path d="M6585 5800 c-3 -6 1 -7 9 -4 18 7 21 14 7 14 -6 0 -13 -4 -16 -10z"/>
<path d="M1300 5790 c0 -5 5 -10 11 -10 5 0 7 5 4 10 -3 6 -8 10 -11 10 -2 0
-4 -4 -4 -10z"/>
<path d="M1281 5734 c0 -11 3 -14 6 -6 3 7 2 16 -1 19 -3 4 -6 -2 -5 -13z"/>
<path d="M1730 5740 c0 -5 5 -10 11 -10 5 0 7 5 4 10 -3 6 -8 10 -11 10 -2 0
-4 -4 -4 -10z"/>
<path d="M1316 5728 c-11 -34 -17 -72 -11 -66 8 8 25 78 19 78 -3 0 -6 -6 -8
-12z"/>
<path d="M6516 5731 c-4 -5 -2 -12 3 -15 5 -4 12 -2 15 3 4 5 2 12 -3 15 -5 4
-12 2 -15 -3z"/>
<path d="M2017 5701 c3 -12 9 -21 13 -21 10 0 22 31 15 38 -3 3 -5 0 -5 -8 0
-10 -3 -10 -14 -1 -12 10 -13 8 -9 -8z"/>
<path d="M1260 5678 c0 -19 2 -20 10 -8 13 19 13 30 0 30 -5 0 -10 -10 -10
-22z"/>
<path d="M1971 5691 c-11 -7 -11 -10 0 -15 11 -5 11 -7 2 -12 -7 -3 -13 -18
-14 -32 0 -24 -1 -25 -9 -7 -7 16 -9 17 -9 3 -1 -9 -7 -19 -13 -21 -7 -3 -3
-6 9 -6 12 -1 25 -5 28 -11 4 -6 -1 -7 -11 -3 -12 4 -15 3 -10 -5 8 -14 -24
-73 -36 -66 -11 7 -10 0 6 -31 l14 -27 21 40 c24 48 26 56 9 47 -7 -4 -6 0 3
7 20 17 38 75 34 112 -4 34 -7 37 -24 27z"/>
<path d="M6950 5690 c0 -5 5 -10 10 -10 6 0 10 5 10 10 0 6 -4 10 -10 10 -5 0
-10 -4 -10 -10z"/>
<path d="M1808 5650 c-10 -17 -12 -30 -7 -30 6 0 13 9 16 20 3 11 9 20 14 20
5 0 9 5 9 10 0 19 -15 10 -32 -20z"/>
<path d="M1252 5620 c0 -19 2 -27 5 -17 2 9 2 25 0 35 -3 9 -5 1 -5 -18z"/>
<path d="M1866 5605 c-3 -8 -8 -38 -11 -67 -5 -44 -4 -50 6 -33 7 11 26 32 43
47 30 26 30 27 6 21 -14 -4 -29 -11 -33 -17 -5 -6 -6 6 -3 27 5 39 2 48 -8 22z"/>
<path d="M7021 5604 c0 -11 3 -14 6 -6 3 7 2 16 -1 19 -3 4 -6 -2 -5 -13z"/>
<path d="M7006 5554 c-4 -9 -4 -19 -1 -22 2 -3 7 3 11 12 4 9 4 19 1 22 -2 3
-7 -3 -11 -12z"/>
<path d="M1280 5035 c0 -28 17 -32 45 -12 23 17 12 37 -21 37 -19 0 -24 -5
-24 -25z"/>
<path d="M1252 5030 c0 -14 2 -19 5 -12 2 6 2 18 0 25 -3 6 -5 1 -5 -13z"/>
<path d="M5631 4474 c0 -11 3 -14 6 -6 3 7 2 16 -1 19 -3 4 -6 -2 -5 -13z"/>
<path d="M5451 4454 c0 -11 3 -14 6 -6 3 7 2 16 -1 19 -3 4 -6 -2 -5 -13z"/>
<path d="M5465 4396 c2 -22 10 -44 16 -50 9 -8 10 -6 4 9 -4 11 -11 34 -16 50
-8 27 -8 26 -4 -9z"/>
<path d="M5320 4270 c0 -5 -7 -7 -15 -4 -11 4 -15 -1 -15 -17 -1 -22 -2 -23
-14 -7 -18 24 -27 12 -14 -18 11 -24 28 -33 28 -15 0 5 20 8 45 7 45 -3 45 -2
45 31 0 38 -16 44 -30 11 l-9 -23 0 23 c-1 21 -21 33 -21 12z"/>
<path d="M5808 4207 c-3 -19 -2 -25 4 -19 6 6 8 18 6 28 -3 14 -5 12 -10 -9z"/>
<path d="M5780 4155 c0 -8 2 -15 4 -15 2 0 6 7 10 15 3 8 1 15 -4 15 -6 0 -10
-7 -10 -15z"/>
<path d="M4462 3630 c-10 -16 -10 -29 -1 -60 10 -33 9 -41 -6 -56 -14 -14 -18
-15 -25 -3 -14 21 -18 10 -31 -86 -7 -50 -15 -92 -19 -95 -4 -3 -9 -30 -13
-60 -6 -65 -42 -199 -67 -255 -10 -22 -22 -53 -25 -70 -17 -77 -59 -188 -81
-215 -7 -8 -15 -26 -18 -40 -5 -30 -34 -87 -46 -95 -5 -3 -16 -20 -23 -38 -51
-117 -76 -156 -117 -183 -51 -34 -52 -54 -5 -54 54 0 145 53 145 85 0 19 42
33 68 24 13 -5 28 -6 34 -3 5 3 17 -1 27 -10 10 -9 34 -19 54 -23 28 -4 37 -1
46 15 6 10 8 22 4 25 -3 4 0 14 8 23 7 9 14 26 15 37 2 33 15 67 25 67 5 0 3
12 -3 26 -11 23 -10 29 10 44 13 11 22 29 22 45 0 15 7 54 15 87 17 64 19 77
35 213 12 109 27 425 25 515 -1 36 1 75 6 88 5 13 5 22 -1 22 -6 0 -15 11 -20
25 -12 30 -21 31 -38 5z"/>
<path d="M4030 3420 c0 -16 2 -30 4 -30 2 0 6 14 8 30 3 17 1 30 -4 30 -4 0
-8 -13 -8 -30z"/>
<path d="M4123 3021 c-7 -12 -13 -30 -13 -41 0 -11 -4 -20 -10 -20 -5 0 -10
-11 -10 -24 0 -14 -4 -27 -9 -30 -11 -7 -23 -84 -15 -98 10 -16 24 14 17 39
-3 16 -1 23 9 23 24 0 54 79 48 128 -5 39 -6 41 -17 23z"/>
<path d="M4576 2933 c-12 -13 -6 -53 9 -53 9 0 15 9 15 24 0 26 -12 40 -24 29z"/>
<path d="M4027 2755 c-9 -8 -17 -11 -20 -7 -2 4 -2 1 -1 -6 2 -6 -8 -28 -21
-48 -14 -20 -23 -40 -20 -44 3 -5 -1 -10 -7 -13 -7 -2 -10 -7 -7 -11 4 -4 17
5 30 19 13 13 29 25 36 25 13 0 39 39 35 52 -1 4 7 12 18 18 11 6 18 15 15 21
-9 14 -42 11 -58 -6z"/>
<path d="M2756 581 c-4 -7 -5 -15 -2 -18 9 -9 19 4 14 18 -4 11 -6 11 -12 0z"/>
<path d="M6640 259 c11 -8 12 -12 3 -16 -7 -2 -13 -9 -13 -15 0 -6 6 -6 15 2
12 10 18 8 35 -11 19 -23 19 -23 20 -3 0 25 -29 54 -56 54 -16 0 -17 -2 -4
-11z"/>
<path d="M8740 91 c0 -5 -12 -8 -27 -7 -26 3 -90 -9 -128 -24 -33 -12 -107
-31 -148 -36 -86 -11 -82 -23 8 -23 62 -1 85 2 75 9 -9 6 -10 10 -3 10 6 0 15
-5 19 -11 12 -21 116 -3 139 23 14 16 29 22 48 20 23 -3 27 0 27 22 0 14 -2
26 -5 26 -3 0 -5 -4 -5 -9z"/>
</g>
</svg>
